<?xml version="1.0" standalone="no"?>
<!DOCTYPE svg PUBLIC "-//W3C//DTD SVG 1.1//EN" "http://www.w3.org/Graphics/SVG/1.1/DTD/svg11.dtd" >
<svg xmlns="http://www.w3.org/2000/svg" xmlns:xlink="http://www.w3.org/1999/xlink" version="1.1">
<metadata></metadata>
<defs>
<font id="constantiaregular" horiz-adv-x="738" >
<font-face units-per-em="2048" ascent="1538" descent="-510" />
<missing-glyph horiz-adv-x="514" />
<glyph unicode="&#xfb00;" horiz-adv-x="1250" d="M385 821v-546q0 -98 2 -168q2 -27 26 -35l117 -34l2 -41q-140 3 -237 3q-99 0 -233 -3l-5 41l112 32q28 9 29 33q2 62 2 131v589l-136 34l-7 42l144 12q0 275 122.5 430t328.5 155q101 0 193 -25q-34 -122 -57 -251l-40 -7l-61 198q-28 4 -63 4q-115 0 -177 -102.5 t-62 -376.5v-23h432v2q0 282 122.5 437t328.5 155q100 0 195 -25q-34 -122 -58 -251l-42 -8l-65 200q-23 3 -58 3q-115 0 -177 -103t-62 -377v-33h249v-92h-249v-546q0 -94 2 -165q2 -27 26 -34l127 -38l2 -41q-150 3 -247 3q-99 0 -223 -3l-4 41l101 29q28 9 29 33 q2 62 2 134v587h-431z" />
<glyph unicode="&#xfb01;" horiz-adv-x="1196" d="M385 821v-546q0 -98 2 -168q2 -27 26 -35l117 -34l2 -41q-140 3 -237 3q-99 0 -233 -3l-5 41l112 32q28 9 29 33q2 62 2 131v589l-136 34l-7 42l144 12v4q0 282 145.5 437t388.5 155q121 0 230 -25q-33 -122 -57 -251l-39 -8l-80 199q-38 4 -84 4q-154 0 -237 -103 t-83 -377v-33h455q82 18 158 37l9 -7q-6 -130 -6 -286v-384q0 -120 2 -166q2 -27 25 -35l116 -34l2 -41q-138 3 -235 3q-99 0 -223 -3l-4 41l105 31q23 8 25 31q2 39 2 134v587h-431z" />
<glyph unicode="&#xfb02;" horiz-adv-x="1201" d="M385 818v-543q0 -98 2 -168q2 -27 26 -35l117 -34l2 -41q-140 3 -237 3q-99 0 -233 -3l-5 41l112 32q28 9 29 33q2 62 2 131v589l-136 34l-7 42l144 12v4q0 282 141 437t372 155q106 0 187 -24q52 11 102 24l9 -8q-6 -163 -6 -453v-651q0 -179 2 -288q3 -29 28 -36 l110 -33l2 -41q-135 3 -232 3q-99 0 -223 -3l-4 41l103 30q25 8 27 32q2 113 2 255v1044q-46 23 -124 23q-154 0 -233 -101t-79 -375v-33h264v-95h-264z" />
<glyph unicode="&#xfb03;" horiz-adv-x="1812" d="M1001 821v-546q0 -98 2 -168q2 -27 26 -35l117 -34l2 -41q-140 3 -237 3q-99 0 -234 -3l-4 41l112 32q28 9 29 33q2 62 2 131v587h-431v-546q0 -98 2 -168q2 -27 26 -35l117 -34l2 -41q-140 3 -237 3q-99 0 -233 -3l-5 41l112 32q28 9 29 33q2 62 2 131v589l-136 34 l-7 42l144 12q0 275 122.5 430t328.5 155q101 0 193 -25q-34 -122 -57 -251l-40 -7l-61 198q-28 4 -63 4q-115 0 -177 -102.5t-62 -376.5v-23h432v2q0 282 145.5 437t388.5 155q121 0 230 -25q-34 -122 -57 -251l-40 -8l-79 199q-38 4 -84 4q-154 0 -237 -103t-83 -377v-33 h455q82 18 158 37l9 -7q-6 -130 -6 -286v-384q0 -120 2 -166q2 -27 25 -35l116 -34l2 -41q-138 3 -236 3t-222 -3l-4 41l105 31q23 8 25 31q2 39 2 134v587h-431z" />
<glyph unicode="&#xfb04;" horiz-adv-x="1816" d="M1001 821v-546q0 -98 2 -168q2 -27 26 -35l117 -34l2 -41q-140 3 -237 3q-99 0 -234 -3l-4 41l112 32q28 9 29 33q2 62 2 131v587h-428v-546q0 -98 2 -168q2 -27 27 -35l118 -34l2 -41q-142 3 -240 3q-101 0 -235 -3l-5 41l112 32q28 9 29 33q2 62 2 131v589l-136 34 l-7 42l144 12q0 275 122.5 430t328.5 155q101 0 193 -25q-34 -122 -57 -251l-40 -7l-61 198q-28 4 -63 4q-115 0 -177 -102.5t-62 -376.5v-23h432v2q0 282 141 436.5t372 154.5q106 0 187 -24q52 11 102 24l9 -8q-6 -162 -6 -452v-651q0 -179 2 -288q3 -29 28 -36l109 -33 l2 -41q-134 3 -232 3t-222 -3l-4 41l103 30q25 8 27 32q2 113 2 255v1044q-46 23 -124 23q-154 0 -233 -101t-79 -375v-33h264v-92h-264z" />
<glyph unicode="fb" horiz-adv-x="1787" d="M821 357v1042q-46 23 -124 23q-154 0 -233 -101t-79 -375v-33h264v-95h-264v-543q0 -98 2 -168q2 -27 26 -35l117 -34l2 -41q-140 3 -237 3q-99 0 -233 -3l-5 41l112 32q28 9 29 33q2 62 2 131v589l-136 34l-7 42l144 12v4q0 282 141 437t372 155q106 0 187 -24 q52 11 102 24l9 -8q-6 -163 -6 -453v-201q162 105 295 105q188 0 297 -126t109 -329q0 -247 -140.5 -384.5t-389.5 -137.5q-166 0 -358 57q2 127 2 327zM1006 85q82 -26 165 -26q168 0 252.5 103t84.5 295q0 176 -78.5 274t-231.5 98q-98 0 -192 -44v-700z" />
<glyph unicode="ffb" horiz-adv-x="2403" d="M1437 357v1042q-46 23 -124 23q-154 0 -233 -101t-79 -375v-33h264v-92h-264v-546q0 -98 2 -168q2 -27 26 -35l117 -34l2 -41q-140 3 -237 3q-99 0 -234 -3l-4 41l112 32q28 9 29 33q2 62 2 131v587h-431v-546q0 -98 2 -168q2 -27 26 -35l117 -34l2 -41q-140 3 -237 3 q-99 0 -233 -3l-5 41l112 32q28 9 29 33q2 62 2 131v589l-136 34l-7 42l144 12q0 275 122.5 430t328.5 155q101 0 193 -25q-34 -122 -57 -251l-40 -7l-61 198q-28 4 -63 4q-115 0 -177 -102.5t-62 -376.5v-23h432v23q0 261 141 416t372 155q106 0 187 -24q52 11 102 24l9 -8 q-6 -163 -6 -453v-201q161 105 295 105q188 0 297 -126t109 -329q0 -247 -140.5 -384.5t-389.5 -137.5q-166 0 -358 57q2 127 2 327zM1622 85q82 -26 165 -26q168 0 252.5 103t84.5 295q0 176 -78.5 274t-231.5 98q-98 0 -192 -44v-700z" />
<glyph unicode="fh" horiz-adv-x="1813" d="M821 348v1051q-46 23 -124 23q-154 0 -233 -101t-79 -375v-33h264v-95h-264v-543q0 -98 2 -168q2 -27 26 -35l117 -34l2 -41q-140 3 -237 3q-99 0 -233 -3l-5 41l112 32q28 9 29 33q2 62 2 131v589l-136 34l-7 42l144 12v4q0 282 140.5 437t371.5 155q106 0 186 -24 q53 11 104 24l9 -8q-6 -163 -6 -453v-208q174 112 324 112q139 0 221 -77.5t82 -227.5v-353q0 -115 2 -185q1 -26 25 -35l112 -34l2 -41q-132 3 -229 3q-99 0 -219 -3l-4 41l99 29q24 8 26 31q1 14 1 63v436q0 123 -59 176.5t-174 53.5q-99 0 -209 -48v-449q0 -124 2 -227 q1 -28 25 -35l104 -30l2 -41q-126 3 -223 3q-99 0 -232 -3l-5 41l113 33q26 8 27 32q2 96 2 245z" />
<glyph unicode="ffh" horiz-adv-x="2429" d="M1437 1399q-46 23 -124 23q-154 0 -233 -101t-79 -375v-33h264v-92h-264v-546q0 -98 2 -168q2 -27 26 -35l117 -34l2 -41q-140 3 -237 3q-99 0 -234 -3l-4 41l112 32q28 9 29 33q2 62 2 131v587h-431v-546q0 -98 2 -168q2 -27 26 -35l117 -34l2 -41q-140 3 -237 3 q-99 0 -233 -3l-5 41l112 32q28 9 29 33q2 62 2 131v589l-136 34l-7 42l144 12q0 275 122.5 430t328.5 155q101 0 193 -25q-34 -122 -57 -251l-40 -7l-61 198q-28 4 -63 4q-115 0 -177 -102.5t-62 -376.5v-23h432v2q0 282 140.5 437t371.5 155q106 0 186 -24q53 11 104 24 l9 -8q-6 -163 -6 -453v-208q174 112 324 112q139 0 221 -77.5t82 -227.5v-353q0 -115 2 -185q1 -26 25 -35l112 -34l2 -41q-132 3 -230 3t-218 -3l-4 41l98 29q25 8 27 31q1 14 1 63v436q0 123 -59 176.5t-174 53.5q-99 0 -209 -48v-449q0 -124 2 -227q1 -28 25 -35l104 -30 l2 -41q-126 3 -224 3t-232 -3l-4 41l113 33q26 8 27 32q2 96 2 245v1051z" />
<glyph unicode="fj" horiz-adv-x="1174" d="M999 551v-472q0 -198 -75.5 -311t-265.5 -281l-47 40q148 196 176.5 289t28.5 236v769h-431v-546q0 -94 2 -165q2 -27 26 -34l130 -38l3 -41q-154 3 -251 3q-99 0 -233 -3l-5 41l112 32q28 9 29 33q2 62 2 131v589l-136 34l-7 42l144 12v4q0 282 144.5 437t388.5 155 q121 0 231 -25q-33 -122 -57 -251l-39 -8l-80 199q-38 4 -84 4q-154 0 -237 -103t-83 -377v-33h455q80 18 156 37l9 -7q-6 -130 -6 -392z" />
<glyph unicode="ffj" horiz-adv-x="1790" d="M1432 821h-431v-546q0 -98 2 -168q2 -27 26 -35l117 -34l2 -41q-140 3 -237 3q-99 0 -234 -3l-4 41l112 32q28 9 29 33q2 62 2 131v587h-431v-546q0 -98 2 -168q2 -27 26 -35l117 -34l2 -41q-140 3 -237 3q-99 0 -233 -3l-5 41l112 32q28 9 29 33q2 62 2 131v589l-136 34 l-7 42l144 12q0 275 122.5 430t328.5 155q101 0 193 -25q-34 -122 -57 -251l-40 -7l-61 198q-28 4 -63 4q-115 0 -177 -102.5t-62 -376.5v-23h432v23q0 261 145.5 416t388.5 155q121 0 230 -25q-34 -122 -57 -251l-40 -8l-79 199q-38 4 -84 4q-154 0 -237 -103t-83 -377v-33 h455q80 18 155 37l10 -7q-6 -130 -6 -392v-472q0 -198 -76 -311t-266 -281l-46 40q148 196 176.5 289t28.5 236v769z" />
<glyph unicode="fk" horiz-adv-x="1721" d="M821 1399q-46 23 -124 23q-154 0 -233 -101t-79 -375v-33h264v-95h-264v-543q0 -98 2 -168q2 -27 26 -35l117 -34l2 -41q-140 3 -237 3q-99 0 -233 -3l-5 41l112 32q28 9 29 33q2 62 2 131v589l-136 34l-7 42l144 12v4q0 282 141 437t372 155q106 0 187 -24q52 11 102 24 l9 -8q-6 -163 -6 -453v-654q0 -148 2 -290q2 -29 26 -35l97 -29l2 -41q-120 3 -217 3q-99 0 -232 -3l-5 41l118 35q20 7 22 30q2 113 2 252v1044zM1731 -3q-134 3 -199 3q-43 0 -113 -2q-38 61 -89 131q-138 193 -297 377l361 350l-111 31l-4 40q129 -3 190 -3q56 0 209 3 l4 -41q-101 -26 -145 -45.5t-103 -74.5l-214 -198l322 -402q54 -67 84.5 -89t102.5 -39z" />
<glyph unicode="ffk" horiz-adv-x="2337" d="M2347 -3q-134 3 -199 3q-43 0 -114 -2q-37 61 -88 131q-138 193 -297 377l361 350l-111 31l-4 40q129 -3 190 -3q55 0 209 3l4 -41q-101 -26 -145 -45.5t-103 -74.5l-214 -198l322 -402q54 -67 84.5 -89t102.5 -39zM1437 1399q-46 23 -124 23q-154 0 -233 -101t-79 -375 v-33h264v-92h-264v-546q0 -98 2 -168q2 -27 26 -35l117 -34l2 -41q-140 3 -237 3q-99 0 -234 -3l-4 41l112 32q28 9 29 33q2 62 2 131v587h-431v-546q0 -98 2 -168q2 -27 26 -35l117 -34l2 -41q-140 3 -237 3q-99 0 -233 -3l-5 41l112 32q28 9 29 33q2 62 2 131v589l-136 34 l-7 42l144 12q0 275 122.5 430t328.5 155q101 0 193 -25q-34 -122 -57 -251l-40 -7l-61 198q-18 4 -63 4q-115 0 -177 -102.5t-62 -376.5v-23h432v2q0 282 141 437t372 155q106 0 187 -24q52 11 102 24l9 -8q-6 -163 -6 -453v-654q0 -148 2 -290q2 -29 26 -35l97 -29l2 -41 q-120 3 -218 3t-232 -3l-4 41l118 35q20 7 22 30q2 113 2 252v1044z" />
<glyph horiz-adv-x="0" />
<glyph horiz-adv-x="0" />
<glyph unicode="&#xd;" horiz-adv-x="0" />
<glyph unicode=" "  horiz-adv-x="514" />
<glyph unicode="&#x09;" horiz-adv-x="514" />
<glyph unicode="&#xa0;" horiz-adv-x="514" />
<glyph unicode="!" horiz-adv-x="564" d="M319 396l-78 957l224 10l9 -8l-93 -956zM350 210q52 0 85.5 -32.5t33.5 -85.5t-33.5 -86.5t-85.5 -33.5q-55 0 -88 33.5t-33 86.5t33 85.5t88 32.5z" />
<glyph unicode="&#x22;" horiz-adv-x="736" d="M100 1487h196l-90 -485h-65zM430 1487h196l-90 -485h-65z" />
<glyph unicode="#" horiz-adv-x="1130" d="M314 -10h-117l59 391h-201v115h219l44 291h-201v115h218l60 392h117l-60 -392h289l60 392h116l-59 -392h202v-115h-220l-43 -291h201v-115h-219l-59 -391h-117l59 391h-289zM391 496h289l44 291h-289z" />
<glyph unicode="$" horiz-adv-x="901" d="M429 1174l78 8l-3 -117q142 -2 272 -36l7 -6l-49 -261l-38 -6l-56 205q-66 25 -137 28l-9 -368q89 -38 143.5 -63.5t97.5 -60.5t69.5 -82t26.5 -112q0 -136 -92.5 -224t-258.5 -102l-3 -128l-78 -8l3 133q-156 5 -306 53l-6 8l41 287l43 7l57 -238q80 -32 173 -37l9 403 q-70 30 -124 56t-97.5 63t-70 87.5t-26.5 121.5q0 118 89.5 192t241.5 85zM482 57q177 26 177 186q0 113 -169 184zM425 985q-163 -20 -163 -148q0 -114 155 -184z" />
<glyph unicode="%" horiz-adv-x="1682" d="M213 1066q0 -182 44 -278.5t131 -96.5q81 0 124 83t43 280q0 186 -45 275t-130 89q-81 0 -124 -78.5t-43 -273.5zM708 1073q0 -213 -93.5 -326.5t-238.5 -113.5q-142 0 -229 106t-87 306q0 207 91 319t241 112q143 0 229.5 -101.5t86.5 -301.5zM343 0l946 1477l75 -47 l-947 -1477zM1142 408q0 -182 44 -278.5t131 -96.5q81 0 124 83t43 280q0 186 -45 275t-130 89q-81 0 -124 -78.5t-43 -273.5zM1637 415q0 -213 -93.5 -326.5t-238.5 -113.5q-142 0 -229 106t-87 306q0 207 91 319t241 112q143 0 229.5 -101.5t86.5 -301.5z" />
<glyph unicode="&#x26;" horiz-adv-x="1386" d="M877 779q57 -2 113.5 -3t115.5 -1q51 0 95.5 1t84.5 3l3 -44l-125 -31q-20 -5 -17 -23q6 -51 6 -94q0 -208 -102 -358q66 -92 120 -135t126 -43q28 0 61 6l8 -44q-88 -45 -183 -45q-158 0 -269 134q-171 -130 -377 -130q-193 0 -325 100t-132 271q0 232 290 384 q-109 128 -139.5 202t-30.5 152q0 143 101 229t251 86q132 0 222 -73t90 -201q0 -207 -287 -350l407 -467q66 117 66 266q0 61 -6 99q-3 19 -12.5 27t-28.5 12l-124 25zM418 670q-142 -117 -142 -293q0 -138 83.5 -219t232.5 -81q143 0 262 94zM532 824q166 126 166 292 q0 90 -46.5 144.5t-117.5 54.5q-74 0 -119.5 -47.5t-45.5 -126.5q0 -131 116 -263z" />
<glyph unicode="'" horiz-adv-x="406" d="M100 1487h196l-90 -485h-65z" />
<glyph unicode="(" horiz-adv-x="755" d="M612 -377q-452 383 -452 972q0 593 452 976l43 -38q-319 -355 -319 -934q0 -583 319 -938z" />
<glyph unicode=")" horiz-adv-x="755" d="M143 1571q452 -383 452 -972q0 -593 -452 -976l-43 38q319 355 319 934q0 583 -319 938z" />
<glyph unicode="*" horiz-adv-x="887" d="M541 1433l-67 -314l287 124l46 -140l-319 -34l205 -232l-119 -87l-130 290l-158 -268l-119 86l236 215l-303 68l45 141l278 -160l-30 311h148z" />
<glyph unicode="+" horiz-adv-x="1130" d="M93 522h412v412h121v-412h411v-121h-411v-411h-121v411h-412v121z" />
<glyph unicode="," horiz-adv-x="524" d="M91 -279q142 116 142 227q0 97 -102 156q0 57 33.5 90.5t87.5 33.5q59 0 95.5 -45.5t36.5 -115.5q0 -108 -63.5 -204t-191.5 -186z" />
<glyph unicode="." horiz-adv-x="524" d="M268 210q52 0 85.5 -32.5t33.5 -85.5t-33.5 -86.5t-85.5 -33.5q-55 0 -88 33.5t-33 86.5t33 85.5t88 32.5z" />
<glyph unicode="/" horiz-adv-x="825" d="M110 -226l505 1652h120l-505 -1652h-120z" />
<glyph unicode="0" horiz-adv-x="1103" d="M280 477q0 -198 71.5 -311t205.5 -113q136 0 201 101t65 309q0 204 -71 307.5t-206 103.5q-138 0 -202 -99t-64 -298zM1023 485q0 -234 -133.5 -372.5t-348.5 -138.5q-207 0 -334 127t-127 350q0 229 133 364t350 135q211 0 335.5 -123t124.5 -342z" />
<glyph unicode="1" horiz-adv-x="641" d="M35 832l-5 42q201 30 402 66l9 -8q-12 -175 -12 -361v-244q0 -132 2 -213q1 -29 28 -36l159 -41l3 -40q-185 3 -283 3t-282 -3l-4 40l163 41q26 7 27 32q2 81 2 180v166q0 201 -4 356z" />
<glyph unicode="2" horiz-adv-x="992" d="M868 317l44 8l-20 -321l-7 -7q-204 3 -427 3q-207 0 -381 -3l-7 82q94 61 169 113t130 97q55 44 97 84t70.5 79.5t43.5 80.5t15 86q0 92 -67 146t-164 54q-114 0 -230 -62l-38 66q187 127 375 127q141 0 234.5 -68.5t93.5 -190.5q0 -76 -34 -141.5t-99 -128.5 t-159 -127.5t-215 -136.5l1 -5h497z" />
<glyph unicode="3" horiz-adv-x="935" d="M210 332q179 19 287 93t108 192q0 94 -70.5 153t-178.5 59q-141 0 -285 -75l-41 66q198 130 407 130q155 0 261 -74.5t106 -195.5q0 -222 -328 -332v-4q188 -7 293.5 -95t105.5 -216q0 -207 -220 -343t-634 -150l-11 74q329 22 492.5 127.5t163.5 263.5q0 124 -85 195 t-236 71q-59 0 -128 -12z" />
<glyph unicode="4" horiz-adv-x="1087" d="M634 717q-113 -127 -226.5 -271t-223.5 -297h450v568zM819 -117q0 -140 5 -283q-96 -10 -182 -26l-10 8q2 140 2 285v183h-249q-137 0 -333 -3l-7 73q158 209 325.5 417.5t337.5 405.5l117 7q-6 -224 -6 -418v-383h229l4 -102q-110 3 -233 3v-167z" />
<glyph unicode="5" horiz-adv-x="974" d="M132 344l58 584q125 -4 299 -4q201 0 377 4l6 -8l-25 -165l-577 14l-28 -282q85 14 160 14q229 0 365.5 -111t136.5 -305q0 -248 -228.5 -395.5t-575.5 -149.5l-10 74q273 10 444.5 124t171.5 307q0 149 -100.5 231t-282.5 82q-91 0 -185 -21z" />
<glyph unicode="6" horiz-adv-x="1108" d="M965 1322q-309 -62 -463 -217.5t-199 -382.5l2 -1q121 132 314 132q179 0 301.5 -120t122.5 -305q0 -196 -134 -325t-333 -129q-220 0 -356 159t-136 410q0 308 212 545t655 305zM842 370q0 175 -81 284.5t-207 109.5q-115 0 -187 -81.5t-72 -221.5q0 -171 84 -293 t214 -122q113 0 181 93.5t68 230.5z" />
<glyph unicode="7" horiz-adv-x="990" d="M224 -403l585 1172h-639l-58 -198l-40 -7l-17 356l7 8q118 -2 230 -3t220 -1h56q108 0 207 1t191 3l4 -43q-52 -107 -104.5 -220t-103 -228.5t-98.5 -229t-90 -221t-77.5 -205.5t-61.5 -181l-206 -10z" />
<glyph unicode="8" horiz-adv-x="1099" d="M391 701q-144 75 -196.5 150t-52.5 175q0 150 123.5 247.5t307.5 97.5q166 0 274.5 -78t108.5 -202q0 -185 -263 -338q200 -97 271.5 -184.5t71.5 -208.5q0 -167 -147 -276.5t-351 -109.5q-205 0 -335 93.5t-130 248.5q0 233 318 385zM462 664q-205 -117 -205 -324 q0 -131 78.5 -208.5t215.5 -77.5q125 0 209.5 69.5t84.5 180.5q0 106 -77 182.5t-306 177.5zM619 791q159 115 159 270q0 111 -64 171.5t-169 60.5q-106 0 -173.5 -55t-67.5 -150t73 -158t242 -139z" />
<glyph unicode="9" horiz-adv-x="1119" d="M177 -389q251 45 416.5 191t233.5 405l-2 1q-117 -133 -304 -133t-311.5 119.5t-124.5 303.5q0 192 136 322t333 130q215 0 352.5 -156.5t137.5 -400.5q0 -335 -233.5 -569t-619.5 -284zM288 558q0 -178 81 -286t207 -108q125 0 191 80.5t66 224.5q0 175 -87 292 t-209 117q-108 0 -178.5 -86.5t-70.5 -233.5z" />
<glyph unicode=":" horiz-adv-x="524" d="M310 210q52 0 85.5 -32.5t33.5 -85.5t-33.5 -86.5t-85.5 -33.5q-55 0 -88 33.5t-33 86.5t33 85.5t88 32.5zM310 921q52 0 85.5 -32.5t33.5 -85.5t-33.5 -86.5t-85.5 -33.5q-55 0 -88 33.5t-33 86.5t33 85.5t88 32.5z" />
<glyph unicode=";" horiz-adv-x="524" d="M141 -279q142 116 142 227q0 97 -102 156q0 57 33.5 90.5t87.5 33.5q59 0 95.5 -45.5t36.5 -115.5q0 -108 -63.5 -204t-191.5 -186zM310 921q52 0 85.5 -32.5t33.5 -85.5t-33.5 -86.5t-85.5 -33.5q-55 0 -88 33.5t-33 86.5t33 85.5t88 32.5z" />
<glyph unicode="&#x3c;" horiz-adv-x="1130" d="M93 522l944 400v-127l-799 -334l799 -333v-127l-944 400v121z" />
<glyph unicode="=" horiz-adv-x="1130" d="M93 692h944v-121h-944v121zM93 352h944v-121h-944v121z" />
<glyph unicode="&#x3e;" horiz-adv-x="1130" d="M1037 401l-944 -400v127l799 333l-799 334v127l944 -400v-121z" />
<glyph unicode="?" horiz-adv-x="890" d="M452 210q52 0 85.5 -32t33.5 -86t-33.5 -87t-85.5 -33q-55 0 -88 33t-33 87t33 86t88 32zM456 388q-59 53 -110 121.5t-51 99.5q0 28 14.5 57t38 59t53.5 60.5t62 62.5q34 33 66.5 67t58 68.5t41 68.5t15.5 69q0 85 -56.5 135t-151.5 50q-66 0 -132 -28l-66 -229l-39 -6 l-59 280q168 65 320 65q166 0 263 -74t97 -213q0 -54 -17.5 -100.5t-46 -87.5t-63.5 -77.5t-71 -70.5q-31 -29 -59.5 -57t-51 -55.5t-35.5 -57t-13 -59.5q0 -55 37 -120z" />
<glyph unicode="@" horiz-adv-x="1727" d="M1263 859q-30 -100 -70 -297l-63 -309q-6 -29 -6 -48q0 -36 17 -51.5t50 -15.5q120 0 218 139.5t98 312.5q0 247 -159.5 398t-398.5 151q-309 0 -499.5 -205t-190.5 -528q0 -296 181.5 -480.5t478.5 -184.5q346 0 611 249l43 -48q-302 -303 -705 -303q-340 0 -549 206 t-209 533q0 361 236.5 597.5t605.5 236.5q280 0 470 -171t190 -441q0 -215 -149 -387t-335 -172q-74 0 -117 37t-46 108q-92 -74 -149.5 -108.5t-92.5 -34.5q-111 0 -176.5 82.5t-65.5 209.5q0 225 138 380t348 155q79 0 184 -32q47 9 100 28zM1077 766q-63 33 -124 33 q-127 0 -215 -131.5t-88 -291.5q0 -92 33.5 -153t96.5 -61q56 0 192 95z" />
<glyph unicode="A" horiz-adv-x="1381" d="M754 1421l444 -1223q25 -69 45.5 -93.5t58.5 -36.5l94 -28l2 -43q-131 3 -243 3q-114 0 -269 -3l-4 43l95 28q20 7 28.5 15.5t8.5 26.5q0 20 -10.5 52.5t-29.5 86.5l-94 268h-482l-105 -267q-21 -56 -33 -89t-12 -52q0 -17 9.5 -25.5t28.5 -14.5l93 -27l2 -45 q-142 3 -232 3t-201 -3l-5 43l101 31q38 12 56 37t40 78l511 1220zM435 608h412l-195 551z" />
<glyph unicode="B" horiz-adv-x="1223" d="M98 1400q129 -4 251 -4q46 2 149 6t139 4q216 0 326.5 -81.5t110.5 -234.5q0 -246 -265 -335q155 -26 243.5 -115t88.5 -227q0 -200 -145 -309.5t-402 -109.5q-51 0 -110.5 3t-133.5 3q-121 0 -248 -3l-4 43l123 37q25 7 27 31q1 40 1.5 89.5t0.5 109.5v811q0 51 -0.5 92 t-1.5 74q-1 26 -24 34l-124 39zM444 696v-607q30 -11 69.5 -14t72.5 -3q166 0 252.5 82t86.5 238t-87.5 231.5t-282.5 75.5q-57 0 -111 -3zM444 776q62 -1 126 -1q148 0 223.5 71.5t75.5 207.5q0 143 -77.5 205.5t-223.5 62.5q-26 0 -57 -1.5t-67 -5.5v-539z" />
<glyph unicode="C" horiz-adv-x="1334" d="M1178 1051l-40 -6l-73 263q-124 31 -225 31q-245 0 -385 -171t-140 -444q0 -292 160 -466t443 -174q159 0 335 61l11 -45q-197 -136 -446 -136q-323 0 -521 197t-198 519q0 343 218 543t570 200q169 0 346 -41l7 -8z" />
<glyph unicode="D" horiz-adv-x="1538" d="M350 0q-121 0 -248 -3l-4 43l123 37q26 8 27 31q1 40 1.5 89.5t0.5 109.5v811q0 51 -0.5 92t-1.5 74q-1 26 -24 34l-124 39l-2 43q129 -4 251 -4q100 0 193 5t191 5q350 0 526 -159.5t176 -473.5q0 -370 -195.5 -574.5t-548.5 -204.5q-97 0 -173 3t-168 3zM446 89 q59 -8 115.5 -10.5t113.5 -2.5q264 0 402 155.5t138 476.5q0 312 -131 462.5t-415 150.5q-45 0 -99.5 -2t-123.5 -7v-1223z" />
<glyph unicode="E" horiz-adv-x="1189" d="M346 1396h243q224 0 473 4l6 -8l-58 -309l-40 -7l-62 231h-462v-550h91q104 0 232 2q26 1 34 26l35 135l54 2q-3 -140 -3 -207q0 -65 3 -204l-54 -4l-36 137q-8 26 -31 27q-130 2 -235 2h-90v-364q0 -111 2 -219h480l122 254l45 8l-22 -348l-7 -7q-259 3 -478 3h-238 q-121 0 -248 -3l-4 43l123 37q25 7 27 31q1 40 1.5 89.5t0.5 109.5v811q0 51 -0.5 92t-1.5 74q-1 26 -24 34l-124 39l-2 43q129 -4 248 -4z" />
<glyph unicode="F" horiz-adv-x="1104" d="M446 307q0 -118 2 -194q1 -24 26 -31l138 -42l2 -43q-145 3 -264 3t-248 -3l-4 43l123 37q26 8 27 31q2 81 2 199v811q0 51 -0.5 92t-1.5 74q-1 26 -24 34l-124 39l-2 43q129 -4 248 -4h243q224 0 473 4l6 -8l-58 -309l-40 -7l-62 231h-462v-571h96q104 0 232 2 q27 1 34 26l41 135l48 2q-3 -140 -3 -207q0 -65 3 -204l-48 -4l-42 137q-8 26 -30 27q-131 2 -236 2h-95v-345z" />
<glyph unicode="G" horiz-adv-x="1435" d="M1183 1051l-40 -6l-69 262q-122 32 -229 32q-250 0 -390 -169.5t-140 -467.5q0 -301 153 -478.5t412 -177.5q87 0 171 22v267q0 50 -0.5 91t-1.5 75q-1 26 -24 33l-124 39l-2 43q129 -3 247 -3q120 0 232 3l5 -43l-109 -32q-24 -8 -26 -31q-1 -40 -1.5 -81.5t-0.5 -89.5 v-320l-6 -7q-204 -49 -375 -49q-351 0 -558.5 186t-207.5 519q0 354 214.5 554.5t587.5 200.5q161 0 338 -41l6 -8z" />
<glyph unicode="H" horiz-adv-x="1620" d="M446 692v-385q0 -118 2 -198q1 -27 26 -34l111 -35l3 -43q-119 3 -238 3t-248 -3l-4 43l123 37q26 8 27 31q2 81 2 199v811q0 100 -2 166q-1 26 -24 34l-124 39l-2 43q129 -4 248 -4q120 0 237 4l5 -43l-114 -35q-25 -6 -26 -31q-2 -72 -2 -169v-339h728v339q0 97 -2 169 q-1 25 -26 31l-111 35l-2 43q122 -4 241 -4t244 4l4 -43l-126 -39q-23 -8 -24 -34q-2 -66 -2 -166v-811q0 -118 2 -199q1 -23 27 -31l121 -37l2 -43q-132 3 -252 3q-119 0 -233 -3l-4 43l113 35q25 7 26 34q2 80 2 198v385h-728z" />
<glyph unicode="I" horiz-adv-x="696" d="M446 307q0 -60 0.5 -109t1.5 -89q1 -25 35 -34l113 -35l2 -43q-129 3 -248 3q-121 0 -248 -3l-4 43l123 37q25 7 27 31q1 40 1.5 89.5t0.5 109.5v811q0 51 -0.5 92t-1.5 74q-1 26 -24 34l-124 39l-2 43q129 -4 248 -4q120 0 248 4l4 -43l-124 -37q-24 -6 -26 -31 q-1 -35 -1.5 -76.5t-0.5 -90.5v-815z" />
<glyph unicode="J" horiz-adv-x="640" d="M83 1400q129 -4 248 -4t247 4l5 -43l-124 -37q-25 -6 -27 -31q-1 -35 -1.5 -76.5t-0.5 -90.5v-906q0 -98 -7.5 -178.5t-26.5 -143.5t-53.5 -112.5t-87.5 -88t-128 -67.5t-178 -53l-15 50q104 44 163.5 97t90 121t39 153t8.5 192v932q0 51 -0.5 92t-1.5 74q-1 26 -24 34 l-124 39z" />
<glyph unicode="K" horiz-adv-x="1350" d="M446 1122v-815q0 -60 0.5 -109t1.5 -89q1 -26 26 -34l111 -35l3 -43q-119 3 -238 3q-121 0 -248 -3l-4 43l123 37q26 8 27 31q1 40 1.5 89.5t0.5 109.5v811q0 51 -0.5 92t-1.5 74q-1 26 -24 34l-124 39l-2 43q129 -4 248 -4t237 4l5 -43l-114 -35q-24 -6 -26 -31 q-1 -36 -1.5 -78t-0.5 -91zM472 708l403 449q47 53 76 89.5t29 58.5q0 20 -27 27l-82 22l-2 46q99 -4 221 -4q117 0 220 4l4 -43l-101 -32q-46 -15 -79.5 -46t-71.5 -73l-400 -440l455 -600q29 -38 57 -61.5t73 -36.5l91 -28l2 -43q-84 3 -213 3q-34 0 -69 -0.5t-70 -1.5 q-35 72 -185 271z" />
<glyph unicode="L" horiz-adv-x="1138" d="M446 1122v-813q0 -111 2 -219h487l128 265l45 7l-22 -358l-6 -7q-259 3 -479 3h-251q-121 0 -248 -3l-4 43l123 37q25 7 27 31q1 40 1.5 89.5t0.5 109.5v811q0 51 -0.5 92t-1.5 74q-1 26 -24 34l-124 39l-2 43q129 -4 248 -4q120 0 248 4l4 -43l-124 -37q-24 -6 -26 -31 q-1 -35 -1.5 -102t-0.5 -65z" />
<glyph unicode="M" horiz-adv-x="1854" d="M1383 1400q94 -4 170 -4q74 0 199 4l4 -43l-126 -39q-23 -8 -24 -34q-2 -66 -2 -166v-811q0 -118 2 -199q1 -23 28 -31l120 -37l2 -43q-132 3 -252 3q-118 0 -233 -3l-4 43l115 35q24 7 25 35q2 79 2 197v866l-496 -1173l-73 -8l-499 1181v-866q0 -118 2 -197 q1 -28 26 -35l112 -35l2 -43q-119 3 -199 3q-78 0 -207 -3l-4 43l123 37q26 8 27 31q2 81 2 199v811q0 100 -2 166q-1 26 -24 34l-124 39l-2 43q129 -4 204 -4q86 0 179 4l464 -1097z" />
<glyph unicode="N" horiz-adv-x="1534" d="M341 1115v-808q0 -118 2 -196q1 -28 25 -34l119 -35l2 -45q-125 3 -205 3q-78 0 -207 -3l-4 43l123 37q26 8 27 31q2 81 2 199v811q0 100 -2 166q-1 26 -24 34l-124 39l-2 43q129 -4 204 -4q45 0 91 4l840 -1049v771q0 97 -2 167q-1 23 -26 31l-118 34l-2 46 q128 -4 207 -4q80 0 205 4l4 -43l-126 -39q-23 -8 -24 -34q-2 -66 -2 -166v-1118l-84 -8z" />
<glyph unicode="O" horiz-adv-x="1647" d="M319 717q0 -326 132 -499.5t387 -173.5q251 0 370.5 157.5t119.5 494.5q0 316 -127 486t-392 170q-257 0 -373.5 -157.5t-116.5 -477.5zM1548 730q0 -346 -196.5 -556.5t-549.5 -210.5q-335 0 -518.5 194.5t-183.5 526.5q0 346 197.5 547.5t547.5 201.5 q336 0 519.5 -188.5t183.5 -514.5z" />
<glyph unicode="P" horiz-adv-x="1191" d="M446 676q70 -12 138 -12q160 0 243.5 82.5t83.5 252.5q0 163 -79.5 243t-250.5 80q-67 0 -135 -8v-638zM446 307q0 -60 0.5 -108t1.5 -86q1 -23 26 -31l138 -42l2 -43q-145 3 -264 3q-121 0 -248 -3l-4 43l123 37q26 8 27 31q1 40 1.5 89.5t0.5 109.5v811q0 51 -0.5 92 t-1.5 74q-1 26 -24 34l-124 39l-2 43q129 -4 251 -4q82 0 158.5 4t139.5 4q235 0 355.5 -92.5t120.5 -275.5q0 -215 -139 -334t-390 -119q-69 0 -148 9v-285z" />
<glyph unicode="Q" horiz-adv-x="1647" d="M1548 730q0 -326 -170 -526.5t-446 -231.5q82 -232 418 -232q137 0 244 42l11 -45q-207 -165 -326 -165q-378 0 -483 391q-330 1 -513 194.5t-183 526.5q0 345 197.5 547t547.5 202q336 0 519.5 -188t183.5 -515zM319 717q0 -326 132 -499.5t387 -173.5 q251 0 370.5 157.5t119.5 494.5q0 316 -127 486t-392 170q-257 0 -373.5 -157.5t-116.5 -477.5z" />
<glyph unicode="R" horiz-adv-x="1293" d="M446 307q0 -60 0.5 -108t1.5 -87q1 -31 26 -39l111 -33l3 -43q-119 3 -238 3q-121 0 -248 -3l-4 43l123 37q25 7 27 31q1 40 1.5 89.5t0.5 109.5v811q0 51 -0.5 92t-1.5 74q-1 26 -24 34l-124 39l-2 43q129 -4 251 -4q24 0 61 1.5t90 3.5q54 2 90 3t57 1q228 0 342 -86 t114 -251q0 -149 -78 -241.5t-238 -142.5q63 -96 116 -185.5t98.5 -164t83.5 -131.5t71 -90q17 -17 34 -29.5t35.5 -20.5t39 -14t45.5 -12l3 -44q-72 -9 -121 -9q-41 0 -72 2t-55 8t-43.5 15.5t-38.5 24.5q-41 31 -80.5 89.5t-82 132.5t-88.5 157.5t-97 163.5 q-15 24 -25.5 38t-23 22t-29 11t-42.5 4l-69 2v-347zM446 729q61 -3 113 -3q173 0 253.5 73.5t80.5 230.5q0 152 -77 222t-241 70q-28 0 -60 -2t-69 -6v-585z" />
<glyph unicode="S" horiz-adv-x="1044" d="M760 1309q-105 35 -193 35q-132 0 -210.5 -64t-78.5 -178q0 -65 27.5 -114t74 -86t105.5 -66t122 -57q69 -30 134 -63.5t117.5 -78.5t84 -108t31.5 -147q0 -199 -139.5 -304t-386.5 -105q-159 0 -352 54l-6 8l49 340l45 7l70 -284q106 -42 217 -42q149 0 232.5 66 t83.5 188q0 64 -27 112.5t-72.5 83.5t-103.5 63.5t-120 56.5q-70 30 -136 65t-119.5 81.5t-85.5 114t-32 157.5q0 181 135.5 280t359.5 99q158 0 331 -37l7 -7l-59 -312l-40 -7z" />
<glyph unicode="T" horiz-adv-x="1256" d="M630 0q-123 0 -272 -3l-4 43l148 44q25 7 26 31q2 76 2 194v998h-353l-89 -266l-40 -7l-26 358l7 8q246 -4 471 -4h267q224 0 473 4l6 -8l-63 -351l-40 -7l-64 273h-353v-998q0 -118 2 -194q1 -24 26 -31l148 -44l2 -43q-155 3 -274 3z" />
<glyph unicode="U" horiz-adv-x="1523" d="M63 1400q129 -4 248 -4q120 0 248 4l4 -43l-124 -37q-24 -6 -26 -31q-1 -35 -1.5 -76.5t-0.5 -90.5v-547q0 -286 91 -396.5t293 -110.5q205 0 297 114t92 381v559q0 49 -0.5 90.5t-2.5 76.5q-1 23 -26 31l-117 34l-2 46q127 -4 218 -4q87 0 212 4l4 -43l-126 -39 q-23 -8 -24 -34q-1 -33 -1.5 -74t-0.5 -92v-513q0 -328 -133.5 -485t-420.5 -157q-281 0 -415 141.5t-134 439.5v574q0 51 -0.5 92t-1.5 74q-1 26 -24 34l-124 39z" />
<glyph unicode="V" horiz-adv-x="1374" d="M627 -8l-446 1206q-24 66 -44.5 92.5t-61.5 38.5l-91 28l-2 43q99 -4 232 -4q135 0 279 4l4 -43l-94 -27q-20 -5 -29 -14.5t-9 -27.5q0 -20 10.5 -53.5t29.5 -86.5l323 -900l351 899q21 55 33 88.5t12 53.5q0 18 -9.5 26.5t-28.5 13.5l-93 25l-2 46q109 -4 220 -4t213 4 l4 -43l-101 -32q-35 -10 -53 -33.5t-48 -93.5l-499 -1198z" />
<glyph unicode="W" horiz-adv-x="2088" d="M1400 -8l-351 1065l-367 -1057l-101 -8l-400 1228q-16 47 -36.5 72.5t-57.5 36.5l-91 28l-2 43q98 -4 232 -4q121 0 274 4l4 -43l-94 -27q-21 -5 -30 -15t-9 -29q0 -20 9.5 -52.5t25.5 -85.5l271 -859l371 1109l90 7l361 -1126l282 868q18 57 28 91t10 52t-9 26t-29 13 l-94 25l-2 46q108 -4 219 -4q108 0 210 4l4 -43l-101 -32q-30 -9 -47.5 -28t-34.5 -66l-434 -1231z" />
<glyph unicode="X" horiz-adv-x="1346" d="M19 1400q110 -4 261 -4q131 0 274 4l4 -43l-90 -25q-21 -5 -30 -15t-9 -24q0 -25 19 -57t42 -65l217 -325l182 289q15 23 48 75.5t33 79.5q0 30 -40 40l-89 24l-2 46q109 -4 228 -4q118 0 220 4l4 -43l-101 -32q-36 -11 -61.5 -36t-63.5 -83l-299 -447l389 -578 q45 -68 66.5 -86t53.5 -28l92 -27l2 -43q-108 3 -249 3q-131 0 -287 -3l-4 43l90 24q21 5 30 15t9 25q0 24 -19 56t-42 66l-271 403l-231 -368q-29 -46 -53.5 -87t-24.5 -68q0 -15 8.5 -25t29.5 -15l89 -24l2 -45q-109 3 -229 3q-107 0 -219 -3l-5 43l101 31q38 12 61.5 36 t56.5 71l357 536l-345 514q-32 49 -52.5 69.5t-59.5 31.5l-91 28z" />
<glyph unicode="Y" horiz-adv-x="1215" d="M668 712l231 437q25 48 42 82t17 56q0 31 -44 43l-90 24l-2 46q108 -4 221 -4q109 0 212 4l4 -43l-101 -32q-36 -11 -55.5 -35t-39.5 -59l-346 -617v-304q0 -60 0.5 -109t1.5 -89q1 -25 35 -34l124 -38l2 -43q-140 3 -258 3q-121 0 -259 -3l-4 43l134 40q25 7 27 31 q1 40 1.5 89.5t0.5 109.5v283l-352 610q-37 61 -60.5 88t-62.5 38l-91 28l-2 43q91 -4 246 -4q135 0 279 4l4 -43l-94 -26q-21 -5 -30 -14.5t-9 -23.5q0 -21 15.5 -51.5t38.5 -70.5z" />
<glyph unicode="Z" horiz-adv-x="1182" d="M72 -3l-4 43l771 1267h-590l-74 -240l-40 -7l-52 332l7 8q249 -4 473 -4h236q142 0 286 4l4 -43l-769 -1267h609l134 270l45 7l-27 -363l-6 -7q-281 3 -500 3h-241q-140 0 -262 -3z" />
<glyph unicode="[" horiz-adv-x="707" d="M368 -256l247 -57l2 -43h-397v1905h395l2 -43l-249 -57v-1705z" />
<glyph unicode="\" horiz-adv-x="825" d="M595 -226l-505 1652h120l505 -1652h-120z" />
<glyph unicode="]" horiz-adv-x="707" d="M339 1449l-247 57l-2 43h397v-1905h-395l-2 43l249 57v1705z" />
<glyph unicode="^" horiz-adv-x="1130" d="M626 1396l390 -814h-129l-324 679l-323 -679h-125l390 814h121z" />
<glyph unicode="_" horiz-adv-x="1024" d="M1024 -268h-1024v90h1024v-90z" />
<glyph unicode="`" horiz-adv-x="840" d="M478 1044h-69l-237 373h200zM0 927z" />
<glyph unicode="a" horiz-adv-x="983" d="M617 453q-219 0 -299 -43t-80 -145q0 -95 53 -134.5t144 -39.5q103 0 180 35zM132 865q195 85 345 85q153 0 238.5 -80t84.5 -231l-5 -416q-1 -51 2.5 -82t18 -47.5t43.5 -23t78 -7.5l5 -39q-43 -17 -105 -34t-84 -17q-97 0 -133 100q-140 -101 -264 -101 q-139 0 -223.5 68.5t-84.5 193.5q0 154 137.5 227t431.5 73l1 78q1 112 -57 166t-178 54q-91 0 -228 -34z" />
<glyph unicode="b" horiz-adv-x="1141" d="M360 85q81 -26 164 -26q168 0 252.5 103t84.5 295q0 176 -78 274t-231 98q-98 0 -192 -44v-700zM366 1499q-6 -150 -6 -451v-203q161 105 295 105q188 0 297 -126t109 -329q0 -247 -140.5 -384.5t-389.5 -137.5q-166 0 -358 57q2 127 2 327v593q0 221 -4 413l-135 40 l-5 33q164 31 325 71z" />
<glyph unicode="c" horiz-adv-x="945" d="M880 71q-62 -42 -153.5 -70.5t-181.5 -28.5q-216 0 -342 126.5t-126 337.5q0 229 143 371.5t370 142.5q147 0 285 -60q-33 -134 -59 -274l-39 -6l-81 240q-46 16 -104 16q-149 0 -233 -104t-84 -275q0 -201 95 -297t301 -96q95 0 203 19z" />
<glyph unicode="d" horiz-adv-x="1162" d="M777 840q-67 21 -150 21q-172 0 -262 -97.5t-90 -295.5q0 -171 80 -273.5t226 -102.5q94 0 196 52v696zM633 1436q178 34 326 71l9 -8q-6 -214 -6 -460v-544q0 -138 1 -273q0 -51 3.5 -82t17.5 -47.5t41.5 -22.5t77.5 -7l5 -39q-44 -17 -105.5 -34t-83.5 -17 q-101 0 -136 114q-155 -115 -301 -115q-185 0 -295.5 131.5t-110.5 323.5q0 248 147 384t411 136q64 0 143 -14q0 221 -4 430l-135 40z" />
<glyph unicode="e" horiz-adv-x="981" d="M902 71q-85 -53 -175 -76t-167 -23q-220 0 -351 125.5t-131 348.5q0 222 125.5 363t335.5 141q176 0 274 -105.5t98 -291.5q0 -28 -3 -57h-634q0 -215 101 -307.5t316 -92.5q96 0 205 18zM712 579v30q0 142 -45.5 203t-135.5 61q-119 0 -182 -86t-71 -208h434z" />
<glyph unicode="f" horiz-adv-x="634" d="M385 818v-543q0 -94 2 -165q2 -27 26 -34l127 -38l3 -41q-151 3 -248 3q-99 0 -233 -3l-5 41l112 32q28 9 29 33q2 62 2 131v589l-136 34l-7 42l144 12v4q0 282 122.5 437t328.5 155q101 0 195 -25q-34 -122 -58 -251l-42 -8l-65 200q-23 3 -58 3q-115 0 -177 -103 t-62 -377v-33h249v-95h-249z" />
<glyph unicode="g" horiz-adv-x="1040" d="M287 621q0 -130 52.5 -201t152.5 -71q96 0 144.5 66.5t48.5 194.5q0 123 -51.5 194t-153.5 71q-96 0 -144.5 -65t-48.5 -189zM274 -40q-68 -102 -68 -188q0 -88 71 -137t193 -49q145 0 254 64.5t109 180.5q0 63 -53.5 97.5t-201.5 34.5q-53 0 -115.5 -3t-120.5 -3 q-32 0 -68 3zM796 824q75 -83 75 -198q0 -161 -112 -256.5t-281 -95.5q-96 0 -172 30q-54 -87 -54 -137q0 -27 27.5 -36.5t101.5 -9.5q56 0 131 3t140 3q159 0 251.5 -60.5t92.5 -179.5q0 -180 -169.5 -284t-385.5 -104q-177 0 -282.5 59.5t-105.5 154.5q0 115 163 258 q-103 39 -103 104q0 91 143 254q-156 95 -156 275q0 156 110.5 251t285.5 95q46 0 125 -12q75 -14 117 -14q151 0 278 3l5 -41z" />
<glyph unicode="h" horiz-adv-x="1187" d="M51 1436q163 32 326 71l9 -8q-5 -94 -5.5 -268t-0.5 -393q174 112 324 112q139 0 221 -77.5t82 -227.5v-353q0 -115 2 -185q1 -26 25 -35l112 -34l2 -41q-132 3 -230 3t-218 -3l-4 41l99 29q24 8 26 31q1 14 1 63v436q0 123 -59 176.5t-174 53.5q-99 0 -209 -48v-449 q0 -124 2 -227q1 -28 25 -35l104 -30l2 -41q-126 3 -224 3t-232 -3l-4 41l113 33q26 8 27 32q2 96 2 245v418q0 204 -0.5 361t-3.5 236l-135 40z" />
<glyph unicode="i" horiz-adv-x="580" d="M396 1304q0 -53 -33 -86.5t-85 -33.5q-50 0 -81.5 31t-31.5 82q0 54 33 85.5t87 31.5q49 0 80 -28.5t31 -81.5zM58 880q175 33 324 70l9 -7q-6 -130 -6 -286v-384q0 -120 2 -166q2 -27 25 -35l116 -34l2 -41q-138 3 -236 3t-233 -3l-4 41l116 34q23 8 25 31q2 39 2 131 v334q0 131 -4 242l-133 36z" />
<glyph unicode="j" horiz-adv-x="543" d="M44 880q172 33 321 70l9 -7q-6 -130 -6 -286v-568q0 -197 -75.5 -310.5t-265.5 -281.5l-46 41q148 195 176 288t28 237v505q0 121 -4 242l-132 36zM374 1304q0 -53 -33 -86.5t-85 -33.5q-50 0 -81.5 31t-31.5 82q0 54 33.5 85.5t86.5 31.5q50 0 80.5 -28.5t30.5 -81.5z " />
<glyph unicode="k" horiz-adv-x="1095" d="M1105 -3q-134 3 -199 3q-43 0 -114 -2q-37 61 -88 131q-138 193 -297 377l361 350l-111 31l-4 40q129 -3 190 -3q55 0 209 3l4 -41q-101 -26 -145 -45.5t-103 -74.5l-214 -198l322 -402q54 -67 84.5 -89t102.5 -39zM56 1403l-5 33q177 34 326 71l9 -8q-6 -146 -6 -453 v-654q0 -148 2 -290q2 -29 26 -35l97 -29l2 -41q-120 3 -218 3t-232 -3l-4 41l118 35q20 7 22 30q2 113 2 252v411q0 519 -4 597z" />
<glyph unicode="l" horiz-adv-x="575" d="M56 1403l-5 33q177 34 326 71l9 -8q-6 -163 -6 -453v-651q0 -179 2 -288q3 -29 28 -36l109 -33l3 -41q-135 3 -233 3t-232 -3l-4 41l113 33q25 8 27 32q2 113 2 252v411q0 372 -4 597z" />
<glyph unicode="m" horiz-adv-x="1774" d="M976 755q14 -48 14 -108v-357q0 -117 2 -188q2 -27 26 -35l101 -29l2 -41q-122 3 -220 3t-218 -3l-4 41l95 28q29 10 30 32q1 14 1 63v436q0 123 -56 176.5t-166 53.5q-97 0 -198 -58v-437q0 -125 2 -229q1 -30 21 -34l106 -31l2 -41q-124 3 -222 3t-232 -3l-4 41l115 34 q25 7 26 31q1 53 1 123v341q0 131 -4 243l-133 36l-5 34q165 32 316 70l10 -7v-116q164 123 311 123q180 0 260 -139q158 139 343 139q139 0 217.5 -78.5t78.5 -224.5v-354q0 -126 2 -186q2 -27 27 -35l111 -34l2 -41q-132 3 -230 3q-99 0 -218 -3l-4 41l99 29q23 8 26 31 q1 14 1 63v436q0 123 -57 176.5t-168 53.5q-112 0 -209 -72z" />
<glyph unicode="n" horiz-adv-x="1192" d="M58 880q168 32 317 70l10 -7v-116q174 123 324 123q142 0 222.5 -79.5t80.5 -225.5v-353q0 -125 2 -185q1 -27 26 -35l111 -34l2 -41q-132 3 -230 3t-218 -3l-4 41l100 29q23 8 25 31q1 14 1 63v436q0 123 -59 176.5t-174 53.5q-101 0 -209 -58v-437q0 -125 2 -229 q1 -27 23 -34l104 -31l2 -41q-124 3 -222 3t-232 -3l-4 41l118 34q22 9 23 31q1 64 1 123v341q0 131 -4 243l-133 36z" />
<glyph unicode="o" horiz-adv-x="1107" d="M281 472q0 -187 70 -304.5t208 -117.5q129 0 196.5 103.5t67.5 306.5q0 191 -71 301t-206 110q-128 0 -196.5 -99t-68.5 -300zM1027 481q0 -228 -137.5 -368.5t-349.5 -140.5q-207 0 -334.5 132.5t-127.5 346.5q0 220 133.5 359.5t353.5 139.5q208 0 335 -128.5 t127 -340.5z" />
<glyph unicode="p" horiz-adv-x="1146" d="M43 846l-5 34q168 32 317 70l10 -7v-98q153 105 296 105q186 0 295.5 -124.5t109.5 -323.5q0 -245 -141 -387.5t-400 -142.5q-77 0 -160 15v-219q0 -100 2 -140q2 -30 27 -36l131 -37l3 -41q-156 3 -254 3t-232 -3l-4 41l115 34q24 7 25 31q2 73 2 221v407q0 443 -4 560z M365 77q87 -19 168 -19q166 0 250 104t84 298q0 183 -80 276t-230 93q-108 0 -192 -44v-708z" />
<glyph unicode="q" horiz-adv-x="1133" d="M778 844q-80 20 -155 20q-176 0 -262 -104.5t-86 -292.5q0 -173 78.5 -274t228.5 -101q104 0 196 35v717zM969 943q-6 -191 -6 -456v-658q0 -165 1 -205q1 -27 23 -34l115 -35l2 -41q-135 3 -232 3q-99 0 -232 -3l-5 41l115 34q25 8 26 31q2 121 2 303v143 q-152 -94 -296 -94q-184 0 -295 129.5t-111 325.5q0 241 142.5 382t395.5 141q104 0 245 -24q48 11 101 24z" />
<glyph unicode="r" horiz-adv-x="785" d="M58 880q167 32 317 70l10 -7v-117q185 124 363 124l5 -6q-29 -149 -57 -309l-40 -7q-28 85 -54 136.5t-82 51.5q-54 0 -135 -50v-433q0 -156 2 -223q1 -27 25 -34l133 -38l3 -41q-156 3 -254 3t-232 -3l-4 41l116 34q24 8 25 31q1 43 1 123v341q0 163 -4 243l-133 36z " />
<glyph unicode="s" horiz-adv-x="829" d="M571 849q-58 16 -126 16q-94 0 -151.5 -36.5t-57.5 -99.5q0 -61 37.5 -96t139.5 -69l82 -28q138 -47 202.5 -107.5t64.5 -158.5q0 -139 -108 -218.5t-273 -79.5q-152 0 -311 62q34 130 55 254l39 6l72 -215q57 -22 145 -22q93 0 148.5 38t55.5 107q0 64 -37.5 101 t-119.5 64l-104 35q-135 45 -186.5 108.5t-51.5 157.5q0 131 99.5 206.5t262.5 75.5q152 0 276 -44q-28 -114 -51 -241l-38 -7z" />
<glyph unicode="t" horiz-adv-x="723" d="M358 818q-6 -338 -6 -545q0 -104 31 -143.5t118 -39.5q69 0 180 18l6 -45q-173 -87 -309 -87q-109 0 -162 58.5t-53 176.5q0 194 7 613l-138 34l-6 41l154 13l69 242q56 15 102 29l10 -7q-3 -121 -3 -226v-37h301v-95h-301z" />
<glyph unicode="u" horiz-adv-x="1166" d="M796 88q-156 -116 -312 -116q-157 0 -235.5 80t-78.5 225v212q0 214 -4 321l-133 36l-5 34q175 32 324 70l9 -7q-6 -117 -6 -301v-318q0 -121 57 -175.5t161 -54.5t213 55v426q0 140 -4 235l-132 36l-5 34q174 32 323 70l9 -7q-6 -120 -6 -307q0 -363 2 -443q1 -41 6 -66 t19 -38.5t41.5 -19t73.5 -6.5l5 -39q-46 -18 -106 -34.5t-82 -16.5q-101 0 -134 115z" />
<glyph unicode="v" horiz-adv-x="989" d="M-31 927q126 -3 224 -3q90 0 216 3l4 -41l-116 -32q82 -233 190 -495q28 -69 50 -132q22 63 51 131q91 224 191 496l-114 32l-4 41q81 -3 169 -3q90 0 174 3l4 -41l-100 -29q-23 -8 -39 -39q-79 -183 -183.5 -435.5t-157.5 -389.5l-85 -9q-55 145 -158.5 397t-177.5 432 q-16 35 -44 45l-92 28z" />
<glyph unicode="w" horiz-adv-x="1499" d="M-17 927q143 -3 212 -3q99 0 224 3l4 -41l-118 -32q67 -223 169 -502q22 -59 41 -121q19 61 41 120q80 214 121 334t79 235l73 8q38 -121 78 -242t115 -334q24 -64 40 -121q19 58 43 120q111 281 184 504l-113 32l-4 41q80 -3 170 -3q89 0 162 3l5 -41l-80 -22 q-34 -10 -50 -48q-94 -227 -167 -409.5t-158 -409.5l-90 -9q-61 176 -101.5 286.5t-87.5 240.5q-20 53 -34 102q-16 -48 -36 -99q-51 -133 -94.5 -245t-101.5 -276l-88 -9q-85 236 -155 418t-158 411q-14 37 -51 47l-72 21z" />
<glyph unicode="x" horiz-adv-x="984" d="M27 927q127 -3 227 -3q75 0 189 3l4 -41l-89 -23q64 -109 172 -283q107 158 187 281l-85 25l-5 41q84 -3 149 -3q89 0 165 3l5 -41l-95 -26q-26 -7 -48 -37q-105 -139 -227 -318q131 -211 256 -400q19 -29 52 -40l87 -27l4 -41q-126 3 -226 3q-75 0 -189 -3l-4 41l87 23 q-79 125 -190 304q-110 -161 -201 -302l85 -25l4 -41q-82 3 -146 3q-89 0 -178 -3l-4 41l97 26q32 9 59 44q110 147 237 334q-127 206 -234 374q-20 31 -54 43l-87 27z" />
<glyph unicode="y" horiz-adv-x="986" d="M-35 927q126 -3 224 -3q67 0 214 3l4 -41l-117 -32q37 -105 86 -231.5t104 -263.5q23 -57 50 -131q28 75 60 153q47 116 91 228.5t91 244.5l-114 32l-4 41q74 -3 173 -3q89 0 173 3l5 -41l-93 -26q-31 -10 -45 -41q-37 -85 -80 -186q-132 -310 -200 -508 q-46 -134 -83 -274.5t-57 -241.5q-9 -49 -36.5 -74.5t-128.5 -25.5q-103 0 -200 7l-5 39q110 17 163 71q64 69 198 367l8 19l-14 4q-183 456 -331 802q-13 30 -46 41l-88 27z" />
<glyph unicode="z" horiz-adv-x="983" d="M69 9q170 245 283 412t284 425h-391l-65 -201l-40 -7q-23 156 -50 280l3 9q204 -3 394 -3q192 0 400 3l7 -11q-145 -214 -278 -412t-280 -424h398l125 208l41 6q-16 -141 -24 -290l-6 -7q-173 3 -406 3q-212 0 -388 -3z" />
<glyph unicode="{" horiz-adv-x="720" d="M80 614q89 16 131 56.5t42 156.5v446q0 151 74 219t276 67l2 -46q-70 -15 -108 -35.5t-55.5 -50t-20.5 -70.5t-3 -98v-332q0 -151 -40 -223t-144 -104v-6q104 -32 144 -104t40 -223v-332q0 -57 3 -98t20.5 -70.5t55.5 -50t106 -35.5l2 -46q-204 -1 -278 67t-74 219v446 q0 116 -42 156.5t-129 56.5z" />
<glyph unicode="|" horiz-adv-x="712" d="M412 1525v-2033h-112v2033h112z" />
<glyph unicode="}" horiz-adv-x="720" d="M638 580q-87 -16 -129 -56.5t-42 -156.5v-446q0 -151 -74 -219t-276 -67l-2 46q70 15 108 35.5t55.5 50t20.5 70.5t3 98v332q0 151 40 223t144 104v6q-104 32 -144 104t-40 223v332q0 57 -3 98t-20.5 70.5t-55.5 50t-106 35.5l-2 46q204 1 278 -67t74 -219v-446 q0 -116 42 -156.5t131 -56.5z" />
<glyph unicode="~" horiz-adv-x="1130" d="M93 497q135 88 254 88q64 0 124.5 -20t119.5 -44q56 -23 109 -42t110 -19q96 0 227 87v-121q-127 -83 -246 -83q-64 0 -125.5 20t-121.5 44q-56 22 -109 40t-109 18q-98 0 -233 -89v121z" />
<glyph unicode="&#xa1;" horiz-adv-x="524" d="M249 526l78 -967l-224 -10l-9 8l93 966zM218 712q-52 0 -85.5 32.5t-33.5 85.5t33.5 86.5t85.5 33.5q55 0 88 -33.5t33 -86.5t-33 -85.5t-88 -32.5z" />
<glyph unicode="&#xa2;" horiz-adv-x="929" d="M869 67q-143 -83 -310 -92l-3 -136l-78 -8l4 145q-189 14 -295.5 137.5t-106.5 323.5q0 204 114.5 339.5t309.5 159.5l4 138l78 8l-4 -142q146 -2 278 -45q-14 -61 -27 -125.5t-26 -134.5l-37 -6l-60 215q-70 17 -129 17l-19 -772q27 -4 77 -4q105 0 224 22zM502 854 q-113 -20 -179 -117t-66 -251q0 -319 228 -383z" />
<glyph unicode="&#xa3;" horiz-adv-x="991" d="M100 559h152q-2 42 -3 76.5t-1 56.5q0 177 114.5 275t298.5 98q116 0 229 -35l5 -5l-50 -270l-37 -6l-59 224q-54 16 -105 16q-108 0 -163 -73t-55 -214q0 -28 0.5 -65t2.5 -78h276v-81h-277q-6 -222 -128 -340l2 -9h486l87 183l41 8l-20 -316l-7 -7q-215 3 -414 3 q-277 0 -441 -3l-4 40q151 39 188.5 96.5t37.5 214.5q0 91 -1 130h-155v81z" />
<glyph unicode="&#xa4;" horiz-adv-x="1130" d="M148 1190l154 -154q112 82 262 82q155 0 264 -83l155 155l79 -79l-155 -155q84 -115 84 -262q0 -144 -85 -263l156 -155l-79 -79l-156 156q-118 -82 -263 -82q-151 0 -261 81l-155 -155l-79 79l154 154q-85 112 -85 264q0 154 84 263l-153 154zM256 694q0 -141 85 -232 t223 -91t223.5 91.5t85.5 231.5q0 142 -86.5 233t-222.5 91q-134 0 -221 -89t-87 -235z" />
<glyph unicode="&#xa5;" horiz-adv-x="1076" d="M949 277h-300v-79q1 -25 1 -47t1 -42q1 -25 35 -34l124 -38l2 -40q-140 3 -258 3q-111 0 -249 -3l-4 40l134 40q27 8 28 31q1 20 1 42v47v80h-300v81h300v124h-300v81h270l-193 286q-30 45 -57 78.5t-75 47.5l-97 28l-2 40q46 -2 106.5 -3t138.5 -1q61 0 123.5 1t134.5 3 l4 -40l-84 -24q-40 -11 -40 -36q0 -20 20 -50.5t52 -77.5l135 -200l105 178q31 53 52 87.5t21 56.5q0 15 -11 24.5t-37 16.5l-80 22l-2 43q54 -2 101.5 -3t101.5 -1q55 0 107 1t104 3l4 -40l-102 -32q-38 -11 -60 -36t-43 -58l-197 -314h285v-81h-300v-124h300v-81z" />
<glyph unicode="&#xa6;" horiz-adv-x="742" d="M300 854v671h142v-671h-142zM300 -68v671h142v-671h-142z" />
<glyph unicode="&#xa7;" horiz-adv-x="1106" d="M281 -228q107 -35 193 -35q114 0 176.5 56.5t62.5 150.5q0 48 -26.5 85t-70.5 67t-100.5 56t-116.5 53q-64 28 -126.5 58.5t-112 67.5t-80 84t-30.5 109q0 160 249 318q-188 107 -188 260q0 156 118.5 238.5t321.5 82.5q153 0 331 -37l7 -7l-59 -312l-40 -7l-65 249 q-107 35 -193 35q-114 0 -176.5 -55.5t-62.5 -147.5q0 -47 26.5 -82.5t70.5 -65.5t100.5 -55.5t116.5 -51.5q64 -28 126.5 -58t112 -67t80 -84.5t30.5 -109.5q0 -161 -249 -318q188 -107 188 -264q0 -159 -118.5 -243t-321.5 -84q-153 0 -331 37l-7 7l59 312l40 7zM778 502 q0 47 -26.5 83.5t-70 66.5t-99.5 56.5t-116 52.5q-53 23 -106 49q-132 -112 -132 -221q0 -47 26.5 -83.5t70 -66.5t99.5 -56.5t116 -52.5q53 -24 105 -49q133 111 133 221z" />
<glyph unicode="&#xa8;" horiz-adv-x="840" d="M338 1304q0 -51 -31.5 -82.5t-81.5 -31.5q-48 0 -77.5 29t-29.5 78q0 52 31.5 82t82.5 30q47 0 76.5 -27.5t29.5 -77.5zM722 1304q0 -51 -31.5 -82.5t-81.5 -31.5q-47 0 -77 29t-30 78q0 52 31.5 82t82.5 30q48 0 77 -27.5t29 -77.5zM0 928z" />
<glyph unicode="&#xa9;" horiz-adv-x="1631" d="M818 1386q306 0 509 -201t203 -510q0 -296 -203 -494.5t-512 -198.5t-512.5 198.5t-203.5 499.5q0 308 206 507t513 199zM816 1308q-276 0 -447 -176t-171 -448q0 -273 172.5 -448.5t448.5 -175.5q271 0 442 174t171 450t-173.5 450t-442.5 174zM1056 772l-31 -5l-59 218 q-53 20 -112 20q-119 0 -188.5 -80t-69.5 -208q0 -142 90 -229t241 -87q95 0 201 46l8 -37q-129 -105 -295 -105q-181 0 -299 103.5t-118 270.5q0 183 128.5 289t326.5 106q111 0 222 -34l5 -6z" />
<glyph unicode="&#xaa;" horiz-adv-x="611" d="M363 917q-108 0 -148 -23.5t-40 -77.5q0 -51 26.5 -71.5t72.5 -20.5q49 0 88 13zM86 1152q120 55 230 55q87 0 136 -46t48 -133l-3 -235q0 -31 2 -48.5t11 -28t27 -14t49 -4.5l4 -27q-26 -8 -66.5 -17.5t-58.5 -9.5q-80 0 -101 58q-79 -59 -152 -59q-80 0 -128.5 39.5 t-48.5 113.5q0 86 79.5 131t248.5 45v41q1 59 -27 88t-88 29q-71 0 -147 -22zM45 413v75h528v-75h-528z" />
<glyph unicode="&#xab;" horiz-adv-x="1048" d="M460 71q-186 223 -366 375l-4 36q185 152 370 375l48 -25q-90 -180 -215 -363q125 -189 215 -373zM880 71q-186 223 -366 375l-4 36q185 152 370 375l48 -25q-90 -180 -215 -363q125 -189 215 -373z" />
<glyph unicode="&#xac;" horiz-adv-x="1130" d="M93 522h944v-532h-121v411h-823v121z" />
<glyph unicode="&#xad;" horiz-adv-x="736" d="M90 562h556v-130h-556v130z" />
<glyph unicode="&#xae;" horiz-adv-x="844" d="M434 1406q159 0 256 -92t97 -251q0 -162 -98.5 -257.5t-260.5 -95.5q-158 0 -254.5 95.5t-96.5 254.5q0 157 101.5 251.5t255.5 94.5zM429 1357q-125 0 -203.5 -79t-78.5 -217q0 -140 78 -221t206 -81q130 0 207.5 77.5t77.5 224.5q0 136 -79 216t-208 80zM385 1019v-44 t1 -36q1 -15 9 -17l40 -11l1 -17q-25 1 -46.5 1h-44.5h-51t-51 -1l-2 17l49 14q10 4 11 13q1 16 1 37v45v106v39t-1 31q-1 12 -12 15l-47 13l-1 19q26 -1 50.5 -1.5t49.5 -0.5q14 0 45.5 2t52.5 2q142 0 142 -88q0 -61 -79 -91q29 -44 47.5 -76.5t41.5 -55.5 q12 -12 21 -16.5t30 -8.5l2 -16q-26 -6 -54 -6t-44.5 4.5t-31.5 16.5q-13 11 -32 43.5t-37 62.5q-12 22 -19 27t-22 5h-19v-27zM385 1078q10 -1 26 -1q85 0 85 67q0 35 -19 51t-61 16q-12 0 -31 -2v-131z" />
<glyph unicode="&#xaf;" horiz-adv-x="840" d="M149 1190v109h541v-109h-541zM0 928z" />
<glyph unicode="&#xb0;" horiz-adv-x="702" d="M155 1095q0 -95 56.5 -153t149.5 -58q91 0 148.5 57.5t57.5 153.5q0 94 -57.5 153.5t-148.5 59.5q-93 0 -149.5 -59.5t-56.5 -153.5zM60 1094q0 131 86.5 216.5t214.5 85.5t214.5 -85t86.5 -215t-87 -215t-214 -85q-128 0 -214.5 84t-86.5 214z" />
<glyph unicode="&#xb1;" horiz-adv-x="1130" d="M93 683h412v332h121v-332h411v-121h-411v-331h-121v331h-412v121zM93 131h944v-121h-944v121z" />
<glyph unicode="&#xb2;" d="M626 916l34 6l-17 -261l-5 -5q-112 1 -287 2q-160 0 -304 -2l-6 63q272 191 349.5 292t77.5 193q0 76 -53 123.5t-136 47.5q-79 0 -175 -38l-30 51q139 87 274 87q118 0 196.5 -57.5t78.5 -153.5q0 -116 -102 -232t-309 -250l1 -4h347z" />
<glyph unicode="&#xb3;" d="M199 1109q114 10 180.5 51.5t66.5 106.5q0 52 -43 85t-108 33q-87 0 -178 -36l-25 50q133 76 267 76q99 0 167.5 -43.5t68.5 -119.5q0 -124 -187 -187v-2q115 -12 179.5 -63.5t64.5 -129.5q0 -127 -144.5 -209t-416.5 -90l-7 55q207 12 309 73t102 151q0 72 -54.5 112.5 t-153.5 40.5q-38 0 -83 -9z" />
<glyph unicode="&#xb4;" horiz-adv-x="840" d="M468 1417h200l-238 -373h-68zM0 928z" />
<glyph unicode="&#xb5;" horiz-adv-x="1131" d="M162 -494v1136q0 75 -3 140.5t-8 123.5q102 22 189 44l9 -7q-6 -131 -6 -286v-344q0 -107 47.5 -159t152.5 -52q63 0 123 24t102 78v438q0 75 -3 140.5t-8 123.5q102 22 189 44l9 -7q-6 -131 -6 -286v-175q0 -209 3 -305q1 -55 20 -77q19 -20 56 -27.5t102 -8.5l5 -40 q-161 -49 -238 -49q-59 0 -91.5 34.5t-37.5 113.5q-23 -38 -53.5 -66.5t-64 -47t-70 -28t-71.5 -9.5q-106 0 -186 80q14 -327 38 -526q-47 -5 -94.5 -11.5t-94.5 -15.5z" />
<glyph unicode="&#xb6;" horiz-adv-x="1172" d="M888 -308l-178 -10l-9 8l59 1622l-90 3l-29 -752q-42 -4 -76 -4q-258 0 -401.5 116t-143.5 328q0 194 126 297.5t364 103.5q65 0 144 -4t163 -4q122 0 243 4l4 -43l-165 -40q-24 -6 -26 -32q-1 -31 -1 -72.5v-93.5z" />
<glyph unicode="&#xb7;" horiz-adv-x="524" d="M263 625q55 0 90.5 -34.5t35.5 -90.5t-35.5 -91.5t-90.5 -35.5q-58 0 -93 35.5t-35 91.5t35 90.5t93 34.5z" />
<glyph unicode="&#xb8;" horiz-adv-x="840" d="M243 -190l147 190h86l-82 -109q120 -44 120 -126q0 -110 -209 -251l-35 38q98 80 98 147q0 73 -121 104z" />
<glyph unicode="&#xb9;" d="M129 1389l-3 31q173 25 324 52l6 -6q-9 -170 -9 -338v-160q0 -135 2 -216q1 -22 21 -27l149 -39l2 -30q-168 2 -242 2q-73 0 -241 -2l-3 30l152 39q19 5 20 24q2 84 2 189v93q0 183 -3 341z" />
<glyph unicode="&#xba;" horiz-adv-x="678" d="M199 932q0 -105 36.5 -169.5t106.5 -64.5q65 0 100 57.5t35 168.5q0 105 -37 166.5t-106 61.5q-64 0 -99.5 -54.5t-35.5 -165.5zM630 937q0 -132 -84.5 -213t-215.5 -81q-126 0 -204.5 76.5t-78.5 200.5q0 126 82 206.5t217 80.5q127 0 205.5 -74.5t78.5 -195.5zM68 413 v75h541v-75h-541z" />
<glyph unicode="&#xbb;" horiz-adv-x="1048" d="M168 857q186 -223 366 -375l4 -36q-185 -152 -370 -375l-48 25q90 180 215 363q-125 189 -215 373zM588 857q186 -223 366 -375l4 -36q-185 -152 -370 -375l-48 25q90 180 215 363q-125 189 -215 373z" />
<glyph unicode="&#xbc;" horiz-adv-x="1687" d="M129 1389l-3 31q173 25 324 52l6 -6q-9 -170 -9 -338v-160q0 -135 2 -216q1 -22 21 -27l149 -39l2 -30q-168 2 -242 2q-73 0 -241 -2l-3 30l152 39q19 5 20 24q2 84 2 189v93q0 183 -3 341zM398 0l946 1477l75 -47l-947 -1477zM1516 198q0 -59 2 -111q1 -23 21 -27 l119 -32l2 -30q-138 2 -212 2q-73 0 -226 -2l-3 30l137 35q20 5 21 25q1 56 1 110h-165q-95 0 -227 -2l-4 64q221 272 459 547l80 5q-5 -110 -5 -228v-306h157l3 -82q-77 2 -160 2zM1378 636q-155 -176 -299 -358h299v358z" />
<glyph unicode="&#xbd;" horiz-adv-x="1687" d="M129 1389l-3 31q173 25 324 52l6 -6q-9 -170 -9 -338v-160q0 -135 2 -216q1 -22 21 -27l149 -39l2 -30q-168 2 -242 2q-73 0 -241 -2l-3 30l152 39q19 5 20 24q2 84 2 189v93q0 183 -3 341zM348 0l946 1477l75 -47l-947 -1477zM1575 258l34 6l-17 -261l-5 -5 q-112 1 -287 2q-160 0 -304 -2l-6 63q272 191 349.5 292t77.5 193q0 76 -53 123.5t-136 47.5q-79 0 -175 -38l-30 51q139 87 274 87q118 0 196.5 -57.5t78.5 -153.5q0 -116 -102 -232t-309 -250l1 -4h347z" />
<glyph unicode="&#xbe;" horiz-adv-x="1687" d="M199 1109q114 10 180.5 51.5t66.5 106.5q0 52 -43 85t-108 33q-87 0 -178 -36l-25 50q133 76 267 76q99 0 167.5 -43.5t68.5 -119.5q0 -124 -187 -187v-2q115 -12 179.5 -63.5t64.5 -129.5q0 -127 -144.5 -209t-416.5 -90l-7 55q207 12 309 73t102 151q0 72 -54.5 112.5 t-153.5 40.5q-38 0 -83 -9zM378 0l946 1477l75 -47l-947 -1477zM1516 198q0 -59 2 -111q1 -23 21 -27l119 -32l2 -30q-138 2 -212 2q-73 0 -226 -2l-3 30l137 35q20 5 21 25q1 56 1 110h-165q-95 0 -227 -2l-4 64q221 272 459 547l80 5q-5 -110 -5 -228v-306h157l3 -82 q-77 2 -160 2zM1378 636q-155 -176 -299 -358h299v358z" />
<glyph unicode="&#xbf;" horiz-adv-x="880" d="M438 712q-52 0 -85.5 32t-33.5 86t33.5 87t85.5 33q55 0 88 -33t33 -87t-33 -86t-88 -32zM434 534q59 -53 110 -121.5t51 -99.5q0 -28 -14.5 -57t-38 -59t-53.5 -60.5t-62 -62.5q-34 -33 -66.5 -67t-58 -68.5t-41 -68.5t-15.5 -69q0 -85 56.5 -135t151.5 -50q66 0 132 28 l66 229l39 6l59 -280q-168 -65 -320 -65q-166 0 -263 74t-97 213q0 54 17.5 100.5t46 87.5t63.5 77.5t71 70.5q31 29 59.5 57t51 55.5t35.5 57t13 59.5q0 55 -37 120z" />
<glyph unicode="&#xc0;" horiz-adv-x="1381" d="M754 1421l444 -1223q25 -69 45.5 -93.5t58.5 -36.5l94 -28l2 -43q-131 3 -243 3q-114 0 -269 -3l-4 43l95 28q20 7 28.5 15.5t8.5 26.5q0 20 -10.5 52.5t-29.5 86.5l-94 268h-482l-105 -267q-21 -56 -33 -89t-12 -52q0 -17 9.5 -25.5t28.5 -14.5l93 -27l2 -45 q-142 3 -232 3t-201 -3l-5 43l101 31q38 12 56 37t40 78l511 1220zM435 608h412l-195 551zM447 1668l137 118l326 -244l-26 -46l-437 157v15zM280 1400z" />
<glyph unicode="&#xc1;" horiz-adv-x="1381" d="M754 1421l444 -1223q25 -69 45.5 -93.5t58.5 -36.5l94 -28l2 -43q-131 3 -243 3q-114 0 -269 -3l-4 43l95 28q20 7 28.5 15.5t8.5 26.5q0 20 -10.5 52.5t-29.5 86.5l-94 268h-482l-105 -267q-21 -56 -33 -89t-12 -52q0 -17 9.5 -25.5t28.5 -14.5l93 -27l2 -45 q-142 3 -232 3t-201 -3l-5 43l101 31q38 12 56 37t40 78l511 1220zM435 608h412l-195 551zM941 1653l-436 -157l-27 46l326 244l137 -118v-15zM280 1400z" />
<glyph unicode="&#xc2;" horiz-adv-x="1381" d="M754 1421l444 -1223q25 -69 45.5 -93.5t58.5 -36.5l94 -28l2 -43q-131 3 -243 3q-114 0 -269 -3l-4 43l95 28q20 7 28.5 15.5t8.5 26.5q0 20 -10.5 52.5t-29.5 86.5l-94 268h-482l-105 -267q-21 -56 -33 -89t-12 -52q0 -17 9.5 -25.5t28.5 -14.5l93 -27l2 -45 q-142 3 -232 3t-201 -3l-5 43l101 31q38 12 56 37t40 78l511 1220zM435 608h412l-195 551zM745 1770l286 -239l-27 -46l-304 135l-305 -135l-26 46l286 239h90zM280 1400z" />
<glyph unicode="&#xc3;" horiz-adv-x="1381" d="M754 1421l444 -1223q25 -69 45.5 -93.5t58.5 -36.5l94 -28l2 -43q-131 3 -243 3q-114 0 -269 -3l-4 43l95 28q20 7 28.5 15.5t8.5 26.5q0 20 -10.5 52.5t-29.5 86.5l-94 268h-482l-105 -267q-21 -56 -33 -89t-12 -52q0 -17 9.5 -25.5t28.5 -14.5l93 -27l2 -45 q-142 3 -232 3t-201 -3l-5 43l101 31q38 12 56 37t40 78l511 1220zM435 608h412l-195 551zM1036 1724q-114 -199 -224 -199q-36 0 -67.5 14.5t-69.5 37.5q-36 20 -59 32.5t-48 12.5q-28 0 -52.5 -17t-81.5 -79l-50 39q69 107 117.5 151t102.5 44q31 0 56.5 -10t73.5 -38 q44 -24 67.5 -36.5t49.5 -12.5q31 0 53.5 16t78.5 80zM280 1400z" />
<glyph unicode="&#xc4;" horiz-adv-x="1381" d="M754 1421l444 -1223q25 -69 45.5 -93.5t58.5 -36.5l94 -28l2 -43q-131 3 -243 3q-114 0 -269 -3l-4 43l95 28q20 7 28.5 15.5t8.5 26.5q0 20 -10.5 52.5t-29.5 86.5l-94 268h-482l-105 -267q-21 -56 -33 -89t-12 -52q0 -17 9.5 -25.5t28.5 -14.5l93 -27l2 -45 q-142 3 -232 3t-201 -3l-5 43l101 31q38 12 56 37t40 78l511 1220zM435 608h412l-195 551zM600 1635q0 -52 -31.5 -83.5t-81.5 -31.5q-47 0 -77 29.5t-30 77.5q0 53 31.5 83t82.5 30q47 0 76.5 -27.5t29.5 -77.5zM1020 1635q0 -52 -31.5 -83.5t-81.5 -31.5q-47 0 -77 29.5 t-30 77.5q0 53 31.5 83t82.5 30q47 0 76.5 -27.5t29.5 -77.5zM280 1400z" />
<glyph unicode="&#xc5;" horiz-adv-x="1381" d="M754 1421l444 -1223q25 -69 45.5 -93.5t58.5 -36.5l94 -28l2 -43q-131 3 -243 3q-114 0 -269 -3l-4 43l95 28q20 7 28.5 15.5t8.5 26.5q0 20 -10.5 52.5t-29.5 86.5l-94 268h-482l-105 -267q-21 -56 -33 -89t-12 -52q0 -17 9.5 -25.5t28.5 -14.5l93 -27l2 -45 q-142 3 -232 3t-201 -3l-5 43l101 31q38 12 56 37t40 78l511 1220zM435 608h412l-195 551zM695 1473q-98 0 -156 45t-58 127q0 86 65.5 138.5t158.5 52.5q92 0 153 -49.5t61 -130.5q0 -83 -63 -133t-161 -50zM700 1531q49 0 80 28t31 89t-30.5 95.5t-80.5 34.5t-80.5 -29 t-30.5 -90t31 -94.5t80 -33.5zM280 1400z" />
<glyph unicode="&#xc6;" horiz-adv-x="1839" d="M786 1396h453q224 0 473 4l6 -8l-58 -309l-40 -7l-62 231h-442v-570h71q104 0 232 2q26 1 34 26l35 135l54 2q-3 -140 -3 -207q0 -65 3 -204l-54 -4l-36 137q-8 26 -31 27q-130 2 -235 2h-70v-344q0 -111 2 -219h460l122 254l45 8l-22 -348l-7 -7q-259 3 -478 3h-218 q-121 0 -248 -3l-4 43l123 37q25 7 27 31q1 40 1.5 89.5t0.5 109.5v346h-410l-202 -403q-20 -39 -36.5 -74.5t-16.5 -61.5q0 -16 8.5 -27.5t29.5 -17.5l93 -27l2 -45q-146 3 -240 3q-45 0 -100 -0.5t-111 -2.5l-5 43l101 31q38 12 58 32t53 82l568 1091q13 25 -18 34 l-154 47l-2 43q129 -4 248 -4zM920 1307h-82l-286 -570h368v570z" />
<glyph unicode="&#xc7;" horiz-adv-x="1334" d="M643 -190l120 156q-297 17 -480.5 210t-183.5 504q0 343 218 543t570 200q169 0 346 -41l7 -8l-62 -323l-40 -6l-73 263q-124 31 -225 31q-245 0 -385 -171t-140 -444q0 -292 160 -466t443 -174q159 0 335 61l11 -45q-185 -127 -415 -135l-55 -74q120 -44 120 -126 q0 -110 -209 -251l-35 38q98 80 98 147q0 73 -121 104z" />
<glyph unicode="&#xc8;" horiz-adv-x="1189" d="M346 1396h243q224 0 473 4l6 -8l-58 -309l-40 -7l-62 231h-462v-550h91q104 0 232 2q26 1 34 26l35 135l54 2q-3 -140 -3 -207q0 -65 3 -204l-54 -4l-36 137q-8 26 -31 27q-130 2 -235 2h-90v-364q0 -111 2 -219h480l122 254l45 8l-22 -348l-7 -7q-259 3 -478 3h-238 q-121 0 -248 -3l-4 43l123 37q25 7 27 31q1 40 1.5 89.5t0.5 109.5v811q0 51 -0.5 92t-1.5 74q-1 26 -24 34l-124 39l-2 43q129 -4 248 -4zM367 1668l137 118l326 -244l-26 -46l-437 157v15zM200 1400z" />
<glyph unicode="&#xc9;" horiz-adv-x="1189" d="M346 1396h243q224 0 473 4l6 -8l-58 -309l-40 -7l-62 231h-462v-550h91q104 0 232 2q26 1 34 26l35 135l54 2q-3 -140 -3 -207q0 -65 3 -204l-54 -4l-36 137q-8 26 -31 27q-130 2 -235 2h-90v-364q0 -111 2 -219h480l122 254l45 8l-22 -348l-7 -7q-259 3 -478 3h-238 q-121 0 -248 -3l-4 43l123 37q25 7 27 31q1 40 1.5 89.5t0.5 109.5v811q0 51 -0.5 92t-1.5 74q-1 26 -24 34l-124 39l-2 43q129 -4 248 -4zM861 1653l-436 -157l-27 46l326 244l137 -118v-15zM200 1400z" />
<glyph unicode="&#xca;" horiz-adv-x="1189" d="M346 1396h243q224 0 473 4l6 -8l-58 -309l-40 -7l-62 231h-462v-550h91q104 0 232 2q26 1 34 26l35 135l54 2q-3 -140 -3 -207q0 -65 3 -204l-54 -4l-36 137q-8 26 -31 27q-130 2 -235 2h-90v-364q0 -111 2 -219h480l122 254l45 8l-22 -348l-7 -7q-259 3 -478 3h-238 q-121 0 -248 -3l-4 43l123 37q25 7 27 31q1 40 1.5 89.5t0.5 109.5v811q0 51 -0.5 92t-1.5 74q-1 26 -24 34l-124 39l-2 43q129 -4 248 -4zM665 1770l286 -239l-27 -46l-304 135l-305 -135l-26 46l286 239h90zM200 1400z" />
<glyph unicode="&#xcb;" horiz-adv-x="1189" d="M346 1396h243q224 0 473 4l6 -8l-58 -309l-40 -7l-62 231h-462v-550h91q104 0 232 2q26 1 34 26l35 135l54 2q-3 -140 -3 -207q0 -65 3 -204l-54 -4l-36 137q-8 26 -31 27q-130 2 -235 2h-90v-364q0 -111 2 -219h480l122 254l45 8l-22 -348l-7 -7q-259 3 -478 3h-238 q-121 0 -248 -3l-4 43l123 37q25 7 27 31q1 40 1.5 89.5t0.5 109.5v811q0 51 -0.5 92t-1.5 74q-1 26 -24 34l-124 39l-2 43q129 -4 248 -4zM520 1635q0 -52 -31.5 -83.5t-81.5 -31.5q-47 0 -77 29.5t-30 77.5q0 53 31.5 83t82.5 30q47 0 76.5 -27.5t29.5 -77.5zM940 1635 q0 -52 -31.5 -83.5t-81.5 -31.5q-47 0 -77 29.5t-30 77.5q0 53 31.5 83t82.5 30q47 0 76.5 -27.5t29.5 -77.5zM200 1400z" />
<glyph unicode="&#xcc;" horiz-adv-x="696" d="M446 307q0 -60 0.5 -109t1.5 -89q1 -25 35 -34l113 -35l2 -43q-129 3 -248 3q-121 0 -248 -3l-4 43l123 37q25 7 27 31q1 40 1.5 89.5t0.5 109.5v811q0 51 -0.5 92t-1.5 74q-1 26 -24 34l-124 39l-2 43q129 -4 248 -4q120 0 248 4l4 -43l-124 -37q-24 -6 -26 -31 q-1 -35 -1.5 -76.5t-0.5 -90.5v-815zM96 1668l137 118l326 -244l-26 -46l-437 157v15zM-71 1400z" />
<glyph unicode="&#xcd;" horiz-adv-x="696" d="M446 307q0 -60 0.5 -109t1.5 -89q1 -25 35 -34l113 -35l2 -43q-129 3 -248 3q-121 0 -248 -3l-4 43l123 37q25 7 27 31q1 40 1.5 89.5t0.5 109.5v811q0 51 -0.5 92t-1.5 74q-1 26 -24 34l-124 39l-2 43q129 -4 248 -4q120 0 248 4l4 -43l-124 -37q-24 -6 -26 -31 q-1 -35 -1.5 -76.5t-0.5 -90.5v-815zM590 1653l-436 -157l-27 46l326 244l137 -118v-15zM-71 1400z" />
<glyph unicode="&#xce;" horiz-adv-x="696" d="M446 307q0 -60 0.5 -109t1.5 -89q1 -25 35 -34l113 -35l2 -43q-129 3 -248 3q-121 0 -248 -3l-4 43l123 37q25 7 27 31q1 40 1.5 89.5t0.5 109.5v811q0 51 -0.5 92t-1.5 74q-1 26 -24 34l-124 39l-2 43q129 -4 248 -4q120 0 248 4l4 -43l-124 -37q-24 -6 -26 -31 q-1 -35 -1.5 -76.5t-0.5 -90.5v-815zM394 1770l286 -239l-27 -46l-304 135l-305 -135l-26 46l286 239h90zM-71 1400z" />
<glyph unicode="&#xcf;" horiz-adv-x="696" d="M446 307q0 -60 0.5 -109t1.5 -89q1 -25 35 -34l113 -35l2 -43q-129 3 -248 3q-121 0 -248 -3l-4 43l123 37q25 7 27 31q1 40 1.5 89.5t0.5 109.5v811q0 51 -0.5 92t-1.5 74q-1 26 -24 34l-124 39l-2 43q129 -4 248 -4q120 0 248 4l4 -43l-124 -37q-24 -6 -26 -31 q-1 -35 -1.5 -76.5t-0.5 -90.5v-815zM249 1635q0 -52 -31.5 -83.5t-81.5 -31.5q-47 0 -77 29.5t-30 77.5q0 53 31.5 83t82.5 30q47 0 76.5 -27.5t29.5 -77.5zM669 1635q0 -52 -31.5 -83.5t-81.5 -31.5q-47 0 -77 29.5t-30 77.5q0 53 31.5 83t82.5 30q47 0 76.5 -27.5 t29.5 -77.5zM-71 1400z" />
<glyph unicode="&#xd0;" horiz-adv-x="1538" d="M350 0q-121 0 -248 -3l-4 43l123 37q26 8 27 31q1 40 1.5 89.5t0.5 109.5v385h-152v91h152v335q0 51 -0.5 92t-1.5 74q-1 26 -24 34l-124 39l-2 43q129 -4 251 -4q100 0 193 5t191 5q350 0 526 -159.5t176 -473.5q0 -370 -195.5 -574.5t-548.5 -204.5q-97 0 -173 3 t-168 3zM778 692h-332v-603q59 -8 115.5 -10.5t113.5 -2.5q264 0 402 155.5t138 476.5q0 312 -131 462.5t-415 150.5q-45 0 -99.5 -2t-123.5 -7v-529h332v-91z" />
<glyph unicode="&#xd1;" horiz-adv-x="1534" d="M341 1115v-808q0 -118 2 -196q1 -28 25 -34l119 -35l2 -45q-125 3 -205 3q-78 0 -207 -3l-4 43l123 37q26 8 27 31q2 81 2 199v811q0 100 -2 166q-1 26 -24 34l-124 39l-2 43q129 -4 204 -4q45 0 91 4l840 -1049v771q0 97 -2 167q-1 23 -26 31l-118 34l-2 46 q128 -4 207 -4q80 0 205 4l4 -43l-126 -39q-23 -8 -24 -34q-2 -66 -2 -166v-1118l-84 -8zM1116 1724q-114 -199 -224 -199q-36 0 -67.5 14.5t-69.5 37.5q-36 20 -59 32.5t-48 12.5q-28 0 -52.5 -17t-81.5 -79l-50 39q69 107 117.5 151t102.5 44q31 0 56.5 -10t73.5 -38 q44 -24 67.5 -36.5t49.5 -12.5q31 0 53.5 16t78.5 80zM360 1400z" />
<glyph unicode="&#xd2;" horiz-adv-x="1647" d="M319 717q0 -326 132 -499.5t387 -173.5q251 0 370.5 157.5t119.5 494.5q0 316 -127 486t-392 170q-257 0 -373.5 -157.5t-116.5 -477.5zM1548 730q0 -346 -196.5 -556.5t-549.5 -210.5q-335 0 -518.5 194.5t-183.5 526.5q0 346 197.5 547.5t547.5 201.5 q336 0 519.5 -188.5t183.5 -514.5zM570 1668l137 118l326 -244l-26 -46l-437 157v15zM403 1400z" />
<glyph unicode="&#xd3;" horiz-adv-x="1647" d="M319 717q0 -326 132 -499.5t387 -173.5q251 0 370.5 157.5t119.5 494.5q0 316 -127 486t-392 170q-257 0 -373.5 -157.5t-116.5 -477.5zM1548 730q0 -346 -196.5 -556.5t-549.5 -210.5q-335 0 -518.5 194.5t-183.5 526.5q0 346 197.5 547.5t547.5 201.5 q336 0 519.5 -188.5t183.5 -514.5zM1064 1653l-436 -157l-27 46l326 244l137 -118v-15zM403 1400z" />
<glyph unicode="&#xd4;" horiz-adv-x="1647" d="M319 717q0 -326 132 -499.5t387 -173.5q251 0 370.5 157.5t119.5 494.5q0 316 -127 486t-392 170q-257 0 -373.5 -157.5t-116.5 -477.5zM1548 730q0 -346 -196.5 -556.5t-549.5 -210.5q-335 0 -518.5 194.5t-183.5 526.5q0 346 197.5 547.5t547.5 201.5 q336 0 519.5 -188.5t183.5 -514.5zM868 1770l286 -239l-27 -46l-304 135l-305 -135l-26 46l286 239h90zM403 1400z" />
<glyph unicode="&#xd5;" horiz-adv-x="1647" d="M319 717q0 -326 132 -499.5t387 -173.5q251 0 370.5 157.5t119.5 494.5q0 316 -127 486t-392 170q-257 0 -373.5 -157.5t-116.5 -477.5zM1548 730q0 -346 -196.5 -556.5t-549.5 -210.5q-335 0 -518.5 194.5t-183.5 526.5q0 346 197.5 547.5t547.5 201.5 q336 0 519.5 -188.5t183.5 -514.5zM1159 1724q-114 -199 -224 -199q-36 0 -67.5 14.5t-69.5 37.5q-36 20 -59 32.5t-48 12.5q-28 0 -52.5 -17t-81.5 -79l-50 39q69 107 117.5 151t102.5 44q31 0 56.5 -10t73.5 -38q44 -24 67.5 -36.5t49.5 -12.5q31 0 53.5 16t78.5 80z M403 1400z" />
<glyph unicode="&#xd6;" horiz-adv-x="1647" d="M319 717q0 -326 132 -499.5t387 -173.5q251 0 370.5 157.5t119.5 494.5q0 316 -127 486t-392 170q-257 0 -373.5 -157.5t-116.5 -477.5zM1548 730q0 -346 -196.5 -556.5t-549.5 -210.5q-335 0 -518.5 194.5t-183.5 526.5q0 346 197.5 547.5t547.5 201.5 q336 0 519.5 -188.5t183.5 -514.5zM723 1635q0 -52 -31.5 -83.5t-81.5 -31.5q-47 0 -77 29.5t-30 77.5q0 53 31.5 83t82.5 30q47 0 76.5 -27.5t29.5 -77.5zM1143 1635q0 -52 -31.5 -83.5t-81.5 -31.5q-47 0 -77 29.5t-30 77.5q0 53 31.5 83t82.5 30q47 0 76.5 -27.5 t29.5 -77.5zM403 1400z" />
<glyph unicode="&#xd7;" horiz-adv-x="1130" d="M194 918l371 -371l371 371l86 -85l-371 -372l370 -370l-85 -86l-371 371l-371 -371l-85 86l370 370l-371 372z" />
<glyph unicode="&#xd8;" horiz-adv-x="1647" d="M1548 730q0 -346 -196.5 -556.5t-549.5 -210.5q-249 0 -415 107l-122 -160l-66 51l122 159q-221 198 -221 564q0 346 197.5 547.5t547.5 201.5q243 0 406 -99l105 138l70 -46l-107 -140q229 -193 229 -556zM838 44q251 0 370.5 157.5t119.5 494.5q0 293 -109 460 l-743 -970q131 -142 362 -142zM319 717q0 -292 106 -462l740 968q-126 129 -356 129q-257 0 -373.5 -157.5t-116.5 -477.5z" />
<glyph unicode="&#xd9;" horiz-adv-x="1523" d="M63 1400q129 -4 248 -4q120 0 248 4l4 -43l-124 -37q-24 -6 -26 -31q-1 -35 -1.5 -76.5t-0.5 -90.5v-547q0 -286 91 -396.5t293 -110.5q205 0 297 114t92 381v559q0 49 -0.5 90.5t-2.5 76.5q-1 23 -26 31l-117 34l-2 46q127 -4 218 -4q87 0 212 4l4 -43l-126 -39 q-23 -8 -24 -34q-1 -33 -1.5 -74t-0.5 -92v-513q0 -328 -133.5 -485t-420.5 -157q-281 0 -415 141.5t-134 439.5v574q0 51 -0.5 92t-1.5 74q-1 26 -24 34l-124 39zM532 1668l137 118l326 -244l-26 -46l-437 157v15zM365 1400z" />
<glyph unicode="&#xda;" horiz-adv-x="1523" d="M63 1400q129 -4 248 -4q120 0 248 4l4 -43l-124 -37q-24 -6 -26 -31q-1 -35 -1.5 -76.5t-0.5 -90.5v-547q0 -286 91 -396.5t293 -110.5q205 0 297 114t92 381v559q0 49 -0.5 90.5t-2.5 76.5q-1 23 -26 31l-117 34l-2 46q127 -4 218 -4q87 0 212 4l4 -43l-126 -39 q-23 -8 -24 -34q-1 -33 -1.5 -74t-0.5 -92v-513q0 -328 -133.5 -485t-420.5 -157q-281 0 -415 141.5t-134 439.5v574q0 51 -0.5 92t-1.5 74q-1 26 -24 34l-124 39zM1026 1653l-436 -157l-27 46l326 244l137 -118v-15zM365 1400z" />
<glyph unicode="&#xdb;" horiz-adv-x="1523" d="M63 1400q129 -4 248 -4q120 0 248 4l4 -43l-124 -37q-24 -6 -26 -31q-1 -35 -1.5 -76.5t-0.5 -90.5v-547q0 -286 91 -396.5t293 -110.5q205 0 297 114t92 381v559q0 49 -0.5 90.5t-2.5 76.5q-1 23 -26 31l-117 34l-2 46q127 -4 218 -4q87 0 212 4l4 -43l-126 -39 q-23 -8 -24 -34q-1 -33 -1.5 -74t-0.5 -92v-513q0 -328 -133.5 -485t-420.5 -157q-281 0 -415 141.5t-134 439.5v574q0 51 -0.5 92t-1.5 74q-1 26 -24 34l-124 39zM830 1770l286 -239l-27 -46l-304 135l-305 -135l-26 46l286 239h90zM365 1400z" />
<glyph unicode="&#xdc;" horiz-adv-x="1523" d="M63 1400q129 -4 248 -4q120 0 248 4l4 -43l-124 -37q-24 -6 -26 -31q-1 -35 -1.5 -76.5t-0.5 -90.5v-547q0 -286 91 -396.5t293 -110.5q205 0 297 114t92 381v559q0 49 -0.5 90.5t-2.5 76.5q-1 23 -26 31l-117 34l-2 46q127 -4 218 -4q87 0 212 4l4 -43l-126 -39 q-23 -8 -24 -34q-1 -33 -1.5 -74t-0.5 -92v-513q0 -328 -133.5 -485t-420.5 -157q-281 0 -415 141.5t-134 439.5v574q0 51 -0.5 92t-1.5 74q-1 26 -24 34l-124 39zM685 1635q0 -52 -31.5 -83.5t-81.5 -31.5q-47 0 -77 29.5t-30 77.5q0 53 31.5 83t82.5 30q47 0 76.5 -27.5 t29.5 -77.5zM1105 1635q0 -52 -31.5 -83.5t-81.5 -31.5q-47 0 -77 29.5t-30 77.5q0 53 31.5 83t82.5 30q47 0 76.5 -27.5t29.5 -77.5zM365 1400z" />
<glyph unicode="&#xdd;" horiz-adv-x="1215" d="M668 712l231 437q25 48 42 82t17 56q0 31 -44 43l-90 24l-2 46q108 -4 221 -4q109 0 212 4l4 -43l-101 -32q-36 -11 -55.5 -35t-39.5 -59l-346 -617v-304q0 -60 0.5 -109t1.5 -89q1 -25 35 -34l124 -38l2 -43q-140 3 -258 3q-121 0 -259 -3l-4 43l134 40q25 7 27 31 q1 40 1.5 89.5t0.5 109.5v283l-352 610q-37 61 -60.5 88t-62.5 38l-91 28l-2 43q91 -4 246 -4q135 0 279 4l4 -43l-94 -26q-21 -5 -30 -14.5t-9 -23.5q0 -21 15.5 -51.5t38.5 -70.5zM891 1653l-436 -157l-27 46l326 244l137 -118v-15zM230 1400z" />
<glyph unicode="&#xde;" horiz-adv-x="1198" d="M446 307q1 -158 2 -198q1 -25 35 -34l113 -35l2 -43q-129 3 -248 3q-121 0 -248 -3l-4 43l123 37q25 7 27 31q1 40 1.5 89.5t0.5 109.5v811q0 51 -0.5 92t-1.5 74q-1 26 -24 34l-124 39l-2 43q129 -4 248 -4q120 0 248 4l4 -43l-124 -37q-24 -6 -26 -31q-1 -35 -2 -77 v-68q97 6 163 6q260 0 387 -92.5t127 -285.5q0 -208 -139.5 -325.5t-389.5 -117.5q-69 0 -148 9v-31zM446 421q71 -13 138 -13q158 0 242.5 84.5t84.5 251.5q0 164 -79.5 244t-250.5 80q-53 0 -135 -9v-638z" />
<glyph unicode="&#xdf;" horiz-adv-x="1250" d="M201 924q0 274 123 428.5t343 154.5q180 0 274 -102t94 -300q0 -54 -5 -96q-156 -32 -233 -95t-77 -136q0 -33 17.5 -60t47 -51.5t67.5 -47t79 -45.5q47 -27 93.5 -56t83 -64t59.5 -78.5t23 -98.5q0 -146 -107 -225.5t-283 -79.5q-152 0 -295 62q31 105 53 242l43 7 l70 -204q60 -22 134 -22q96 0 150.5 38t54.5 114q0 39 -17.5 69.5t-46.5 56.5t-66.5 48t-77.5 45q-43 24 -84.5 50.5t-74.5 59.5t-53.5 74.5t-20.5 95.5q0 101 79 190.5t216 137.5q3 31 3 61q0 145 -57.5 237.5t-162.5 92.5q-137 0 -199.5 -105t-62.5 -344v-662 q0 -161 2 -317q-44 1 -92 1q-99 0 -233 -3l-5 41l112 32q28 9 29 33q2 62 2 131v589l-136 34l-7 42l144 12v13z" />
<glyph unicode="&#xe0;" horiz-adv-x="983" d="M617 453q-219 0 -299 -43t-80 -145q0 -95 53 -134.5t144 -39.5q103 0 180 35zM132 865q195 85 345 85q153 0 238.5 -80t84.5 -231l-5 -416q-1 -51 2.5 -82t18 -47.5t43.5 -23t78 -7.5l5 -39q-43 -17 -105 -34t-84 -17q-97 0 -133 100q-140 -101 -264 -101 q-139 0 -223.5 68.5t-84.5 193.5q0 154 137.5 227t431.5 73l1 78q1 112 -57 166t-178 54q-91 0 -228 -34zM531 1044h-69l-237 373h200zM53 927z" />
<glyph unicode="&#xe1;" horiz-adv-x="983" d="M617 453q-219 0 -299 -43t-80 -145q0 -95 53 -134.5t144 -39.5q103 0 180 35zM132 865q195 85 345 85q153 0 238.5 -80t84.5 -231l-5 -416q-1 -51 2.5 -82t18 -47.5t43.5 -23t78 -7.5l5 -39q-43 -17 -105 -34t-84 -17q-97 0 -133 100q-140 -101 -264 -101 q-139 0 -223.5 68.5t-84.5 193.5q0 154 137.5 227t431.5 73l1 78q1 112 -57 166t-178 54q-91 0 -228 -34zM521 1417h200l-238 -373h-68zM53 928z" />
<glyph unicode="&#xe2;" horiz-adv-x="983" d="M617 453q-219 0 -299 -43t-80 -145q0 -95 53 -134.5t144 -39.5q103 0 180 35zM132 865q195 85 345 85q153 0 238.5 -80t84.5 -231l-5 -416q-1 -51 2.5 -82t18 -47.5t43.5 -23t78 -7.5l5 -39q-43 -17 -105 -34t-84 -17q-97 0 -133 100q-140 -101 -264 -101 q-139 0 -223.5 68.5t-84.5 193.5q0 154 137.5 227t431.5 73l1 78q1 112 -57 166t-178 54q-91 0 -228 -34zM763 1044h-76l-216 226l-216 -226h-72l216 373h147zM53 928z" />
<glyph unicode="&#xe3;" horiz-adv-x="983" d="M617 453q-219 0 -299 -43t-80 -145q0 -95 53 -134.5t144 -39.5q103 0 180 35zM132 865q195 85 345 85q153 0 238.5 -80t84.5 -231l-5 -416q-1 -51 2.5 -82t18 -47.5t43.5 -23t78 -7.5l5 -39q-43 -17 -105 -34t-84 -17q-97 0 -133 100q-140 -101 -264 -101 q-139 0 -223.5 68.5t-84.5 193.5q0 154 137.5 227t431.5 73l1 78q1 112 -57 166t-178 54q-91 0 -228 -34zM821 1322q-118 -207 -232 -207q-38 0 -70.5 15t-71.5 39q-38 21 -61.5 34t-49.5 13q-29 0 -54.5 -17.5t-84.5 -82.5l-52 41q72 111 122 156.5t106 45.5 q32 0 58.5 -10.5t76.5 -39.5q45 -25 69.5 -38t51.5 -13q32 0 55.5 17t81.5 83zM53 928z" />
<glyph unicode="&#xe4;" horiz-adv-x="983" d="M617 453q-219 0 -299 -43t-80 -145q0 -95 53 -134.5t144 -39.5q103 0 180 35zM132 865q195 85 345 85q153 0 238.5 -80t84.5 -231l-5 -416q-1 -51 2.5 -82t18 -47.5t43.5 -23t78 -7.5l5 -39q-43 -17 -105 -34t-84 -17q-97 0 -133 100q-140 -101 -264 -101 q-139 0 -223.5 68.5t-84.5 193.5q0 154 137.5 227t431.5 73l1 78q1 112 -57 166t-178 54q-91 0 -228 -34zM391 1304q0 -51 -31.5 -82.5t-81.5 -31.5q-48 0 -77.5 29t-29.5 78q0 52 31.5 82t82.5 30q47 0 76.5 -27.5t29.5 -77.5zM775 1304q0 -51 -31.5 -82.5t-81.5 -31.5 q-47 0 -77 29t-30 78q0 52 31.5 82t82.5 30q48 0 77 -27.5t29 -77.5zM53 928z" />
<glyph unicode="&#xe5;" horiz-adv-x="983" d="M617 453q-219 0 -299 -43t-80 -145q0 -95 53 -134.5t144 -39.5q103 0 180 35zM132 865q195 85 345 85q153 0 238.5 -80t84.5 -231l-5 -416q-1 -51 2.5 -82t18 -47.5t43.5 -23t78 -7.5l5 -39q-43 -17 -105 -34t-84 -17q-97 0 -133 100q-140 -101 -264 -101 q-139 0 -223.5 68.5t-84.5 193.5q0 154 137.5 227t431.5 73l1 78q1 112 -57 166t-178 54q-91 0 -228 -34zM468 1044q-99 0 -158.5 47t-59.5 133q0 90 67 145t161 55q93 0 155.5 -51.5t62.5 -137.5q0 -87 -64.5 -139t-163.5 -52zM473 1105q50 0 81.5 29t31.5 93 q0 63 -31 99.5t-82 36.5t-82 -30.5t-31 -94.5q0 -63 31.5 -98t81.5 -35zM53 928z" />
<glyph unicode="&#xe6;" horiz-adv-x="1511" d="M132 865q195 85 345 85q194 0 277 -131q119 131 319 131q174 0 271 -111.5t97 -308.5q0 -29 -3 -61h-634q4 -192 103 -282.5t314 -90.5q96 0 205 18l6 -43q-84 -53 -173.5 -76t-164.5 -23q-237 0 -368 143q-203 -143 -370 -143q-139 0 -223.5 70.5t-84.5 200.5 q0 159 137.5 234t431.5 75l1 60q1 112 -57 166t-178 54q-91 0 -228 -34zM615 469q-218 0 -297.5 -44.5t-79.5 -151.5q0 -100 52.5 -141t143.5 -41q143 0 254 74q-73 121 -73 304zM1242 552v49q0 150 -45.5 211t-135.5 61q-119 0 -184.5 -88.5t-68.5 -232.5h434z" />
<glyph unicode="&#xe7;" horiz-adv-x="945" d="M373 -189l126 163q-191 11 -306.5 135t-115.5 327q0 229 143 371.5t370 142.5q147 0 285 -60q-33 -134 -59 -274l-39 -6l-81 240q-46 16 -104 16q-149 0 -233 -104t-84 -275q0 -201 95 -297t301 -96q95 0 203 19l6 -42q-136 -85 -294 -97l-62 -83q120 -44 120 -126 q0 -110 -209 -251l-35 38q98 80 98 147q0 73 -121 104z" />
<glyph unicode="&#xe8;" horiz-adv-x="981" d="M902 71q-85 -53 -175 -76t-167 -23q-220 0 -351 125.5t-131 348.5q0 222 125.5 363t335.5 141q176 0 274 -105.5t98 -291.5q0 -28 -3 -57h-634q0 -215 101 -307.5t316 -92.5q96 0 205 18zM712 579v30q0 142 -45.5 203t-135.5 61q-119 0 -182 -86t-71 -208h434zM591 1044 h-69l-237 373h200zM113 927z" />
<glyph unicode="&#xe9;" horiz-adv-x="981" d="M902 71q-85 -53 -175 -76t-167 -23q-220 0 -351 125.5t-131 348.5q0 222 125.5 363t335.5 141q176 0 274 -105.5t98 -291.5q0 -28 -3 -57h-634q0 -215 101 -307.5t316 -92.5q96 0 205 18zM712 579v30q0 142 -45.5 203t-135.5 61q-119 0 -182 -86t-71 -208h434zM581 1417 h200l-238 -373h-68zM113 928z" />
<glyph unicode="&#xea;" horiz-adv-x="981" d="M902 71q-85 -53 -175 -76t-167 -23q-220 0 -351 125.5t-131 348.5q0 222 125.5 363t335.5 141q176 0 274 -105.5t98 -291.5q0 -28 -3 -57h-634q0 -215 101 -307.5t316 -92.5q96 0 205 18zM712 579v30q0 142 -45.5 203t-135.5 61q-119 0 -182 -86t-71 -208h434zM823 1044 h-76l-216 226l-216 -226h-72l216 373h147zM113 928z" />
<glyph unicode="&#xeb;" horiz-adv-x="981" d="M902 71q-85 -53 -175 -76t-167 -23q-220 0 -351 125.5t-131 348.5q0 222 125.5 363t335.5 141q176 0 274 -105.5t98 -291.5q0 -28 -3 -57h-634q0 -215 101 -307.5t316 -92.5q96 0 205 18zM712 579v30q0 142 -45.5 203t-135.5 61q-119 0 -182 -86t-71 -208h434zM451 1304 q0 -51 -31.5 -82.5t-81.5 -31.5q-48 0 -77.5 29t-29.5 78q0 52 31.5 82t82.5 30q47 0 76.5 -27.5t29.5 -77.5zM835 1304q0 -51 -31.5 -82.5t-81.5 -31.5q-47 0 -77 29t-30 78q0 52 31.5 82t82.5 30q48 0 77 -27.5t29 -77.5zM113 928z" />
<glyph unicode="&#xec;" horiz-adv-x="580" d="M58 880q175 33 324 70l9 -7q-6 -130 -6 -286v-384q0 -120 2 -166q2 -27 25 -35l116 -34l2 -41q-138 3 -236 3t-233 -3l-4 41l116 34q23 8 25 31q2 39 2 131v334q0 131 -4 242l-133 36zM327 1044h-69l-237 373h200zM-151 927z" />
<glyph unicode="&#xed;" horiz-adv-x="580" d="M58 880q175 33 324 70l9 -7q-6 -130 -6 -286v-384q0 -120 2 -166q2 -27 25 -35l116 -34l2 -41q-138 3 -236 3t-233 -3l-4 41l116 34q23 8 25 31q2 39 2 131v334q0 131 -4 242l-133 36zM317 1417h200l-238 -373h-68zM-151 928z" />
<glyph unicode="&#xee;" horiz-adv-x="580" d="M58 880q175 33 324 70l9 -7q-6 -130 -6 -286v-384q0 -120 2 -166q2 -27 25 -35l116 -34l2 -41q-138 3 -236 3t-233 -3l-4 41l116 34q23 8 25 31q2 39 2 131v334q0 131 -4 242l-133 36zM559 1044h-76l-216 226l-216 -226h-72l216 373h147zM-151 928z" />
<glyph unicode="&#xef;" horiz-adv-x="580" d="M58 880q175 33 324 70l9 -7q-6 -130 -6 -286v-384q0 -120 2 -166q2 -27 25 -35l116 -34l2 -41q-138 3 -236 3t-233 -3l-4 41l116 34q23 8 25 31q2 39 2 131v334q0 131 -4 242l-133 36zM187 1304q0 -51 -31.5 -82.5t-81.5 -31.5q-48 0 -77.5 29t-29.5 78q0 52 31.5 82 t82.5 30q47 0 76.5 -27.5t29.5 -77.5zM571 1304q0 -51 -31.5 -82.5t-81.5 -31.5q-47 0 -77 29t-30 78q0 52 31.5 82t82.5 30q48 0 77 -27.5t29 -77.5zM-151 928z" />
<glyph unicode="&#xf0;" horiz-adv-x="1122" d="M264 1107l276 143q-138 126 -319 214l1 12h252q117 -63 214 -149l239 123l43 -65l-223 -115q283 -303 283 -712q0 -269 -128.5 -427.5t-362.5 -158.5q-204 0 -332 130t-128 344q0 211 126.5 351.5t326.5 140.5q168 0 267 -97l6 3q-63 198 -206 347l-293 -152zM833 500 q0 175 -71 266.5t-193 91.5q-138 0 -212.5 -101t-74.5 -282q0 -187 73.5 -306t202.5 -119q134 0 204.5 123t70.5 327z" />
<glyph unicode="&#xf1;" horiz-adv-x="1192" d="M58 880q168 32 317 70l10 -7v-116q174 123 324 123q142 0 222.5 -79.5t80.5 -225.5v-353q0 -125 2 -185q1 -27 26 -35l111 -34l2 -41q-132 3 -230 3t-218 -3l-4 41l100 29q23 8 25 31q1 14 1 63v436q0 123 -59 176.5t-174 53.5q-101 0 -209 -58v-437q0 -125 2 -229 q1 -27 23 -34l104 -31l2 -41q-124 3 -222 3t-232 -3l-4 41l118 34q22 9 23 31q1 64 1 123v341q0 131 -4 243l-133 36zM942 1322q-118 -207 -232 -207q-38 0 -70.5 15t-71.5 39q-38 21 -61.5 34t-49.5 13q-29 0 -54.5 -17.5t-84.5 -82.5l-52 41q72 111 122 156.5t106 45.5 q32 0 58.5 -10.5t76.5 -39.5q45 -25 69.5 -38t51.5 -13q32 0 55.5 17t81.5 83zM174 928z" />
<glyph unicode="&#xf2;" horiz-adv-x="1107" d="M281 472q0 -187 70 -304.5t208 -117.5q129 0 196.5 103.5t67.5 306.5q0 191 -71 301t-206 110q-128 0 -196.5 -99t-68.5 -300zM1027 481q0 -228 -137.5 -368.5t-349.5 -140.5q-207 0 -334.5 132.5t-127.5 346.5q0 220 133.5 359.5t353.5 139.5q208 0 335 -128.5 t127 -340.5zM613 1044h-69l-237 373h200zM135 927z" />
<glyph unicode="&#xf3;" horiz-adv-x="1107" d="M281 472q0 -187 70 -304.5t208 -117.5q129 0 196.5 103.5t67.5 306.5q0 191 -71 301t-206 110q-128 0 -196.5 -99t-68.5 -300zM1027 481q0 -228 -137.5 -368.5t-349.5 -140.5q-207 0 -334.5 132.5t-127.5 346.5q0 220 133.5 359.5t353.5 139.5q208 0 335 -128.5 t127 -340.5zM603 1417h200l-238 -373h-68zM135 928z" />
<glyph unicode="&#xf4;" horiz-adv-x="1107" d="M281 472q0 -187 70 -304.5t208 -117.5q129 0 196.5 103.5t67.5 306.5q0 191 -71 301t-206 110q-128 0 -196.5 -99t-68.5 -300zM1027 481q0 -228 -137.5 -368.5t-349.5 -140.5q-207 0 -334.5 132.5t-127.5 346.5q0 220 133.5 359.5t353.5 139.5q208 0 335 -128.5 t127 -340.5zM845 1044h-76l-216 226l-216 -226h-72l216 373h147zM135 928z" />
<glyph unicode="&#xf5;" horiz-adv-x="1107" d="M281 472q0 -187 70 -304.5t208 -117.5q129 0 196.5 103.5t67.5 306.5q0 191 -71 301t-206 110q-128 0 -196.5 -99t-68.5 -300zM1027 481q0 -228 -137.5 -368.5t-349.5 -140.5q-207 0 -334.5 132.5t-127.5 346.5q0 220 133.5 359.5t353.5 139.5q208 0 335 -128.5 t127 -340.5zM903 1322q-118 -207 -232 -207q-38 0 -70.5 15t-71.5 39q-38 21 -61.5 34t-49.5 13q-29 0 -54.5 -17.5t-84.5 -82.5l-52 41q72 111 122 156.5t106 45.5q32 0 58.5 -10.5t76.5 -39.5q45 -25 69.5 -38t51.5 -13q32 0 55.5 17t81.5 83zM135 928z" />
<glyph unicode="&#xf6;" horiz-adv-x="1107" d="M281 472q0 -187 70 -304.5t208 -117.5q129 0 196.5 103.5t67.5 306.5q0 191 -71 301t-206 110q-128 0 -196.5 -99t-68.5 -300zM1027 481q0 -228 -137.5 -368.5t-349.5 -140.5q-207 0 -334.5 132.5t-127.5 346.5q0 220 133.5 359.5t353.5 139.5q208 0 335 -128.5 t127 -340.5zM473 1304q0 -51 -31.5 -82.5t-81.5 -31.5q-48 0 -77.5 29t-29.5 78q0 52 31.5 82t82.5 30q47 0 76.5 -27.5t29.5 -77.5zM857 1304q0 -51 -31.5 -82.5t-81.5 -31.5q-47 0 -77 29t-30 78q0 52 31.5 82t82.5 30q48 0 77 -27.5t29 -77.5zM135 928z" />
<glyph unicode="&#xf7;" horiz-adv-x="1130" d="M566 904q50 0 82.5 -31.5t32.5 -82.5t-32.5 -83t-82.5 -32q-52 0 -84 32t-32 83t32 82.5t84 31.5zM566 258q50 0 82.5 -31.5t32.5 -82.5t-32.5 -83t-82.5 -32q-52 0 -84 32t-32 83t32 82.5t84 31.5zM93 522h944v-121h-944v121z" />
<glyph unicode="&#xf8;" horiz-adv-x="1107" d="M1027 481q0 -228 -137.5 -368.5t-349.5 -140.5q-151 0 -259 69l-85 -112l-63 43l88 116l-16 16q-127 133 -127 347q0 220 133.5 359.5t353.5 139.5q150 0 258 -67l84 111l62 -44l-86 -113q8 -8 17 -16q127 -128 127 -340zM558 47q131 0 199 104.5t68 308.5q0 146 -42 246 l-422 -559q69 -100 197 -100zM279 472q0 -147 42 -252l422 558q-70 97 -197 97q-129 0 -198 -100t-69 -303z" />
<glyph unicode="&#xf9;" horiz-adv-x="1166" d="M796 88q-156 -116 -312 -116q-157 0 -235.5 80t-78.5 225v212q0 214 -4 321l-133 36l-5 34q175 32 324 70l9 -7q-6 -117 -6 -301v-318q0 -121 57 -175.5t161 -54.5t213 55v426q0 140 -4 235l-132 36l-5 34q174 32 323 70l9 -7q-6 -120 -6 -307q0 -363 2 -443q1 -41 6 -66 t19 -38.5t41.5 -19t73.5 -6.5l5 -39q-46 -18 -106 -34.5t-82 -16.5q-101 0 -134 115zM618 1044h-69l-237 373h200zM140 927z" />
<glyph unicode="&#xfa;" horiz-adv-x="1166" d="M796 88q-156 -116 -312 -116q-157 0 -235.5 80t-78.5 225v212q0 214 -4 321l-133 36l-5 34q175 32 324 70l9 -7q-6 -117 -6 -301v-318q0 -121 57 -175.5t161 -54.5t213 55v426q0 140 -4 235l-132 36l-5 34q174 32 323 70l9 -7q-6 -120 -6 -307q0 -363 2 -443q1 -41 6 -66 t19 -38.5t41.5 -19t73.5 -6.5l5 -39q-46 -18 -106 -34.5t-82 -16.5q-101 0 -134 115zM608 1417h200l-238 -373h-68zM140 928z" />
<glyph unicode="&#xfb;" horiz-adv-x="1166" d="M796 88q-156 -116 -312 -116q-157 0 -235.5 80t-78.5 225v212q0 214 -4 321l-133 36l-5 34q175 32 324 70l9 -7q-6 -117 -6 -301v-318q0 -121 57 -175.5t161 -54.5t213 55v426q0 140 -4 235l-132 36l-5 34q174 32 323 70l9 -7q-6 -120 -6 -307q0 -363 2 -443q1 -41 6 -66 t19 -38.5t41.5 -19t73.5 -6.5l5 -39q-46 -18 -106 -34.5t-82 -16.5q-101 0 -134 115zM850 1044h-76l-216 226l-216 -226h-72l216 373h147zM140 928z" />
<glyph unicode="&#xfc;" horiz-adv-x="1166" d="M796 88q-156 -116 -312 -116q-157 0 -235.5 80t-78.5 225v212q0 214 -4 321l-133 36l-5 34q175 32 324 70l9 -7q-6 -117 -6 -301v-318q0 -121 57 -175.5t161 -54.5t213 55v426q0 140 -4 235l-132 36l-5 34q174 32 323 70l9 -7q-6 -120 -6 -307q0 -363 2 -443q1 -41 6 -66 t19 -38.5t41.5 -19t73.5 -6.5l5 -39q-46 -18 -106 -34.5t-82 -16.5q-101 0 -134 115zM478 1304q0 -51 -31.5 -82.5t-81.5 -31.5q-48 0 -77.5 29t-29.5 78q0 52 31.5 82t82.5 30q47 0 76.5 -27.5t29.5 -77.5zM862 1304q0 -51 -31.5 -82.5t-81.5 -31.5q-47 0 -77 29t-30 78 q0 52 31.5 82t82.5 30q48 0 77 -27.5t29 -77.5zM140 928z" />
<glyph unicode="&#xfd;" horiz-adv-x="986" d="M-30 927q126 -3 224 -3q67 0 214 3l4 -41l-117 -32q37 -105 86 -231.5t104 -263.5q23 -57 50 -131q28 75 60 153q47 116 91 228.5t91 244.5l-114 32l-4 41q74 -3 173 -3q89 0 173 3l5 -41l-93 -26q-31 -10 -45 -41q-37 -85 -80 -186q-132 -310 -200 -508 q-46 -134 -83 -274.5t-57 -241.5q-9 -49 -36.5 -74.5t-128.5 -25.5q-103 0 -200 7l-5 39q110 17 163 71q64 69 198 367l8 19l-14 4q-183 456 -331 802q-13 30 -46 41l-88 27zM558 1417h200l-238 -373h-68zM90 928z" />
<glyph unicode="&#xfe;" horiz-adv-x="1141" d="M360 1048v-203q153 105 296 105q185 0 295 -124.5t110 -323.5q0 -245 -141.5 -387.5t-399.5 -142.5q-78 0 -160 15v-219q0 -100 2 -140q2 -30 27 -36l131 -37l2 -41q-155 3 -253 3t-232 -3l-4 41l114 34q25 7 26 31q2 73 2 221v1109q0 221 -4 413l-135 40l-5 33 q164 31 325 71l10 -8q-6 -150 -6 -451zM360 77q87 -19 168 -19q165 0 249 104t84 298q0 183 -79.5 276t-229.5 93q-108 0 -192 -44v-708z" />
<glyph unicode="&#xff;" horiz-adv-x="986" d="M-30 927q126 -3 224 -3q67 0 214 3l4 -41l-117 -32q37 -105 86 -231.5t104 -263.5q23 -57 50 -131q28 75 60 153q47 116 91 228.5t91 244.5l-114 32l-4 41q74 -3 173 -3q89 0 173 3l5 -41l-93 -26q-31 -10 -45 -41q-37 -85 -80 -186q-132 -310 -200 -508 q-46 -134 -83 -274.5t-57 -241.5q-9 -49 -36.5 -74.5t-128.5 -25.5q-103 0 -200 7l-5 39q110 17 163 71q64 69 198 367l8 19l-14 4q-183 456 -331 802q-13 30 -46 41l-88 27zM428 1304q0 -51 -31.5 -82.5t-81.5 -31.5q-48 0 -77.5 29t-29.5 78q0 52 31.5 82t82.5 30 q47 0 76.5 -27.5t29.5 -77.5zM812 1304q0 -51 -31.5 -82.5t-81.5 -31.5q-47 0 -77 29t-30 78q0 52 31.5 82t82.5 30q48 0 77 -27.5t29 -77.5zM90 928z" />
<glyph unicode="&#x110;" horiz-adv-x="1538" d="M350 0q-121 0 -248 -3l-4 43l123 37q26 8 27 31q1 40 1.5 89.5t0.5 109.5v385h-152v91h152v335q0 51 -0.5 92t-1.5 74q-1 26 -24 34l-124 39l-2 43q129 -4 251 -4q100 0 193 5t191 5q350 0 526 -159.5t176 -473.5q0 -370 -195.5 -574.5t-548.5 -204.5q-97 0 -173 3 t-168 3zM778 692h-332v-603q59 -8 115.5 -10.5t113.5 -2.5q264 0 402 155.5t138 476.5q0 312 -131 462.5t-415 150.5q-45 0 -99.5 -2t-123.5 -7v-529h332v-91z" />
<glyph unicode="&#x131;" horiz-adv-x="580" d="M58 880q175 33 324 70l9 -7q-6 -130 -6 -286v-384q0 -120 2 -166q2 -27 25 -35l116 -34l2 -41q-138 3 -236 3t-233 -3l-4 41l116 34q23 8 25 31q2 39 2 131v334q0 131 -4 242l-133 36z" />
<glyph unicode="&#x152;" horiz-adv-x="2022" d="M1107 1396h312q225 0 474 4l6 -8l-57 -299l-40 -6l-59 220h-464v-550h91q104 0 232 2q26 1 34 26l35 135l54 2q-3 -140 -3 -207q0 -65 3 -204l-54 -4l-36 137q-8 26 -31 27q-130 2 -235 2h-90v-364q0 -111 2 -219h482l116 244l46 7l-21 -337l-7 -7q-259 3 -479 3h-344 q-125 -32 -272 -32q-335 0 -518.5 193t-183.5 523q0 344 197.5 544t547.5 200q148 0 262 -32zM809 1347q-257 0 -373.5 -156.5t-116.5 -473.5q0 -324 132 -496t387 -172q143 0 243 51q2 108 2 210v805q0 91 -2 168q-110 64 -272 64z" />
<glyph unicode="&#x153;" horiz-adv-x="1692" d="M1613 71q-84 -53 -173.5 -76t-164.5 -23q-252 0 -385 161q-141 -161 -361 -161q-201 0 -326 132.5t-125 346.5q0 220 130.5 359.5t345.5 139.5q225 0 353 -158q127 158 347 158q174 0 271 -105.5t97 -291.5q0 -28 -3 -57h-628q0 -215 100.5 -307.5t312.5 -92.5 q95 0 204 18zM281 472q0 -189 67.5 -307t199.5 -118q124 0 189 104.5t65 308.5q0 192 -68 303.5t-198 111.5q-123 0 -189 -100t-66 -303zM1423 579v30q0 142 -44.5 203t-134.5 61q-116 0 -178 -86t-71 -208h428z" />
<glyph unicode="&#x178;" horiz-adv-x="1215" d="M668 712l231 437q25 48 42 82t17 56q0 31 -44 43l-90 24l-2 46q108 -4 221 -4q109 0 212 4l4 -43l-101 -32q-36 -11 -55.5 -35t-39.5 -59l-346 -617v-304q0 -60 0.5 -109t1.5 -89q1 -25 35 -34l124 -38l2 -43q-140 3 -258 3q-121 0 -259 -3l-4 43l134 40q25 7 27 31 q1 40 1.5 89.5t0.5 109.5v283l-352 610q-37 61 -60.5 88t-62.5 38l-91 28l-2 43q91 -4 246 -4q135 0 279 4l4 -43l-94 -26q-21 -5 -30 -14.5t-9 -23.5q0 -21 15.5 -51.5t38.5 -70.5zM550 1635q0 -52 -31.5 -83.5t-81.5 -31.5q-47 0 -77 29.5t-30 77.5q0 53 31.5 83t82.5 30 q47 0 76.5 -27.5t29.5 -77.5zM970 1635q0 -52 -31.5 -83.5t-81.5 -31.5q-47 0 -77 29.5t-30 77.5q0 53 31.5 83t82.5 30q47 0 76.5 -27.5t29.5 -77.5zM230 1400z" />
<glyph unicode="&#x2c6;" horiz-adv-x="840" d="M710 1044h-76l-216 226l-216 -226h-72l216 373h147zM0 928z" />
<glyph unicode="&#x2da;" horiz-adv-x="840" d="M415 1044q-99 0 -158.5 47t-59.5 133q0 90 67 145t161 55q93 0 155.5 -51.5t62.5 -137.5q0 -87 -64.5 -139t-163.5 -52zM420 1105q50 0 81.5 29t31.5 93q0 63 -31 99.5t-82 36.5t-82 -30.5t-31 -94.5q0 -63 31.5 -98t81.5 -35zM0 928z" />
<glyph unicode="&#x2dc;" horiz-adv-x="840" d="M768 1322q-118 -207 -232 -207q-38 0 -70.5 15t-71.5 39q-38 21 -61.5 34t-49.5 13q-29 0 -54.5 -17.5t-84.5 -82.5l-52 41q72 111 122 156.5t106 45.5q32 0 58.5 -10.5t76.5 -39.5q45 -25 69.5 -38t51.5 -13q32 0 55.5 17t81.5 83zM0 928z" />
<glyph unicode="&#x3bc;" horiz-adv-x="1147" d="M170 -494v1136q0 75 -3 140.5t-8 123.5q102 22 189 44l9 -7q-6 -131 -6 -286v-344q0 -107 47.5 -159t152.5 -52q63 0 123 24t102 78v438q0 75 -3 140.5t-8 123.5q102 22 189 44l9 -7q-6 -131 -6 -286v-175q0 -209 3 -305q1 -55 20 -77q19 -20 56 -27.5t102 -8.5l5 -40 q-161 -49 -238 -49q-59 0 -91.5 34.5t-37.5 113.5q-23 -38 -53.5 -66.5t-64 -47t-70 -28t-71.5 -9.5q-106 0 -186 80q14 -327 38 -526q-47 -5 -94.5 -11.5t-94.5 -15.5z" />
<glyph unicode="&#x2013;" horiz-adv-x="1024" d="M70 553h884v-112h-884v112z" />
<glyph unicode="&#x2014;" horiz-adv-x="2048" d="M70 553h1908v-112h-1908v112z" />
<glyph unicode="&#x2018;" horiz-adv-x="424" d="M349 1474q-125 -110 -125 -216q0 -93 97 -149q0 -54 -32 -86t-83 -32q-57 0 -91.5 43.5t-34.5 109.5q0 103 58 194.5t175 177.5z" />
<glyph unicode="&#x2019;" horiz-adv-x="424" d="M75 1024q125 110 125 216q0 93 -97 149q0 54 32 86t83 32q57 0 91.5 -43.5t34.5 -109.5q0 -103 -58 -194.5t-175 -177.5z" />
<glyph unicode="&#x201a;" horiz-adv-x="454" d="M66 -254q125 110 125 216q0 93 -97 149q0 54 32 86t83 32q57 0 91.5 -43.5t34.5 -109.5q0 -103 -58 -194.5t-175 -177.5z" />
<glyph unicode="&#x201c;" horiz-adv-x="744" d="M340 1474q-125 -110 -125 -216q0 -93 97 -149q0 -54 -32 -86t-83 -32q-57 0 -91.5 43.5t-34.5 109.5q0 103 58 194.5t175 177.5zM679 1474q-125 -110 -125 -216q0 -93 97 -149q0 -54 -32 -86t-83 -32q-57 0 -91.5 43.5t-34.5 109.5q0 103 58 194.5t175 177.5z" />
<glyph unicode="&#x201d;" horiz-adv-x="744" d="M66 1024q125 110 125 216q0 93 -97 149q0 54 32 86t83 32q57 0 91.5 -43.5t34.5 -109.5q0 -103 -58 -194.5t-175 -177.5zM405 1024q125 110 125 216q0 93 -97 149q0 54 32 86t83 32q57 0 91.5 -43.5t34.5 -109.5q0 -103 -58 -194.5t-175 -177.5z" />
<glyph unicode="&#x201e;" horiz-adv-x="784" d="M56 -254q125 110 125 216q0 93 -97 149q0 54 32 86t83 32q57 0 91.5 -43.5t34.5 -109.5q0 -103 -58 -194.5t-175 -177.5zM395 -254q125 110 125 216q0 93 -97 149q0 54 32 86t83 32q57 0 91.5 -43.5t34.5 -109.5q0 -103 -58 -194.5t-175 -177.5z" />
<glyph unicode="&#x2022;" horiz-adv-x="642" d="M273 950q95 0 157 -60.5t62 -157.5t-62 -159t-157 -62q-101 0 -162 62t-61 159t61 157.5t162 60.5z" />
<glyph unicode="&#x2026;" horiz-adv-x="1477" d="M268 210q52 0 85.5 -32.5t33.5 -85.5t-33.5 -86.5t-85.5 -33.5q-55 0 -88 33.5t-33 86.5t33 85.5t88 32.5zM760 210q52 0 85.5 -32.5t33.5 -85.5t-33.5 -86.5t-85.5 -33.5q-55 0 -88 33.5t-33 86.5t33 85.5t88 32.5zM1252 210q52 0 85.5 -32.5t33.5 -85.5t-33.5 -86.5 t-85.5 -33.5q-55 0 -88 33.5t-33 86.5t33 85.5t88 32.5z" />
<glyph unicode="&#x2039;" horiz-adv-x="628" d="M460 71q-186 223 -366 375l-4 36q185 152 370 375l48 -25q-90 -180 -215 -363q125 -189 215 -373z" />
<glyph unicode="&#x203a;" horiz-adv-x="628" d="M168 857q186 -223 366 -375l4 -36q-185 -152 -370 -375l-48 25q90 180 215 363q-125 189 -215 373z" />
<glyph unicode="&#x2044;" horiz-adv-x="321" d="M-350 0l946 1477l75 -47l-947 -1477z" />
<glyph unicode="&#x2070;" d="M198 1066q0 -182 44 -278.5t131 -96.5q81 0 124 83t43 280q0 186 -45 275t-130 89q-81 0 -124 -78.5t-43 -273.5zM693 1073q0 -213 -93.5 -326.5t-238.5 -113.5q-142 0 -229 106t-87 306q0 207 91 319t241 112q143 0 229.5 -101.5t86.5 -301.5z" />
<glyph unicode="&#x2074;" d="M567 856q0 -59 2 -111q1 -23 21 -27l119 -32l2 -30q-138 2 -212 2q-73 0 -226 -2l-3 30l137 35q20 5 21 25q1 56 1 110h-165q-95 0 -227 -2l-4 64q221 272 459 547l80 5q-5 -110 -5 -228v-306h157l3 -82q-77 2 -160 2zM429 1294q-155 -176 -299 -358h299v358z" />
<glyph unicode="&#x2075;" d="M121 1092l41 370q86 -3 204 -3q134 0 252 3l5 -6l-19 -120l-386 9l-15 -146q57 11 108 11q154 0 245.5 -67.5t91.5 -184.5q0 -149 -153.5 -238.5t-387.5 -89.5l-6 55q177 4 287.5 68.5t110.5 172.5q0 84 -66 130.5t-185 46.5q-60 0 -122 -16z" />
<glyph unicode="&#x2076;" d="M635 1418q-189 -37 -288 -134.5t-128 -230.5h2q79 92 202 92q118 0 194 -70.5t76 -177.5q0 -115 -88.5 -190t-221.5 -75q-148 0 -237 94.5t-89 240.5q0 182 140 323.5t427 181.5zM543 865q0 91 -46.5 152t-125.5 61q-71 0 -113.5 -44t-42.5 -119q0 -89 48.5 -157 t130.5 -68q68 0 108.5 50.5t40.5 124.5z" />
<glyph unicode="&#x2077;" d="M207 645l333 698h-392l-43 -149l-30 -5l-13 267l5 6q157 -3 299 -3h37q143 0 264 3l5 -32q-30 -62 -61 -131t-61 -140t-58 -141.5t-52 -137t-45.5 -126t-36.5 -107.5l-147 -8z" />
<glyph unicode="&#x2078;" d="M250 1074q-85 42 -121.5 89t-36.5 107q0 95 87 150.5t207 55.5q109 0 183.5 -44.5t74.5 -118.5q0 -107 -160 -195q104 -49 157.5 -108t53.5 -140q0 -107 -99.5 -172.5t-232.5 -65.5q-139 0 -226 57t-87 153q0 139 200 232zM307 1048q-116 -69 -116 -181q0 -72 55 -124.5 t136 -52.5q74 0 120 41t46 106q0 42 -21 73t-55 55t-77.5 43.5t-87.5 39.5zM425 1144q83 64 83 147q0 56 -41.5 91.5t-106.5 35.5q-61 0 -101 -32t-40 -80q0 -29 16 -51.5t45.5 -41t67 -35.5t77.5 -34z" />
<glyph unicode="&#x2079;" d="M124 683q154 29 256 120t146 251h-1q-72 -91 -202 -91q-114 0 -194.5 67.5t-80.5 180.5q0 114 89.5 189.5t222.5 75.5q147 0 236 -94.5t89 -240.5q0 -201 -152 -341t-400 -170zM200 1246q0 -94 46.5 -155.5t126.5 -61.5q75 0 114.5 44.5t39.5 123.5q0 95 -51 160t-126 65 q-35 0 -62.5 -13.5t-47 -37t-30 -55.5t-10.5 -70z" />
<glyph unicode="&#x207a;" d="M50 1111h274v274h90v-274h274v-90h-274v-274h-90v274h-274v90z" />
<glyph unicode="&#x207c;" d="M50 1239h638v-90h-638v90zM50 983h638v-90h-638v90z" />
<glyph unicode="&#x207d;" horiz-adv-x="500" d="M389 534q-269 217 -269 527q0 312 269 531l36 -36q-173 -197 -173 -493q0 -299 173 -496z" />
<glyph unicode="&#x207e;" horiz-adv-x="500" d="M111 1592q269 -217 269 -527q0 -312 -269 -531l-36 36q173 197 173 493q0 299 -173 496z" />
<glyph unicode="&#x207f;" horiz-adv-x="729" d="M29 1165q112 19 225 42l6 -4v-62q100 66 187 66q82 0 128 -46t46 -130v-198q0 -73 1 -107q1 -16 16 -20l69 -20l2 -30q-83 2 -153 2q-75 0 -145 -2l-3 30l61 16q12 5 13 18v37v238q0 69 -29 98.5t-88 29.5q-51 0 -105 -27v-240q0 -73 1 -133q0 -15 12 -20l62 -17l3 -30 q-74 2 -147 2q-72 0 -155 -2l-2 30l73 20q13 4 13 17q1 37 1 71v192q0 77 -2 131l-87 23z" />
<glyph unicode="&#x2080;" d="M198 87q0 -182 44 -278.5t131 -96.5q81 0 124 83t43 280q0 186 -45 275t-130 89q-81 0 -124 -78.5t-43 -273.5zM693 94q0 -213 -93.5 -326.5t-238.5 -113.5q-142 0 -229 106t-87 306q0 207 91 319t241 112q143 0 229.5 -101.5t86.5 -301.5z" />
<glyph unicode="&#x2081;" d="M129 410l-3 31q173 25 324 52l6 -6q-9 -170 -9 -338v-160q0 -135 2 -216q1 -22 21 -27l149 -39l2 -30q-168 2 -242 2q-73 0 -241 -2l-3 30l152 39q19 5 20 24q2 84 2 189v93q0 183 -3 341z" />
<glyph unicode="&#x2082;" d="M626 -63l34 6l-17 -261l-5 -5q-112 1 -287 2q-160 0 -304 -2l-6 63q272 191 349.5 292t77.5 193q0 76 -53 123.5t-136 47.5q-79 0 -175 -38l-30 51q139 87 274 87q118 0 196.5 -57.5t78.5 -153.5q0 -116 -102 -232t-309 -250l1 -4h347z" />
<glyph unicode="&#x2083;" d="M199 130q114 10 180.5 51.5t66.5 106.5q0 52 -43 85t-108 33q-87 0 -178 -36l-25 50q133 76 267 76q99 0 167.5 -43.5t68.5 -119.5q0 -124 -187 -187v-2q115 -12 179.5 -63.5t64.5 -129.5q0 -127 -144.5 -209t-416.5 -90l-7 55q207 12 309 73t102 151q0 72 -54.5 112.5 t-153.5 40.5q-38 0 -83 -9z" />
<glyph unicode="&#x2084;" d="M567 -123q0 -59 2 -111q1 -23 21 -27l119 -32l2 -30q-138 2 -212 2q-73 0 -226 -2l-3 30l137 35q20 5 21 25q1 56 1 110h-165q-95 0 -227 -2l-4 64q221 272 459 547l80 5q-5 -110 -5 -228v-306h157l3 -82q-77 2 -160 2zM429 315q-155 -176 -299 -358h299v358z" />
<glyph unicode="&#x2085;" d="M121 113l41 370q86 -3 204 -3q134 0 252 3l5 -6l-19 -120l-386 9l-15 -146q57 11 108 11q154 0 245.5 -67.5t91.5 -184.5q0 -149 -153.5 -238.5t-387.5 -89.5l-6 55q177 4 287.5 68.5t110.5 172.5q0 84 -66 130.5t-185 46.5q-60 0 -122 -16z" />
<glyph unicode="&#x2086;" d="M635 439q-189 -37 -288 -134.5t-128 -230.5h2q79 92 202 92q118 0 194 -70.5t76 -177.5q0 -115 -88.5 -190t-221.5 -75q-148 0 -237 94.5t-89 240.5q0 182 140 323.5t427 181.5zM543 -114q0 91 -46.5 152t-125.5 61q-71 0 -113.5 -44t-42.5 -119q0 -89 48.5 -157 t130.5 -68q68 0 108.5 50.5t40.5 124.5z" />
<glyph unicode="&#x2087;" d="M207 -334l333 698h-392l-43 -149l-30 -5l-13 267l5 6q157 -3 299 -3h37q143 0 264 3l5 -32q-30 -62 -61 -131t-61 -140t-58 -141.5t-52 -137t-45.5 -126t-36.5 -107.5l-147 -8z" />
<glyph unicode="&#x2088;" d="M250 95q-85 42 -121.5 89t-36.5 107q0 95 87 150.5t207 55.5q109 0 183.5 -44.5t74.5 -118.5q0 -107 -160 -195q104 -49 157.5 -108t53.5 -140q0 -107 -99.5 -172.5t-232.5 -65.5q-139 0 -226 57t-87 153q0 139 200 232zM307 69q-116 -69 -116 -181q0 -72 55 -124.5 t136 -52.5q74 0 120 41t46 106q0 42 -21 73t-55 55t-77.5 43.5t-87.5 39.5zM425 165q83 64 83 147q0 56 -41.5 91.5t-106.5 35.5q-61 0 -101 -32t-40 -80q0 -29 16 -51.5t45.5 -41t67 -35.5t77.5 -34z" />
<glyph unicode="&#x2089;" d="M124 -266q154 29 256 120t146 251h-1q-72 -91 -202 -91q-114 0 -194.5 67.5t-80.5 180.5q0 114 89.5 189.5t222.5 75.5q147 0 236 -94.5t89 -240.5q0 -201 -152 -341t-400 -170zM200 297q0 -94 46.5 -155.5t126.5 -61.5q75 0 114.5 44.5t39.5 123.5q0 95 -51 160t-126 65 q-35 0 -62.5 -13.5t-47 -37t-30 -55.5t-10.5 -70z" />
<glyph unicode="&#x208a;" d="M50 121h274v274h90v-274h274v-90h-274v-274h-90v274h-274v90z" />
<glyph unicode="&#x208c;" d="M50 249h638v-90h-638v90zM50 -7h638v-90h-638v90z" />
<glyph unicode="&#x208d;" horiz-adv-x="500" d="M389 -456q-269 217 -269 527q0 312 269 531l36 -36q-173 -197 -173 -493q0 -299 173 -496z" />
<glyph unicode="&#x208e;" horiz-adv-x="500" d="M111 602q269 -217 269 -527q0 -312 -269 -531l-36 36q173 197 173 493q0 299 -173 496z" />
<glyph unicode="&#x20ac;" horiz-adv-x="1056" d="M822 378h-426q38 -136 138 -214t246 -78q107 0 221 55l15 -40q-139 -127 -325 -127q-185 0 -323.5 106t-178.5 298h-128v81h118q-2 31 -2 51q0 43 4 73h-121v81h134q48 195 198 298t349 103q119 0 247 -39l6 -7l-52 -274l-38 -6l-65 230q-76 17 -136 17 q-129 0 -213.5 -88t-106.5 -234h439v-81h-446q-1 -18 -1 -38q0 -43 5 -86h442v-81z" />
<glyph unicode="&#x2122;" horiz-adv-x="1437" d="M352 892q-65 0 -140 -2l-2 24l74 22q13 3 14 15q1 42 1 105v293h-135l-49 -144l-21 -5l-14 194l3 4q133 -2 255 -2h31q121 0 255 2l4 -4l-35 -189l-21 -5l-34 149h-134v-293q0 -63 1 -105q1 -12 15 -15l74 -22l1 -24q-78 2 -143 2zM1200 1398q47 -2 87 -2q41 0 108 2 l2 -24l-67 -21q-13 -3 -14 -17q-1 -37 -1 -90v-188q0 -64 1 -108q1 -12 15 -17l65 -19l1 -24q-71 2 -136 2q-64 0 -126 -2l-2 24l62 18q13 5 13 19q1 43 1 107v236l-188 -402l-33 -5l-189 407v-236q0 -64 1 -107q0 -14 15 -19l60 -18l1 -24q-65 2 -107 2q-39 0 -108 -2 l-1 24l65 19q15 5 15 17q1 44 1 108v187q0 53 -1 90q0 14 -13 17l-67 21v24q68 -2 104 -2q55 0 104 2l165 -356z" />
<glyph unicode="&#x25fc;" horiz-adv-x="925" d="M0 925h925v-925h-925v925z" />
<glyph horiz-adv-x="1121" d="M242 103q0 -16 9 -24.5t26 -13.5l89 -25l2 -43q-135 3 -209 3q-87 0 -192 -3l-5 41l97 29q35 11 54 35q16 22 37 73l375 871l88 13l324 -871q24 -66 42 -89q19 -22 56 -34l90 -27l2 -41q-123 3 -229 3q-109 0 -255 -3l-3 41l89 27q19 5 27.5 13.5t8.5 25.5q0 19 -10 50 t-29 81l-45 123h-347l-48 -122q-21 -53 -32.5 -84t-11.5 -49zM517 813l-148 -370h281z" />
<glyph horiz-adv-x="1088" d="M341 1039q40 0 124 4t112 4q176 0 265.5 -61t89.5 -174q0 -187 -244 -250q141 -19 224.5 -84.5t83.5 -169.5q0 -148 -119 -230t-331 -82q-41 0 -91 2t-110 2q-99 0 -233 -3l-4 41l115 34q23 8 25 31q2 39 2 131v534q0 118 -2 164q-2 28 -25 35l-115 35l-2 41 q137 -4 235 -4zM433 510v-430q22 -8 52 -10t55 -2q125 0 189.5 58.5t64.5 168.5q0 111 -65 164t-212 53q-43 0 -84 -2zM433 585q45 -1 92 -1q109 0 163 50t54 146q0 101 -56 145t-164 44q-16 0 -39.5 -1t-49.5 -3v-380z" />
<glyph horiz-adv-x="1113" d="M963 712l-38 -6l-69 249q-93 29 -170 29q-182 0 -287 -122.5t-105 -317.5q0 -210 126.5 -334.5t348.5 -124.5q125 0 265 58l9 -43q-160 -128 -365 -128q-264 0 -426 147.5t-162 388.5q0 256 178 406t465 150q137 0 282 -39l6 -7z" />
<glyph horiz-adv-x="1298" d="M345 0q-99 0 -233 -3l-4 41l115 34q23 8 25 31q2 39 2 131v534q0 118 -2 164q-2 28 -25 35l-115 35l-2 41q137 -4 235 -4q79 0 154 4t153 4q282 0 423 -119.5t141 -352.5q0 -275 -156 -427t-438 -152q-79 0 -140 2t-133 2zM435 84q44 -6 86.5 -8.5t83.5 -2.5 q196 0 299.5 112t103.5 342q0 223 -98 331t-309 108q-32 0 -73 -1t-93 -5v-876z" />
<glyph horiz-adv-x="1057" d="M341 1039h212q185 0 388 3l8 -7l-55 -281l-39 -6l-55 207h-365v-384h51q71 0 160 1q27 1 35 25l27 112l51 1q-2 -114 -2 -178q0 -61 2 -176l-51 -4l-29 114q-7 25 -32 26q-89 1 -160 1h-52v-203q0 -104 2 -206h370l109 230l42 6l-20 -317l-5 -6q-215 3 -393 3h-195 q-99 0 -233 -3l-4 41l115 34q23 8 25 31q2 39 2 131v534q0 118 -2 164q-2 28 -25 35l-115 35l-2 41q137 -4 235 -4z" />
<glyph horiz-adv-x="998" d="M341 1039h200q185 0 389 3l7 -7l-53 -281l-39 -6l-56 207h-354v-402h52q71 0 160 1q27 1 35 26l27 111l51 1q-2 -113 -2 -178q0 -60 2 -176l-51 -4l-29 114q-7 26 -32 27q-89 1 -160 1h-53v-201q0 -119 2 -165q2 -27 26 -34l126 -38l2 -41q-148 3 -246 3q-99 0 -233 -3 l-4 41l115 34q23 8 25 31q2 39 2 131v534q0 118 -2 164q-2 28 -25 35l-115 35l-2 41q137 -4 235 -4z" />
<glyph horiz-adv-x="1205" d="M969 723l-38 -6l-66 238q-94 30 -173 30q-188 0 -293 -122.5t-105 -337.5q0 -218 114 -346.5t306 -128.5q65 0 127 21v122q0 47 -0.5 86t-0.5 71q-1 25 -23 32l-118 37l-2 40q123 -2 235 -2t220 2l3 -40l-102 -32q-23 -6 -25 -28q-1 -38 -1.5 -77t-0.5 -85v-173l-5 -7 q-167 -45 -306 -45q-286 0 -455.5 139t-169.5 389q0 264 175 414.5t478 150.5q132 0 276 -39l5 -6z" />
<glyph horiz-adv-x="1412" d="M1164 107q2 -27 25 -35l116 -34l2 -41q-138 3 -235 3q-99 0 -218 -3l-4 41l100 29q23 8 25 31q2 38 2 131v279h-542v-240q0 -120 2 -166q2 -27 26 -35l99 -29l2 -41q-121 3 -219 3q-99 0 -233 -3l-4 41l115 34q23 8 25 31q2 39 2 131v534q0 118 -2 164q-2 28 -25 35 l-115 35l-2 41q137 -4 235 -4t217 4l4 -41l-99 -30q-24 -7 -26 -30q-2 -39 -2 -131v-215h542v176q0 119 -2 166q-2 27 -25 34l-100 30l-2 41q122 -4 219 -4q99 0 233 4l5 -41l-116 -35q-23 -7 -25 -30q-2 -39 -2 -132v-532q0 -120 2 -166z" />
<glyph horiz-adv-x="685" d="M341 1039q98 0 233 4l4 -41l-115 -35q-24 -7 -26 -30q-2 -39 -2 -132v-533q0 -119 2 -165q2 -27 26 -35l115 -34l2 -41q-137 3 -235 3q-99 0 -233 -3l-4 41l115 34q23 8 25 31q2 39 2 131v534q0 118 -2 164q-2 28 -25 35l-115 35l-2 41q137 -4 235 -4z" />
<glyph horiz-adv-x="655" d="M425 805v-593q0 -93 -7.5 -169.5t-25.5 -135.5t-50 -106t-82 -83.5t-121.5 -64t-169.5 -50.5l-15 48q99 41 155.5 91.5t85.5 114.5t37 145t8 183v583q0 118 -2 164q-2 28 -25 35l-116 35l-2 41q138 -4 235 -4q99 0 233 4l5 -41l-116 -35q-23 -7 -25 -30q-2 -39 -2 -132z " />
<glyph horiz-adv-x="1191" d="M435 780v-490q0 -57 0.5 -103t1.5 -84q0 -24 24 -33l105 -32l2 -41q-112 3 -224 3q-114 0 -235 -3l-4 41l117 34q24 8 26 30q1 38 1.5 84.5t0.5 103.5v487q0 47 -0.5 86t-1.5 70q-2 26 -23 32l-118 37l-2 41q123 -4 235 -4q113 0 225 4l3 -41l-107 -33q-22 -4 -24 -28 q-1 -35 -1.5 -74.5t-0.5 -86.5zM459 523l261 291q44 50 71.5 84t27.5 55q0 18 -25 27l-78 21l-2 42q92 -4 202 -4q116 0 213 4l4 -41l-96 -30q-43 -13 -75.5 -42.5t-69.5 -69.5l-256 -277l323 -427q28 -36 53.5 -57.5t70.5 -34.5l86 -26l2 -41q-81 3 -202 3q-33 0 -66 -0.5 t-66 -1.5q-17 33 -60 97.5t-116 158.5z" />
<glyph horiz-adv-x="1000" d="M341 1039q98 0 233 4l4 -41l-115 -35q-24 -7 -26 -30q-2 -39 -2 -132v-514q0 -104 1 -206h372l119 246l43 6l-21 -334l-8 -6q-212 3 -390 3h-206q-99 0 -233 -3l-4 41l115 34q23 8 25 31q2 39 2 131v534q0 118 -2 164q-2 28 -25 35l-115 35l-2 41q137 -4 235 -4z" />
<glyph horiz-adv-x="1555" d="M1112 1043q73 -4 145 -4q70 0 188 4l4 -41l-119 -37q-22 -6 -23 -32q-2 -62 -2 -156v-487q0 -112 2 -188q1 -21 26 -30l114 -34l2 -41q-125 3 -239 3q-112 0 -220 -3l-4 41l108 32q23 8 24 34q2 74 2 186v538l-368 -828l-59 -8l-367 836v-538q0 -112 2 -186q1 -26 25 -34 l106 -32l2 -41q-113 3 -188 3q-66 0 -188 -3l-3 41l115 34q25 9 26 30q2 76 2 188v487q0 94 -2 156q-1 26 -23 32l-117 37l-1 41q121 -4 183 -4q82 0 170 4l340 -756z" />
<glyph horiz-adv-x="1291" d="M327 786v-496q0 -112 2 -185q1 -26 24 -33l112 -32l2 -43q-118 3 -193 3q-67 0 -189 -3l-3 41l115 34q25 9 26 30q2 76 2 188v487q0 94 -2 156q-1 26 -23 32l-117 37l-1 41q121 -4 184 -4q39 0 82 4l626 -730v467q0 93 -2 159q0 22 -24 28l-111 34l-3 42q121 -4 196 -4 q68 0 187 4l4 -41l-120 -37q-22 -6 -23 -32q-2 -62 -2 -156v-777l-71 -8z" />
<glyph horiz-adv-x="1316" d="M298 531q0 -234 94 -358.5t277 -124.5q180 0 265.5 113t85.5 355q0 226 -90.5 348.5t-279.5 122.5q-185 0 -268.5 -113t-83.5 -343zM1228 541q0 -258 -154.5 -413.5t-431.5 -155.5q-263 0 -407.5 144t-144.5 390q0 257 156 407.5t430 150.5q264 0 408 -140.5t144 -382.5z " />
<glyph horiz-adv-x="1041" d="M435 501q52 -9 103 -9q118 0 180.5 60t62.5 183q0 119 -59 176.5t-186 57.5q-50 0 -101 -5v-463zM424 290q0 -57 0.5 -102t1.5 -81q0 -22 21 -29l113 -40l1 -41q-119 3 -216 3q-114 0 -235 -3l-4 41l116 34q25 9 26 30q1 38 1.5 84.5t0.5 103.5v487q0 47 -0.5 86t-1.5 70 q-1 26 -23 32l-117 37l-2 41q122 -4 238 -4q67 0 130.5 4t114.5 4q193 0 292.5 -71.5t99.5 -212.5q0 -165 -115 -256t-320 -91q-57 0 -122 9v-135z" />
<glyph horiz-adv-x="1310" d="M1221 543q0 -234 -128 -385.5t-348 -177.5q79 -218 396 -218q129 0 229 40l13 -44q-196 -150 -309 -150q-347 0 -447 365q-254 3 -395.5 145.5t-141.5 390.5q0 257 155 407.5t428 150.5q262 0 405 -140.5t143 -383.5zM295 533q0 -234 94.5 -358.5t276.5 -124.5 q180 0 265 113.5t85 354.5q0 227 -90.5 349t-281.5 122q-183 0 -266 -113.5t-83 -342.5z" />
<glyph horiz-adv-x="1148" d="M435 290q0 -57 0.5 -102t1.5 -82q0 -29 25 -37l105 -31l2 -41q-113 3 -224 3q-114 0 -235 -3l-4 41l116 34q24 8 26 30q1 38 1.5 84.5t0.5 103.5v487q0 47 -0.5 86t-1.5 70q-1 26 -23 32l-117 37l-2 41q122 -4 238 -4q19 0 50 1.5t75 3.5t73.5 3t47.5 1q189 0 283 -66 t94 -191q0 -113 -58.5 -179.5t-175.5 -105.5q65 -97 113.5 -177t85.5 -134t67 -86q17 -17 33 -28.5t33.5 -19t36 -13.5t41.5 -11l5 -42q-68 -8 -114 -8q-39 0 -68 2.5t-52 7.5t-41.5 14t-36.5 23q-38 30 -76 85t-82 136.5t-84 143.5q-14 22 -24 35.5t-22 21t-27 10.5t-41 4 l-45 1v-181zM435 543q44 -3 84 -3q129 0 189 53t60 166q0 109 -57 159.5t-180 50.5q-21 0 -44.5 -1.5t-51.5 -3.5v-421z" />
<glyph horiz-adv-x="888" d="M625 958q-83 27 -149 27q-102 0 -160.5 -45t-58.5 -120q0 -46 18.5 -79t52.5 -58.5t82.5 -46.5t107.5 -44q58 -23 111 -48t94 -59t65.5 -79.5t24.5 -111.5q0 -146 -117.5 -230t-308.5 -84q-123 0 -297 53l-5 6l44 311l43 6l64 -266q85 -33 168 -33q112 0 173.5 44.5 t61.5 129.5q0 45 -18.5 77t-51.5 57t-80 44.5t-103 43.5q-59 24 -112.5 49.5t-94.5 61.5t-66 84t-25 118q0 140 106 216.5t281 76.5q140 0 294 -34l6 -8l-51 -281l-38 -6z" />
<glyph horiz-adv-x="1105" d="M554 0q-116 0 -246 -3l-4 41l129 38q24 6 25 29q2 71 2 183v669h-271l-85 -252l-38 -7l-24 338l6 7q233 -4 446 -4h127q212 0 447 4l6 -7l-60 -331l-37 -7l-60 259h-272v-669q0 -112 2 -183q1 -23 24 -29l130 -38l2 -41q-136 3 -249 3z" />
<glyph horiz-adv-x="1269" d="M57 1043q121 -4 234 -4t234 4l4 -41l-117 -27q-23 -4 -25 -22q-1 -25 -1.5 -55.5t-0.5 -64.5v-388q0 -208 68 -291.5t218 -83.5q153 0 221.5 87t68.5 279v397q0 34 -0.5 64.5t-1.5 55.5q-1 17 -25 22l-111 26l-2 42q120 -4 203 -4q77 0 196 4l3 -41l-118 -29 q-23 -5 -24 -25q-1 -24 -1.5 -54.5t-0.5 -67.5v-372q0 -243 -106 -362.5t-336 -119.5q-223 0 -330 108t-107 328v418q0 37 -0.5 67.5t-1.5 54.5q-1 20 -23 25l-117 29z" />
<glyph horiz-adv-x="1114" d="M498 -8l-335 861q-24 62 -44 87t-61 36l-89 26l-2 41q93 -4 219 -4q128 0 265 4l4 -41l-89 -24q-19 -6 -27.5 -15t-8.5 -25q0 -19 10.5 -51t30.5 -83l224 -570l239 569q21 53 33.5 85t12.5 51q0 16 -8.5 24t-26.5 13l-90 25l-2 42q104 -4 209 -4t201 4l4 -41l-99 -30 q-34 -9 -52 -31t-47 -88l-375 -853z" />
<glyph horiz-adv-x="1630" d="M1050 -8l-240 737l-250 -729l-96 -8l-310 881q-16 44 -34 68.5t-55 34.5l-87 26l-2 41q93 -4 220 -4q114 0 259 4l4 -41l-89 -24q-20 -6 -28.5 -15.5t-8.5 -26.5q0 -19 8 -50t26 -82l189 -538l254 773l85 8l250 -789l197 545q20 54 28 86.5t8 50.5q0 17 -8.5 24t-27.5 12 l-88 25l-2 42q102 -4 206 -4q103 0 199 4l3 -41l-94 -30q-29 -8 -45 -26.5t-33 -62.5l-342 -883z" />
<glyph horiz-adv-x="1113" d="M12 1043q105 -4 255 -4q124 0 259 4l4 -41l-86 -22q-20 -6 -28 -15.5t-8 -22.5q0 -23 18 -53.5t40 -62.5l124 -178l98 145q15 22 48.5 71t33.5 76t-38 38l-88 23l-2 42q104 -4 217 -4q117 0 212 4l4 -41l-97 -30q-36 -10 -60 -33.5t-61 -78.5l-209 -295l273 -394 q44 -64 65 -81.5t53 -25.5l88 -26l2 -41q-102 3 -243 3q-123 0 -270 -3l-5 41l85 23q20 4 28.5 13.5t8.5 24.5q0 22 -18.5 52.5t-40.5 61.5l-158 229l-130 -194q-30 -44 -55 -83t-25 -64q0 -15 9 -24.5t29 -13.5l85 -23l2 -43q-104 3 -220 3q-101 0 -208 -3l-3 41l99 29 q37 12 59.5 34.5t54.5 67.5l247 352l-249 360q-30 46 -50 65t-58 30l-89 26z" />
<glyph horiz-adv-x="1062" d="M583 538l151 267q26 47 43 79t17 53q0 28 -42 41l-84 23l-3 42q103 -4 209 -4q103 0 201 4l4 -41l-99 -30q-36 -10 -55 -32.5t-38 -56.5l-257 -438v-152q0 -57 0.5 -103t0.5 -84q1 -23 33 -33l118 -35l2 -41q-133 3 -246 3t-243 -3l-4 41l126 38q24 7 26 29 q1 38 1.5 84.5t0.5 103.5v132l-258 432q-37 58 -60 83t-61 36l-89 26l-2 41q86 -4 232 -4q128 0 264 4l4 -41l-90 -23q-20 -6 -28.5 -15t-8.5 -22q0 -20 16.5 -49t40.5 -67z" />
<glyph horiz-adv-x="1027" d="M79 -3l-3 41l613 917h-445l-71 -225l-37 -7l-49 312l7 8q181 -4 343 -4h168q187 0 322 4l4 -41l-611 -917h462l127 253l42 7l-25 -341l-6 -7q-159 3 -364 3h-125q-206 0 -352 -3z" />
<glyph horiz-adv-x="1121" d="M242 103q0 -16 9 -24.5t26 -13.5l89 -25l2 -43q-135 3 -209 3q-87 0 -192 -3l-5 41l97 29q35 11 54 35q16 22 37 73l375 871l88 13l324 -871q24 -66 42 -89q19 -22 56 -34l90 -27l2 -41q-123 3 -229 3q-109 0 -255 -3l-3 41l89 27q19 5 27.5 13.5t8.5 25.5q0 19 -10 50 t-29 81l-45 123h-347l-48 -122q-21 -53 -32.5 -84t-11.5 -49zM517 813l-148 -370h281zM618 1139h-69l-237 373h200zM140 1022z" />
<glyph horiz-adv-x="1121" d="M242 103q0 -16 9 -24.5t26 -13.5l89 -25l2 -43q-135 3 -209 3q-87 0 -192 -3l-5 41l97 29q35 11 54 35q16 22 37 73l375 871l88 13l324 -871q24 -66 42 -89q19 -22 56 -34l90 -27l2 -41q-123 3 -229 3q-109 0 -255 -3l-3 41l89 27q19 5 27.5 13.5t8.5 25.5q0 19 -10 50 t-29 81l-45 123h-347l-48 -122q-21 -53 -32.5 -84t-11.5 -49zM517 813l-148 -370h281zM608 1512h200l-238 -373h-68zM140 1023z" />
<glyph horiz-adv-x="1121" d="M242 103q0 -16 9 -24.5t26 -13.5l89 -25l2 -43q-135 3 -209 3q-87 0 -192 -3l-5 41l97 29q35 11 54 35q16 22 37 73l375 871l88 13l324 -871q24 -66 42 -89q19 -22 56 -34l90 -27l2 -41q-123 3 -229 3q-109 0 -255 -3l-3 41l89 27q19 5 27.5 13.5t8.5 25.5q0 19 -10 50 t-29 81l-45 123h-347l-48 -122q-21 -53 -32.5 -84t-11.5 -49zM517 813l-148 -370h281zM850 1139h-76l-216 226l-216 -226h-72l216 373h147zM140 1023z" />
<glyph horiz-adv-x="1121" d="M242 103q0 -16 9 -24.5t26 -13.5l89 -25l2 -43q-135 3 -209 3q-87 0 -192 -3l-5 41l97 29q35 11 54 35q16 22 37 73l375 871l88 13l324 -871q24 -66 42 -89q19 -22 56 -34l90 -27l2 -41q-123 3 -229 3q-109 0 -255 -3l-3 41l89 27q19 5 27.5 13.5t8.5 25.5q0 19 -10 50 t-29 81l-45 123h-347l-48 -122q-21 -53 -32.5 -84t-11.5 -49zM517 813l-148 -370h281zM908 1382q-118 -207 -232 -207q-38 0 -70.5 15t-71.5 39q-38 21 -61.5 34t-49.5 13q-29 0 -54.5 -17.5t-84.5 -82.5l-52 41q72 111 122 156.5t106 45.5q32 0 58.5 -10.5t76.5 -39.5 q45 -25 69.5 -38t51.5 -13q32 0 55.5 17t81.5 83zM140 988z" />
<glyph horiz-adv-x="1121" d="M242 103q0 -16 9 -24.5t26 -13.5l89 -25l2 -43q-135 3 -209 3q-87 0 -192 -3l-5 41l97 29q35 11 54 35q16 22 37 73l375 871l88 13l324 -871q24 -66 42 -89q19 -22 56 -34l90 -27l2 -41q-123 3 -229 3q-109 0 -255 -3l-3 41l89 27q19 5 27.5 13.5t8.5 25.5q0 19 -10 50 t-29 81l-45 123h-347l-48 -122q-21 -53 -32.5 -84t-11.5 -49zM517 813l-148 -370h281zM478 1304q0 -51 -31.5 -82.5t-81.5 -31.5q-48 0 -77.5 29t-29.5 78q0 52 31.5 82t82.5 30q47 0 76.5 -27.5t29.5 -77.5zM862 1304q0 -51 -31.5 -82.5t-81.5 -31.5q-47 0 -77 29t-30 78 q0 52 31.5 82t82.5 30q48 0 77 -27.5t29 -77.5zM140 928z" />
<glyph horiz-adv-x="1121" d="M242 103q0 -16 9 -24.5t26 -13.5l89 -25l2 -43q-135 3 -209 3q-87 0 -192 -3l-5 41l97 29q35 11 54 35q16 22 37 73l375 871l88 13l324 -871q24 -66 42 -89q19 -22 56 -34l90 -27l2 -41q-123 3 -229 3q-109 0 -255 -3l-3 41l89 27q19 5 27.5 13.5t8.5 25.5q0 19 -10 50 t-29 81l-45 123h-347l-48 -122q-21 -53 -32.5 -84t-11.5 -49zM517 813l-148 -370h281zM555 1139q-99 0 -158.5 47t-59.5 133q0 90 67 145t161 55q93 0 155.5 -51.5t62.5 -137.5q0 -87 -64.5 -139t-163.5 -52zM560 1200q50 0 81.5 29t31.5 93q0 63 -31 99.5t-82 36.5 t-82 -30.5t-31 -94.5q0 -63 31.5 -98t81.5 -35zM140 1023z" />
<glyph horiz-adv-x="1530" d="M624 1039h402q185 0 388 3l8 -7l-55 -281l-39 -6l-55 207h-345v-394h31q71 0 160 1q27 1 35 25l27 112l51 1q-2 -114 -2 -178q0 -61 2 -176l-51 -4l-29 114q-7 25 -32 26q-89 1 -160 1h-32v-193q0 -104 2 -206h350l109 230l42 6l-20 -317l-5 -6q-215 3 -393 3h-175 q-114 0 -234 -3l-4 41l116 35q24 6 26 29q0 38 0.5 84.5t0.5 103.5v192h-308l-123 -246q-19 -37 -34.5 -70.5t-15.5 -57.5q0 -15 8 -26t28 -17l87 -25l2 -43q-138 3 -226 3q-43 0 -95 -0.5t-104 -2.5l-5 41l95 29q36 12 55 30.5t50 77.5l397 751q12 23 -17 32l-145 44l-2 41 q122 -4 234 -4zM743 561v394h-70l-198 -394h268z" />
<glyph horiz-adv-x="1113" d="M498 -190l126 164q-242 15 -388 160t-146 374q0 256 178 406t465 150q137 0 282 -39l6 -7l-58 -306l-38 -6l-69 249q-93 29 -170 29q-182 0 -287 -122.5t-105 -317.5q0 -210 126.5 -334.5t348.5 -124.5q125 0 265 58l9 -43q-147 -118 -333 -127l-61 -82q120 -44 120 -126 q0 -110 -209 -251l-35 38q98 80 98 147q0 73 -121 104z" />
<glyph horiz-adv-x="1298" d="M345 0q-99 0 -233 -3l-4 41l115 34q23 8 25 31q2 39 2 131v271h-143v86h143v177q0 118 -2 164q-2 28 -25 35l-115 35l-2 41q137 -4 235 -4q79 0 154 4t153 4q282 0 423 -119.5t141 -352.5q0 -275 -156 -427t-438 -152q-79 0 -140 2t-133 2zM435 84q44 -6 86.5 -8.5 t83.5 -2.5q196 0 299.5 112t103.5 342q0 223 -98 331t-309 108q-32 0 -73 -1t-93 -5v-369h247v-86h-247v-421z" />
<glyph horiz-adv-x="1057" d="M341 1039h212q185 0 388 3l8 -7l-55 -281l-39 -6l-55 207h-365v-384h51q71 0 160 1q27 1 35 25l27 112l51 1q-2 -114 -2 -178q0 -61 2 -176l-51 -4l-29 114q-7 25 -32 26q-89 1 -160 1h-52v-203q0 -104 2 -206h370l109 230l42 6l-20 -317l-5 -6q-215 3 -393 3h-195 q-99 0 -233 -3l-4 41l115 34q23 8 25 31q2 39 2 131v534q0 118 -2 164q-2 28 -25 35l-115 35l-2 41q137 -4 235 -4zM618 1139h-69l-237 373h200zM140 1022z" />
<glyph horiz-adv-x="1057" d="M341 1039h212q185 0 388 3l8 -7l-55 -281l-39 -6l-55 207h-365v-384h51q71 0 160 1q27 1 35 25l27 112l51 1q-2 -114 -2 -178q0 -61 2 -176l-51 -4l-29 114q-7 25 -32 26q-89 1 -160 1h-52v-203q0 -104 2 -206h370l109 230l42 6l-20 -317l-5 -6q-215 3 -393 3h-195 q-99 0 -233 -3l-4 41l115 34q23 8 25 31q2 39 2 131v534q0 118 -2 164q-2 28 -25 35l-115 35l-2 41q137 -4 235 -4zM608 1512h200l-238 -373h-68zM140 1023z" />
<glyph horiz-adv-x="1057" d="M341 1039h212q185 0 388 3l8 -7l-55 -281l-39 -6l-55 207h-365v-384h51q71 0 160 1q27 1 35 25l27 112l51 1q-2 -114 -2 -178q0 -61 2 -176l-51 -4l-29 114q-7 25 -32 26q-89 1 -160 1h-52v-203q0 -104 2 -206h370l109 230l42 6l-20 -317l-5 -6q-215 3 -393 3h-195 q-99 0 -233 -3l-4 41l115 34q23 8 25 31q2 39 2 131v534q0 118 -2 164q-2 28 -25 35l-115 35l-2 41q137 -4 235 -4zM850 1139h-76l-216 226l-216 -226h-72l216 373h147zM140 1023z" />
<glyph horiz-adv-x="1057" d="M341 1039h212q185 0 388 3l8 -7l-55 -281l-39 -6l-55 207h-365v-384h51q71 0 160 1q27 1 35 25l27 112l51 1q-2 -114 -2 -178q0 -61 2 -176l-51 -4l-29 114q-7 25 -32 26q-89 1 -160 1h-52v-203q0 -104 2 -206h370l109 230l42 6l-20 -317l-5 -6q-215 3 -393 3h-195 q-99 0 -233 -3l-4 41l115 34q23 8 25 31q2 39 2 131v534q0 118 -2 164q-2 28 -25 35l-115 35l-2 41q137 -4 235 -4zM478 1304q0 -51 -31.5 -82.5t-81.5 -31.5q-48 0 -77.5 29t-29.5 78q0 52 31.5 82t82.5 30q47 0 76.5 -27.5t29.5 -77.5zM862 1304q0 -51 -31.5 -82.5 t-81.5 -31.5q-47 0 -77 29t-30 78q0 52 31.5 82t82.5 30q48 0 77 -27.5t29 -77.5zM140 928z" />
<glyph horiz-adv-x="685" d="M341 1039q98 0 233 4l4 -41l-115 -35q-24 -7 -26 -30q-2 -39 -2 -132v-533q0 -119 2 -165q2 -27 26 -35l115 -34l2 -41q-137 3 -235 3q-99 0 -233 -3l-4 41l115 34q23 8 25 31q2 39 2 131v534q0 118 -2 164q-2 28 -25 35l-115 35l-2 41q137 -4 235 -4zM401 1139h-69 l-237 373h200zM-77 1022z" />
<glyph horiz-adv-x="685" d="M341 1039q98 0 233 4l4 -41l-115 -35q-24 -7 -26 -30q-2 -39 -2 -132v-533q0 -119 2 -165q2 -27 26 -35l115 -34l2 -41q-137 3 -235 3q-99 0 -233 -3l-4 41l115 34q23 8 25 31q2 39 2 131v534q0 118 -2 164q-2 28 -25 35l-115 35l-2 41q137 -4 235 -4zM391 1512h200 l-238 -373h-68zM-77 1023z" />
<glyph horiz-adv-x="685" d="M341 1039q98 0 233 4l4 -41l-115 -35q-24 -7 -26 -30q-2 -39 -2 -132v-533q0 -119 2 -165q2 -27 26 -35l115 -34l2 -41q-137 3 -235 3q-99 0 -233 -3l-4 41l115 34q23 8 25 31q2 39 2 131v534q0 118 -2 164q-2 28 -25 35l-115 35l-2 41q137 -4 235 -4zM633 1139h-76 l-216 226l-216 -226h-72l216 373h147zM-77 1023z" />
<glyph horiz-adv-x="685" d="M341 1039q98 0 233 4l4 -41l-115 -35q-24 -7 -26 -30q-2 -39 -2 -132v-533q0 -119 2 -165q2 -27 26 -35l115 -34l2 -41q-137 3 -235 3q-99 0 -233 -3l-4 41l115 34q23 8 25 31q2 39 2 131v534q0 118 -2 164q-2 28 -25 35l-115 35l-2 41q137 -4 235 -4zM261 1304 q0 -51 -31.5 -82.5t-81.5 -31.5q-48 0 -77.5 29t-29.5 78q0 52 31.5 82t82.5 30q47 0 76.5 -27.5t29.5 -77.5zM645 1304q0 -51 -31.5 -82.5t-81.5 -31.5q-47 0 -77 29t-30 78q0 52 31.5 82t82.5 30q48 0 77 -27.5t29 -77.5zM-77 928z" />
<glyph horiz-adv-x="685" d="M458 1304q0 -53 -33 -86.5t-85 -33.5q-50 0 -81.5 31t-31.5 82q0 54 33.5 85.5t86.5 31.5q50 0 80.5 -28.5t30.5 -81.5zM-77 928zM341 1039q98 0 233 4l4 -41l-115 -35q-24 -7 -26 -30q-2 -39 -2 -132v-533q0 -119 2 -165q2 -27 26 -35l115 -34l2 -41q-137 3 -235 3 q-99 0 -233 -3l-4 41l115 34q23 8 25 31q2 39 2 131v534q0 118 -2 164q-2 28 -25 35l-115 35l-2 41q137 -4 235 -4z" />
<glyph horiz-adv-x="1291" d="M327 786v-496q0 -112 2 -185q1 -26 24 -33l112 -32l2 -43q-118 3 -193 3q-67 0 -189 -3l-3 41l115 34q25 9 26 30q2 76 2 188v487q0 94 -2 156q-1 26 -23 32l-117 37l-1 41q121 -4 184 -4q39 0 82 4l626 -730v467q0 93 -2 159q0 22 -24 28l-111 34l-3 42q121 -4 196 -4 q68 0 187 4l4 -41l-120 -37q-22 -6 -23 -32q-2 -62 -2 -156v-777l-71 -8zM998 1382q-118 -207 -232 -207q-38 0 -70.5 15t-71.5 39q-38 21 -61.5 34t-49.5 13q-29 0 -54.5 -17.5t-84.5 -82.5l-52 41q72 111 122 156.5t106 45.5q32 0 58.5 -10.5t76.5 -39.5q45 -25 69.5 -38 t51.5 -13q32 0 55.5 17t81.5 83zM230 988z" />
<glyph horiz-adv-x="1316" d="M298 531q0 -234 94 -358.5t277 -124.5q180 0 265.5 113t85.5 355q0 226 -90.5 348.5t-279.5 122.5q-185 0 -268.5 -113t-83.5 -343zM1228 541q0 -258 -154.5 -413.5t-431.5 -155.5q-263 0 -407.5 144t-144.5 390q0 257 156 407.5t430 150.5q264 0 408 -140.5t144 -382.5z M716 1139h-69l-237 373h200zM238 1022z" />
<glyph horiz-adv-x="1316" d="M298 531q0 -234 94 -358.5t277 -124.5q180 0 265.5 113t85.5 355q0 226 -90.5 348.5t-279.5 122.5q-185 0 -268.5 -113t-83.5 -343zM1228 541q0 -258 -154.5 -413.5t-431.5 -155.5q-263 0 -407.5 144t-144.5 390q0 257 156 407.5t430 150.5q264 0 408 -140.5t144 -382.5z M706 1512h200l-238 -373h-68zM238 1023z" />
<glyph horiz-adv-x="1316" d="M298 531q0 -234 94 -358.5t277 -124.5q180 0 265.5 113t85.5 355q0 226 -90.5 348.5t-279.5 122.5q-185 0 -268.5 -113t-83.5 -343zM1228 541q0 -258 -154.5 -413.5t-431.5 -155.5q-263 0 -407.5 144t-144.5 390q0 257 156 407.5t430 150.5q264 0 408 -140.5t144 -382.5z M948 1139h-76l-216 226l-216 -226h-72l216 373h147zM238 1023z" />
<glyph horiz-adv-x="1316" d="M298 531q0 -234 94 -358.5t277 -124.5q180 0 265.5 113t85.5 355q0 226 -90.5 348.5t-279.5 122.5q-185 0 -268.5 -113t-83.5 -343zM1228 541q0 -258 -154.5 -413.5t-431.5 -155.5q-263 0 -407.5 144t-144.5 390q0 257 156 407.5t430 150.5q264 0 408 -140.5t144 -382.5z M1006 1382q-118 -207 -232 -207q-38 0 -70.5 15t-71.5 39q-38 21 -61.5 34t-49.5 13q-29 0 -54.5 -17.5t-84.5 -82.5l-52 41q72 111 122 156.5t106 45.5q32 0 58.5 -10.5t76.5 -39.5q45 -25 69.5 -38t51.5 -13q32 0 55.5 17t81.5 83zM238 988z" />
<glyph horiz-adv-x="1316" d="M298 531q0 -234 94 -358.5t277 -124.5q180 0 265.5 113t85.5 355q0 226 -90.5 348.5t-279.5 122.5q-185 0 -268.5 -113t-83.5 -343zM1228 541q0 -258 -154.5 -413.5t-431.5 -155.5q-263 0 -407.5 144t-144.5 390q0 257 156 407.5t430 150.5q264 0 408 -140.5t144 -382.5z M576 1304q0 -51 -31.5 -82.5t-81.5 -31.5q-48 0 -77.5 29t-29.5 78q0 52 31.5 82t82.5 30q47 0 76.5 -27.5t29.5 -77.5zM960 1304q0 -51 -31.5 -82.5t-81.5 -31.5q-47 0 -77 29t-30 78q0 52 31.5 82t82.5 30q48 0 77 -27.5t29 -77.5zM238 928z" />
<glyph horiz-adv-x="1316" d="M1228 541q0 -258 -154.5 -413.5t-431.5 -155.5q-176 0 -298 64l-86 -112l-62 48l81 106q-187 148 -187 428q0 257 156 407.5t430 150.5q181 0 306 -67l72 95l66 -43l-72 -94q180 -143 180 -414zM296 531q0 -209 75 -330l533 695q-90 91 -254 91q-186 0 -270 -113 t-84 -343zM669 48q181 0 267 113t86 355q0 197 -69 315l-532 -694q92 -89 248 -89z" />
<glyph horiz-adv-x="1674" d="M883 1039h286q185 0 389 3l7 -7l-54 -281l-39 -6l-56 207h-364v-384h50q72 0 161 1q26 1 34 25l28 112l50 1q-2 -114 -2 -178q0 -61 2 -176l-50 -4l-30 114q-7 25 -31 26q-89 1 -161 1h-51v-203q0 -104 2 -206h369l110 230l42 6l-20 -317l-6 -6q-220 3 -400 3h-269 q-106 -27 -237 -27q-263 0 -408 143t-145 390q0 257 157 407.5t434 150.5q108 0 202 -25zM663 987q-192 0 -278.5 -113.5t-86.5 -343.5q0 -234 97.5 -357.5t287.5 -123.5q107 0 182 35q2 78 2 152v583q0 66 -2 122q-82 46 -202 46z" />
<glyph horiz-adv-x="1269" d="M57 1043q121 -4 234 -4t234 4l4 -41l-117 -27q-23 -4 -25 -22q-1 -25 -1.5 -55.5t-0.5 -64.5v-388q0 -208 68 -291.5t218 -83.5q153 0 221.5 87t68.5 279v397q0 34 -0.5 64.5t-1.5 55.5q-1 17 -25 22l-111 26l-2 42q120 -4 203 -4q77 0 196 4l3 -41l-118 -29 q-23 -5 -24 -25q-1 -24 -1.5 -54.5t-0.5 -67.5v-372q0 -243 -106 -362.5t-336 -119.5q-223 0 -330 108t-107 328v418q0 37 -0.5 67.5t-1.5 54.5q-1 20 -23 25l-117 29zM718 1139h-69l-237 373h200zM240 1022z" />
<glyph horiz-adv-x="1269" d="M57 1043q121 -4 234 -4t234 4l4 -41l-117 -27q-23 -4 -25 -22q-1 -25 -1.5 -55.5t-0.5 -64.5v-388q0 -208 68 -291.5t218 -83.5q153 0 221.5 87t68.5 279v397q0 34 -0.5 64.5t-1.5 55.5q-1 17 -25 22l-111 26l-2 42q120 -4 203 -4q77 0 196 4l3 -41l-118 -29 q-23 -5 -24 -25q-1 -24 -1.5 -54.5t-0.5 -67.5v-372q0 -243 -106 -362.5t-336 -119.5q-223 0 -330 108t-107 328v418q0 37 -0.5 67.5t-1.5 54.5q-1 20 -23 25l-117 29zM708 1512h200l-238 -373h-68zM240 1023z" />
<glyph horiz-adv-x="1269" d="M57 1043q121 -4 234 -4t234 4l4 -41l-117 -27q-23 -4 -25 -22q-1 -25 -1.5 -55.5t-0.5 -64.5v-388q0 -208 68 -291.5t218 -83.5q153 0 221.5 87t68.5 279v397q0 34 -0.5 64.5t-1.5 55.5q-1 17 -25 22l-111 26l-2 42q120 -4 203 -4q77 0 196 4l3 -41l-118 -29 q-23 -5 -24 -25q-1 -24 -1.5 -54.5t-0.5 -67.5v-372q0 -243 -106 -362.5t-336 -119.5q-223 0 -330 108t-107 328v418q0 37 -0.5 67.5t-1.5 54.5q-1 20 -23 25l-117 29zM950 1139h-76l-216 226l-216 -226h-72l216 373h147zM240 1023z" />
<glyph horiz-adv-x="1269" d="M57 1043q121 -4 234 -4t234 4l4 -41l-117 -27q-23 -4 -25 -22q-1 -25 -1.5 -55.5t-0.5 -64.5v-388q0 -208 68 -291.5t218 -83.5q153 0 221.5 87t68.5 279v397q0 34 -0.5 64.5t-1.5 55.5q-1 17 -25 22l-111 26l-2 42q120 -4 203 -4q77 0 196 4l3 -41l-118 -29 q-23 -5 -24 -25q-1 -24 -1.5 -54.5t-0.5 -67.5v-372q0 -243 -106 -362.5t-336 -119.5q-223 0 -330 108t-107 328v418q0 37 -0.5 67.5t-1.5 54.5q-1 20 -23 25l-117 29zM578 1304q0 -51 -31.5 -82.5t-81.5 -31.5q-48 0 -77.5 29t-29.5 78q0 52 31.5 82t82.5 30 q47 0 76.5 -27.5t29.5 -77.5zM962 1304q0 -51 -31.5 -82.5t-81.5 -31.5q-47 0 -77 29t-30 78q0 52 31.5 82t82.5 30q48 0 77 -27.5t29 -77.5zM240 928z" />
<glyph horiz-adv-x="1062" d="M583 538l151 267q26 47 43 79t17 53q0 28 -42 41l-84 23l-3 42q103 -4 209 -4q103 0 201 4l4 -41l-99 -30q-36 -10 -55 -32.5t-38 -56.5l-257 -438v-152q0 -57 0.5 -103t0.5 -84q1 -23 33 -33l118 -35l2 -41q-133 3 -246 3t-243 -3l-4 41l126 38q24 7 26 29 q1 38 1.5 84.5t0.5 103.5v132l-258 432q-37 58 -60 83t-61 36l-89 26l-2 41q86 -4 232 -4q128 0 264 4l4 -41l-90 -23q-20 -6 -28.5 -15t-8.5 -22q0 -20 16.5 -49t40.5 -67zM603 1512h200l-238 -373h-68zM135 1023z" />
<glyph horiz-adv-x="1062" d="M583 538l151 267q26 47 43 79t17 53q0 28 -42 41l-84 23l-3 42q103 -4 209 -4q103 0 201 4l4 -41l-99 -30q-36 -10 -55 -32.5t-38 -56.5l-257 -438v-152q0 -57 0.5 -103t0.5 -84q1 -23 33 -33l118 -35l2 -41q-133 3 -246 3t-243 -3l-4 41l126 38q24 7 26 29 q1 38 1.5 84.5t0.5 103.5v132l-258 432q-37 58 -60 83t-61 36l-89 26l-2 41q86 -4 232 -4q128 0 264 4l4 -41l-90 -23q-20 -6 -28.5 -15t-8.5 -22q0 -20 16.5 -49t40.5 -67zM473 1304q0 -51 -31.5 -82.5t-81.5 -31.5q-48 0 -77.5 29t-29.5 78q0 52 31.5 82t82.5 30 q47 0 76.5 -27.5t29.5 -77.5zM857 1304q0 -51 -31.5 -82.5t-81.5 -31.5q-47 0 -77 29t-30 78q0 52 31.5 82t82.5 30q48 0 77 -27.5t29 -77.5zM135 928z" />
<glyph horiz-adv-x="1298" d="M345 0q-99 0 -233 -3l-4 41l115 34q23 8 25 31q2 39 2 131v271h-143v86h143v177q0 118 -2 164q-2 28 -25 35l-115 35l-2 41q137 -4 235 -4q79 0 154 4t153 4q282 0 423 -119.5t141 -352.5q0 -275 -156 -427t-438 -152q-79 0 -140 2t-133 2zM435 84q44 -6 86.5 -8.5 t83.5 -2.5q196 0 299.5 112t103.5 342q0 223 -98 331t-309 108q-32 0 -73 -1t-93 -5v-369h247v-86h-247v-421z" />
<glyph horiz-adv-x="1016" d="M433 217q0 -91 1 -114q0 -23 33 -33l108 -32l2 -41q-123 3 -234 3q-114 0 -235 -3l-4 41l116 34q24 8 26 30q1 38 1.5 84.5t0.5 103.5v487q0 47 -0.5 86t-1.5 70q-1 26 -23 32l-117 37l-2 41q122 -4 235 -4t234 4l4 -41l-119 -35q-23 -5 -24 -28q-1 -17 -1 -37v-37 q79 5 130 5q212 0 316 -70.5t104 -223.5q0 -162 -114.5 -253t-316.5 -91q-55 0 -119 9v-24zM433 315q53 -9 103 -9q117 0 182 62t65 187q0 121 -61 180.5t-188 59.5q-41 0 -101 -5v-475z" />
<glyph horiz-adv-x="611" d="M363 917q-108 0 -148 -23.5t-40 -77.5q0 -51 26.5 -71.5t72.5 -20.5q49 0 88 13zM86 1152q120 55 230 55q87 0 136 -46t48 -133l-3 -235q0 -31 2 -48.5t11 -28t27 -14t49 -4.5l4 -27q-26 -8 -66.5 -17.5t-58.5 -9.5q-80 0 -101 58q-79 -59 -152 -59q-80 0 -128.5 39.5 t-48.5 113.5q0 86 79.5 131t248.5 45v41q1 59 -27 88t-88 29q-71 0 -147 -22z" />
<glyph horiz-adv-x="698" d="M244 713q42 -10 84 -10q87 0 130.5 56.5t43.5 161.5q0 97 -40.5 151t-119.5 54q-49 0 -98 -20v-393zM247 1493q-3 -86 -3 -260v-81q93 55 172 55q108 0 171 -72t63 -191q0 -142 -86 -221t-239 -79q-102 0 -221 32q1 73 1 189v312q0 127 -2 231l-87 23l-4 23 q110 20 228 43z" />
<glyph horiz-adv-x="598" d="M515 699q-36 -24 -88.5 -40t-107.5 -16q-126 0 -199.5 73t-73.5 194q0 133 82.5 215t213.5 82q85 0 171 -36q-19 -81 -34 -162l-29 -6l-44 135q-25 11 -55 11q-74 0 -115.5 -57.5t-41.5 -151.5q0 -111 50 -163.5t159 -52.5q50 0 107 10z" />
<glyph horiz-adv-x="710" d="M450 1134q-33 12 -76 12q-87 0 -133.5 -53.5t-46.5 -162.5q0 -93 41 -149.5t116 -56.5q48 0 99 24v386zM357 1454q120 21 229 43l6 -4q-3 -124 -3 -267v-282v-158q0 -27 2 -45t11.5 -26.5t27.5 -12t48 -4.5l4 -27q-27 -8 -67 -17.5t-59 -9.5q-75 0 -101 61 q-91 -62 -174 -62q-107 0 -171 75.5t-64 187.5q0 143 85 221t237 78q37 0 82 -7q0 95 -2 210l-87 23z" />
<glyph horiz-adv-x="647" d="M552 699q-54 -30 -111.5 -43t-105.5 -13q-118 0 -203 72t-85 202q0 128 77.5 209t208.5 81q108 0 169 -61.5t61 -171.5q0 -17 -3 -34h-367q0 -116 55 -166t174 -50q59 0 125 10zM412 997v17q0 75 -22.5 106.5t-66.5 31.5q-61 0 -93 -44.5t-35 -110.5h217z" />
<glyph horiz-adv-x="428" d="M260 1119v-263q0 -70 1 -124q2 -20 20 -25l75 -21l2 -30q-93 2 -166 2q-74 0 -157 -2l-3 30l66 18q21 7 21 25q2 47 2 98v296l-92 22l-5 31l98 8v3q0 148 80.5 229t216.5 81q67 0 128 -19q-23 -81 -41 -178l-32 -6l-47 146q-13 2 -33 2q-63 0 -98.5 -53t-35.5 -187v-16 h153v-67h-153z" />
<glyph horiz-adv-x="666" d="M657 1165l-136 -34q43 -47 43 -109q0 -93 -72 -147.5t-179 -54.5q-61 0 -113 18q-29 -40 -29 -68q0 -14 16.5 -19t61.5 -5q33 0 78 2t86 2q97 0 152 -34.5t55 -101.5q0 -102 -106 -161.5t-240 -59.5q-112 0 -177.5 31t-65.5 82q0 69 100 136q-64 23 -64 64q0 56 92 150 q-103 57 -103 159q0 90 76.5 141t190.5 51q33 0 79 -7q54 -8 83 -8q112 0 168 3zM179 632q-33 -48 -33 -90q0 -43 39 -67t108 -24q83 0 142.5 31t59.5 89q0 34 -35 48.5t-109 14.5q-30 0 -65.5 -2t-68.5 -2q-17 0 -38 2zM192 1019q0 -70 30.5 -108.5t87.5 -38.5q55 0 83 36 t28 105q0 66 -30 104.5t-88 38.5q-55 0 -83 -35t-28 -102z" />
<glyph horiz-adv-x="725" d="M256 1147q100 60 187 60q82 0 128 -46t46 -130v-198q0 -73 1 -107q1 -16 16 -20l69 -20l2 -30q-83 2 -153 2q-75 0 -145 -2l-3 30l61 16q12 5 13 18v275q0 69 -29 98.5t-88 29.5q-51 0 -105 -21v-246q0 -73 1 -133q0 -15 12 -20l62 -17l3 -30q-74 2 -147 2q-72 0 -155 -2 l-2 30l73 20q13 4 13 17q1 37 1 71v383q0 127 -2 231l-87 23l-4 23q110 20 228 43l7 -4q-3 -86 -3 -260v-86z" />
<glyph horiz-adv-x="377" d="M265 1407q0 -37 -23.5 -60.5t-59.5 -23.5q-35 0 -57 22t-22 57q0 40 24 61.5t60 21.5q35 0 56.5 -20t21.5 -58zM29 1165q116 20 228 42l6 -4q-3 -74 -3 -165v-217q0 -69 1 -95q1 -16 14 -20l73 -20l1 -30q-85 2 -158 2q-72 0 -156 -2l-2 30l72 20q14 4 15 17q1 22 1 76 v188q0 76 -2 130l-87 23z" />
<glyph horiz-adv-x="352" d="M19 1165q115 20 227 42l6 -4q-5 -74 -5 -165v-298q0 -114 -50 -180.5t-176 -164.5l-29 26q86 114 103 167.5t17 137.5v261q0 69 -2 130l-88 23zM256 1407q0 -37 -24 -60.5t-59 -23.5t-57 22t-22 57q0 40 23.5 61.5t60.5 21.5q35 0 56.5 -20t21.5 -58z" />
<glyph horiz-adv-x="713" d="M28 1431l-4 23q117 21 228 43l7 -4q-3 -94 -3 -262v-341q0 -103 1 -166q2 -17 16 -21l58 -17l1 -30q-72 2 -146 2q-71 0 -154 -2l-2 30l70 19q15 4 16 18q1 66 1 146v201q0 214 -2 338zM695 656q-94 2 -137 2q-31 0 -79 -1q-21 35 -50 76q-76 109 -164 213l211 203 l-59 17l-3 29q74 -2 115 -2q39 0 141 2l3 -30q-72 -15 -101.5 -27t-61.5 -43l-109 -104l185 -236q19 -24 36 -40t72 -29z" />
<glyph horiz-adv-x="373" d="M28 1431l-4 23q117 21 228 43l7 -4q-3 -94 -3 -262v-339q0 -103 1 -166q2 -17 16 -21l68 -19l1 -30q-82 2 -156 2q-71 0 -154 -2l-2 30l70 19q15 4 16 18q1 66 1 146v201q0 214 -2 338z" />
<glyph horiz-adv-x="1069" d="M29 1165q112 19 225 42l6 -4v-62q96 66 181 66q104 0 149 -78q108 78 202 78q80 0 124.5 -46t44.5 -130v-198q0 -73 1 -107q1 -16 16 -20l69 -20l2 -30q-83 2 -153 2q-74 0 -145 -2l-3 30l61 16q13 5 14 18v275q0 69 -28 98.5t-85 29.5q-50 0 -107 -32q8 -26 8 -60v-198 q0 -76 1 -111q1 -15 15 -20l59 -16l2 -30q-72 2 -143 2q-74 0 -144 -2l-4 30l61 16q13 5 14 18v275q0 69 -28 98.5t-84 29.5q-48 0 -100 -27v-240q0 -73 1 -133q0 -15 12 -20l62 -17l3 -30q-74 2 -147 2q-72 0 -155 -2l-2 30l73 20q13 4 13 17q1 37 1 71v192q0 77 -2 131 l-87 23z" />
<glyph horiz-adv-x="678" d="M199 932q0 -105 36.5 -169.5t106.5 -64.5q65 0 100 57.5t35 168.5q0 105 -37 166.5t-106 61.5q-64 0 -99.5 -54.5t-35.5 -165.5zM630 937q0 -132 -84.5 -213t-215.5 -81q-126 0 -204.5 76.5t-78.5 200.5q0 126 82 206.5t217 80.5q127 0 205.5 -74.5t78.5 -195.5z" />
<glyph horiz-adv-x="701" d="M18 1140l-3 25q113 20 225 42l6 -4v-52q89 56 171 56q109 0 172.5 -71.5t63.5 -187.5q0 -141 -82 -223t-232 -82q-45 0 -93 8v-95q0 -56 1 -79q1 -18 16 -21l81 -22l1 -29q-94 1 -167 1q-72 0 -154 -1l-2 29l71 20q13 4 14 17q1 43 1 127v204q0 255 -2 315zM246 712 q44 -10 87 -10q86 0 129 57t43 164q0 100 -41 151.5t-119 51.5q-56 0 -99 -21v-393z" />
<glyph horiz-adv-x="706" d="M450 1135q-41 11 -79 11q-90 0 -133.5 -57.5t-43.5 -159.5q0 -95 39.5 -150t116.5 -55q53 0 100 25v386zM594 1203q-5 -110 -5 -263v-348q0 -96 1 -118q1 -16 14 -20l71 -20l1 -29q-82 1 -154 1q-75 0 -170 -1l-2 28l85 23q13 5 14 18q1 71 1 168v60q-88 -59 -170 -59 q-106 0 -170 74.5t-64 188.5q0 139 84 219t234 80q61 0 145 -17q37 8 79 19z" />
<glyph horiz-adv-x="527" d="M29 1165q111 20 225 42l6 -4v-70q99 74 220 74l5 -7q-23 -95 -41 -191l-31 -6q-14 55 -28 85t-47 30q-32 0 -78 -29v-240q0 -82 1 -121q0 -16 14 -20l82 -23l2 -29q-95 2 -168 2q-72 0 -156 -2l-2 30l72 20q15 4 15 18q1 24 1 71v191q0 83 -2 131l-87 23z" />
<glyph horiz-adv-x="554" d="M377 1131q-43 15 -84 15q-54 0 -86.5 -18t-32.5 -47q0 -20 10 -33.5t30.5 -23.5t48 -18.5t58.5 -17.5q34 -10 67.5 -22.5t60.5 -31t44 -45t17 -64.5q0 -85 -73.5 -133.5t-181.5 -48.5q-101 0 -206 46q21 83 35 165l29 4l44 -133q41 -21 100 -21q52 0 84 19.5t32 52.5 q0 21 -11.5 36t-30.5 25.5t-44 18.5t-52 16q-32 9 -63.5 21t-57 30t-41 45t-15.5 68q0 78 66.5 124.5t173.5 46.5q99 0 182 -33q-20 -77 -34 -155l-29 -6z" />
<glyph horiz-adv-x="467" d="M247 1119q-4 -178 -4 -298q0 -57 17 -79.5t65 -22.5q37 0 98 10l4 -32q-100 -52 -175 -52q-77 0 -114.5 34t-37.5 102q0 111 3 343l-92 22l-5 31l105 7l50 137q45 10 81 22l6 -4q-1 -70 -1 -130v-23h164v-67h-164z" />
<glyph horiz-adv-x="728" d="M474 710q-92 -67 -186 -67q-93 0 -139 46t-46 130v122q0 125 -2 176l-87 23l-3 25q115 20 228 42l6 -4q-3 -67 -3 -174v-175q0 -68 30 -98t84 -30q56 0 113 30v234q0 82 -2 127l-85 23l-3 25q112 20 225 42l7 -4q-4 -69 -4 -177q0 -210 1 -256q0 -22 4 -36t12.5 -21.5 t25.5 -10.5t47 -4l4 -27q-94 -27 -127 -27q-75 0 -100 66z" />
<glyph horiz-adv-x="677" d="M-2 1195q96 -2 167 -2q65 0 159 2l3 -30l-88 -24q39 -99 92 -220q22 -52 39 -99q18 47 41 98q43 104 92 221l-88 24l-1 30q59 -2 121 -2q65 0 130 2l2 -30l-78 -21q-20 -6 -31 -30q-44 -102 -104.5 -245t-89.5 -218l-64 -7q-31 81 -91.5 223.5t-103.5 245.5 q-12 27 -35 33l-71 19z" />
<glyph horiz-adv-x="956" d="M6 1195q107 -2 157 -2q70 0 165 2l3 -30l-91 -24q35 -98 84 -221q18 -44 34 -91q14 46 32 90q38 102 58 159t39 112l52 6q19 -58 38.5 -116t55.5 -160q19 -48 31 -91q16 42 35 88q51 127 87 225l-83 24l-3 30q60 -2 125 -2q64 0 116 2l3 -30l-62 -17q-26 -7 -39 -36 q-53 -128 -94.5 -230t-88.5 -229l-65 -6q-31 80 -51 133t-42 112q-16 42 -28 80q-13 -38 -29 -78q-24 -60 -45 -113.5t-51 -127.5l-64 -6q-50 133 -90.5 235t-91.5 231q-11 28 -40 36l-56 15z" />
<glyph horiz-adv-x="702" d="M34 1195q50 -1 92.5 -1.5t80.5 -0.5q29 0 64 0.5t78 1.5l3 -30l-67 -17q22 -35 46 -72t49 -74q31 40 58 78t47 67l-64 18l-2 30q30 -1 56 -1.5t49 -0.5q32 0 63 0.5t60 1.5l4 -30l-74 -19q-20 -4 -38 -28q-26 -35 -58.5 -78t-66.5 -89q38 -58 75 -112.5t72 -102.5 q15 -23 41 -30l68 -21l3 -29q-49 1 -90.5 1.5t-79.5 0.5q-28 0 -63.5 -0.5t-78.5 -1.5l-3 29l65 18q-23 35 -49 75t-54 82q-33 -43 -61.5 -82t-51.5 -74l64 -19l2 -29q-30 1 -56 1.5t-49 0.5q-32 0 -65.5 -0.5t-67.5 -1.5l-3 29l75 20q26 7 47 33q29 38 61 81t70 94 q-36 54 -70 104.5t-63 95.5q-16 24 -45 32l-71 20z" />
<glyph horiz-adv-x="663" d="M-6 1195q49 -1 90 -1.5t76 -0.5q24 0 63.5 0.5t94.5 1.5l3 -30l-88 -24q18 -48 41.5 -105t49.5 -118q17 -44 39 -100q37 95 49 124q20 49 39 96t40 103l-86 24l-3 30q28 -1 59 -1.5t66 -0.5q32 0 63 0.5t63 1.5l3 -30l-69 -19q-23 -7 -34 -31q-11 -26 -22.5 -54.5 t-24.5 -59.5q-12 -29 -26.5 -64t-28 -70.5t-26 -68.5t-21.5 -58q-12 -34 -23 -70t-20.5 -70.5t-17 -66t-13.5 -56.5q-5 -24 -12.5 -39t-20 -23t-32 -10.5t-49.5 -2.5q-69 0 -139 5l-4 29q47 7 78 19t49 29q23 21 47 60.5t53 106.5l3 8l-12 3q-53 128 -100.5 241t-90.5 211 q-6 11 -13.5 19t-22.5 12l-68 20z" />
<glyph horiz-adv-x="637" d="M59 667q96 135 160 229t160 239h-202l-43 -131l-30 -6q-14 97 -35 190l3 7q148 -2 240 -2q121 0 251 2l5 -10q-81 -118 -155.5 -229.5t-156.5 -238.5h201l81 137l31 4q-10 -85 -16 -197l-5 -5q-123 2 -256 2q-123 0 -228 -2z" />
<glyph horiz-adv-x="1190" d="M717 625q54 -2 103 -3t103 -1q49 0 91.5 1t80.5 3l3 -42l-120 -30q-17 -5 -16 -22q2 -16 3 -31.5t1 -30.5q0 -156 -91 -276q78 -90 122.5 -116t103.5 -26q28 0 61 6l8 -44q-90 -45 -183 -45q-140 0 -245 107q-149 -103 -319 -103q-156 0 -254.5 73t-98.5 203 q0 174 223 300q-67 79 -92 132.5t-25 121.5q0 119 88.5 188t220.5 69q112 0 188.5 -55t76.5 -155q0 -164 -238 -270l300 -318q59 86 59 209q0 14 -1 27.5t-3 25.5q-3 19 -12 26.5t-27 11.5l-109 21zM341 497q-46 -45 -65 -91t-19 -105q0 -104 63.5 -164.5t170.5 -60.5 q97 0 188 64zM466 628q129 90 129 209q0 69 -35.5 107.5t-89.5 38.5q-57 0 -91.5 -34t-34.5 -94q0 -98 86 -189z" />
<glyph horiz-adv-x="840" d="M167 1668l137 118l326 -244l-26 -46l-437 157v15zM0 1400z" />
<glyph horiz-adv-x="840" d="M661 1653l-436 -157l-27 46l326 244l137 -118v-15zM0 1400z" />
<glyph horiz-adv-x="840" d="M465 1770l286 -239l-27 -46l-304 135l-305 -135l-26 46l286 239h90zM0 1400z" />
<glyph horiz-adv-x="840" d="M756 1724q-114 -199 -224 -199q-36 0 -67.5 14.5t-69.5 37.5q-36 20 -59 32.5t-48 12.5q-28 0 -52.5 -17t-81.5 -79l-50 39q69 107 117.5 151t102.5 44q31 0 56.5 -10t73.5 -38q44 -24 67.5 -36.5t49.5 -12.5q31 0 53.5 16t78.5 80zM0 1400z" />
<glyph horiz-adv-x="840" d="M320 1635q0 -52 -31.5 -83.5t-81.5 -31.5q-47 0 -77 29.5t-30 77.5q0 53 31.5 83t82.5 30q47 0 76.5 -27.5t29.5 -77.5zM740 1635q0 -52 -31.5 -83.5t-81.5 -31.5q-47 0 -77 29.5t-30 77.5q0 53 31.5 83t82.5 30q47 0 76.5 -27.5t29.5 -77.5zM0 1400z" />
<glyph horiz-adv-x="840" d="M415 1473q-98 0 -156 45t-58 127q0 86 65.5 138.5t158.5 52.5q92 0 153 -49.5t61 -130.5q0 -83 -63 -133t-161 -50zM420 1531q49 0 80 28t31 89t-30.5 95.5t-80.5 34.5t-80.5 -29t-30.5 -90t31 -94.5t80 -33.5zM0 1400z" />
<glyph horiz-adv-x="736" d="M90 797h556v-130h-556v130z" />
<glyph horiz-adv-x="524" d="M255 967l78 -967l-224 -10l-9 8l93 966zM224 1153q-52 0 -85.5 32.5t-33.5 85.5t33.5 86.5t85.5 33.5q55 0 88 -33.5t33 -86.5t-33 -85.5t-88 -32.5z" />
<glyph horiz-adv-x="880" d="M443 1153q-52 0 -85.5 32t-33.5 86t33.5 87t85.5 33q55 0 88 -33t33 -87t-33 -86t-88 -32zM439 975q59 -53 110 -121.5t51 -99.5q0 -28 -14.5 -57t-38 -59t-53.5 -60.5t-62 -62.5q-34 -33 -66.5 -67t-58 -68.5t-41 -68.5t-15.5 -69q0 -85 56.5 -135t151.5 -50 q66 0 132 28l66 229l39 6l59 -280q-168 -65 -320 -65q-166 0 -263 74t-97 213q0 54 17.5 100.5t46 87.5t63.5 77.5t71 70.5q31 29 59.5 57t51 55.5t35.5 57t13 59.5q0 55 -37 120z" />
<glyph horiz-adv-x="424" d="M349 1121q-125 -110 -125 -216q0 -93 97 -149q0 -54 -32 -86t-83 -32q-57 0 -91.5 43.5t-34.5 109.5q0 103 58 194.5t175 177.5z" />
<glyph horiz-adv-x="424" d="M75 671q125 110 125 216q0 93 -97 149q0 54 32 86t83 32q57 0 91.5 -43.5t34.5 -109.5q0 -103 -58 -194.5t-175 -177.5z" />
<glyph horiz-adv-x="744" d="M340 1121q-125 -110 -125 -216q0 -93 97 -149q0 -54 -32 -86t-83 -32q-57 0 -91.5 43.5t-34.5 109.5q0 103 58 194.5t175 177.5zM679 1121q-125 -110 -125 -216q0 -93 97 -149q0 -54 -32 -86t-83 -32q-57 0 -91.5 43.5t-34.5 109.5q0 103 58 194.5t175 177.5z" />
<glyph horiz-adv-x="744" d="M66 671q125 110 125 216q0 93 -97 149q0 54 32 86t83 32q57 0 91.5 -43.5t34.5 -109.5q0 -103 -58 -194.5t-175 -177.5zM405 671q125 110 125 216q0 93 -97 149q0 54 32 86t83 32q57 0 91.5 -43.5t34.5 -109.5q0 -103 -58 -194.5t-175 -177.5z" />
<glyph horiz-adv-x="628" d="M460 306q-186 223 -366 375l-4 36q185 152 370 375l48 -25q-90 -180 -215 -363q125 -189 215 -373z" />
<glyph horiz-adv-x="628" d="M168 1092q186 -223 366 -375l4 -36q-185 -152 -370 -375l-48 25q90 180 215 363q-125 189 -215 373z" />
<glyph horiz-adv-x="1048" d="M460 306q-186 223 -366 375l-4 36q185 152 370 375l48 -25q-90 -180 -215 -363q125 -189 215 -373zM880 306q-186 223 -366 375l-4 36q185 152 370 375l48 -25q-90 -180 -215 -363q125 -189 215 -373z" />
<glyph horiz-adv-x="1048" d="M168 1092q186 -223 366 -375l4 -36q-185 -152 -370 -375l-48 25q90 180 215 363q-125 189 -215 373zM588 1092q186 -223 366 -375l4 -36q-185 -152 -370 -375l-48 25q90 180 215 363q-125 189 -215 373z" />
<glyph horiz-adv-x="1024" d="M70 788h884v-112h-884v112z" />
<glyph horiz-adv-x="2048" d="M70 788h1908v-112h-1908v112z" />
<glyph horiz-adv-x="524" d="M263 860q55 0 90.5 -34.5t35.5 -90.5t-35.5 -91.5t-90.5 -35.5q-58 0 -93 35.5t-35 91.5t35 90.5t93 34.5z" />
<glyph horiz-adv-x="755" d="M612 -277q-452 383 -452 972q0 593 452 976l43 -38q-319 -355 -319 -934q0 -583 319 -938z" />
<glyph horiz-adv-x="755" d="M143 1671q452 -383 452 -972q0 -593 -452 -976l-43 38q319 355 319 934q0 583 -319 938z" />
<glyph horiz-adv-x="655" d="M514 -213q-374 288 -374 732q0 447 374 735l41 -38q-242 -264 -242 -694q0 -433 242 -697z" />
<glyph horiz-adv-x="655" d="M141 1253q374 -288 374 -732q0 -447 -374 -735l-41 38q242 264 242 694q0 433 -242 697z" />
<glyph horiz-adv-x="707" d="M368 -156l247 -57l2 -43h-397v1905h395l2 -43l-249 -57v-1705z" />
<glyph horiz-adv-x="707" d="M339 1549l-247 57l-2 43h397v-1905h-395l-2 43l249 57v1705z" />
<glyph horiz-adv-x="692" d="M353 -96l247 -57l2 -40h-392v1427h390l2 -40l-249 -57v-1233z" />
<glyph horiz-adv-x="692" d="M339 1137l-247 57l-2 40h392v-1427h-390l-2 40l249 57v1233z" />
<glyph horiz-adv-x="720" d="M80 714q89 16 131 56.5t42 156.5v446q0 151 74 219t276 67l2 -46q-70 -15 -108 -35.5t-55.5 -50t-20.5 -70.5t-3 -98v-332q0 -151 -40 -223t-144 -104v-6q104 -32 144 -104t40 -223v-332q0 -57 3 -98t20.5 -70.5t55.5 -50t106 -35.5l2 -46q-204 -1 -278 67t-74 219v446 q0 116 -42 156.5t-129 56.5z" />
<glyph horiz-adv-x="720" d="M638 680q-87 -16 -129 -56.5t-42 -156.5v-446q0 -151 -74 -219t-276 -67l-2 46q70 15 108 35.5t55.5 50t20.5 70.5t3 98v332q0 151 40 223t144 104v6q-104 32 -144 104t-40 223v332q0 57 -3 98t-20.5 70.5t-55.5 50t-106 35.5l-2 46q204 1 278 -67t74 -219v-446 q0 -116 42 -156.5t131 -56.5z" />
<glyph horiz-adv-x="1555" d="M1112 1043q73 -4 145 -4q70 0 188 4l4 -41l-119 -37q-22 -6 -23 -32q-2 -62 -2 -156v-487q0 -112 2 -188q1 -21 26 -30l114 -34l2 -41q-125 3 -239 3q-112 0 -220 -3l-4 41l108 32q23 8 24 34q2 74 2 186v538l-368 -828l-59 -8l-367 836v-538q0 -112 2 -186q1 -26 25 -34 l106 -32l2 -41q-113 3 -188 3q-66 0 -188 -3l-3 41l115 34q25 9 26 30q2 76 2 188v487q0 94 -2 156q-1 26 -23 32l-117 37l-1 41q121 -4 183 -4q82 0 170 4l340 -756z" />
<glyph horiz-adv-x="1727" d="M1263 1080q-30 -100 -70 -297l-63 -309q-6 -29 -6 -48q0 -36 17 -51.5t50 -15.5q120 0 218 139.5t98 312.5q0 247 -159.5 398t-398.5 151q-309 0 -499.5 -205t-190.5 -528q0 -296 181.5 -480.5t478.5 -184.5q346 0 611 249l43 -48q-302 -303 -705 -303q-340 0 -549 206 t-209 533q0 361 236.5 597.5t605.5 236.5q280 0 470 -171t190 -441q0 -215 -149 -387t-335 -172q-74 0 -117 37t-46 108q-92 -74 -149.5 -108.5t-92.5 -34.5q-111 0 -176.5 82.5t-65.5 209.5q0 225 138 380t348 155q79 0 184 -32q47 9 100 28zM1077 987q-63 33 -124 33 q-127 0 -215 -131.5t-88 -291.5q0 -92 33.5 -153t96.5 -61q56 0 192 95z" />
<glyph horiz-adv-x="1130" d="M862 378h-426q38 -136 138 -214t246 -78q107 0 221 55l15 -40q-139 -127 -325 -127q-185 0 -323.5 106t-178.5 298h-128v81h118q-2 31 -2 51q0 43 4 73h-121v81h134q48 195 198 298t349 103q119 0 247 -39l6 -7l-52 -274l-38 -6l-65 230q-76 17 -136 17 q-129 0 -213.5 -88t-106.5 -234h439v-81h-446q-1 -18 -1 -38q0 -43 5 -86h442v-81z" />
<glyph horiz-adv-x="1130" d="M558 1174l78 8l-3 -117q142 -2 272 -36l7 -6l-49 -261l-38 -6l-56 205q-66 25 -137 28l-9 -368q89 -38 143.5 -63.5t97.5 -60.5t69.5 -82t26.5 -112q0 -136 -92.5 -224t-258.5 -102l-3 -128l-78 -8l3 133q-156 5 -306 53l-6 8l41 287l43 7l57 -238q80 -32 173 -37l9 403 q-70 30 -124 56t-97.5 63t-70 87.5t-26.5 121.5q0 118 89.5 192t241.5 85zM611 57q177 26 177 186q0 113 -169 184zM554 985q-163 -20 -163 -148q0 -114 155 -184z" />
<glyph horiz-adv-x="1130" d="M160 559h152q-2 42 -3 76.5t-1 56.5q0 177 114.5 275t298.5 98q116 0 229 -35l5 -5l-50 -270l-37 -6l-59 224q-54 16 -105 16q-108 0 -163 -73t-55 -214q0 -28 0.5 -65t2.5 -78h276v-81h-277q-6 -222 -128 -340l2 -9h486l87 183l41 8l-20 -316l-7 -7q-215 3 -414 3 q-277 0 -441 -3l-4 40q151 39 188.5 96.5t37.5 214.5q0 91 -1 130h-155v81z" />
<glyph horiz-adv-x="1130" d="M976 277h-300v-79q1 -25 1 -47t1 -42q1 -25 35 -34l124 -38l2 -40q-140 3 -258 3q-111 0 -249 -3l-4 40l134 40q27 8 28 31q1 20 1 42v47v80h-300v81h300v124h-300v81h270l-193 286q-30 45 -57 78.5t-75 47.5l-97 28l-2 40q46 -2 106.5 -3t138.5 -1q61 0 123.5 1t134.5 3 l4 -40l-84 -24q-40 -11 -40 -36q0 -20 20 -50.5t52 -77.5l135 -200l105 178q31 53 52 87.5t21 56.5q0 15 -11 24.5t-37 16.5l-80 22l-2 43q54 -2 101.5 -3t101.5 -1q55 0 107 1t104 3l4 -40l-102 -32q-38 -11 -60 -36t-43 -58l-197 -314h285v-81h-300v-124h300v-81z" />
<glyph horiz-adv-x="1130" d="M283 477q0 -200 76.5 -310t210.5 -110q137 0 206.5 98.5t69.5 308.5q0 205 -75 306.5t-212 101.5q-140 0 -208 -97t-68 -298zM1046 487q0 -236 -138 -374.5t-354 -138.5q-210 0 -340.5 128t-130.5 345q0 232 136.5 367.5t357.5 135.5q210 0 339.5 -122t129.5 -341z" />
<glyph horiz-adv-x="1130" d="M220 826l-5 42q261 36 462 72l9 -8q-12 -175 -12 -361v-233q0 -132 2 -213q1 -29 28 -36l219 -52l3 -40q-245 3 -343 3t-342 -3l-4 40l223 52q26 7 27 32q2 81 2 180v155q0 201 -4 348z" />
<glyph horiz-adv-x="1130" d="M964 317l44 8l-20 -321l-7 -7q-206 3 -450 3q-224 0 -413 -3l-7 82q107 64 190.5 117.5t145.5 100.5q46 35 88.5 70t75 73t51.5 80.5t19 93.5q0 92 -68 148.5t-170 56.5q-125 0 -254 -65l-37 66q195 130 399 130q144 0 238.5 -75t94.5 -198q0 -68 -29.5 -128t-93.5 -120 t-165 -126t-243 -146l1 -5h532z" />
<glyph horiz-adv-x="1130" d="M260 332q216 23 330.5 99.5t114.5 185.5q0 94 -77 153t-195 59q-158 0 -312 -82l-41 66q211 137 432 137q167 0 279.5 -77.5t112.5 -203.5q0 -222 -348 -320v-4q197 -9 315.5 -93.5t118.5 -218.5q0 -103 -60 -190.5t-176.5 -153t-288 -104.5t-394.5 -45l-11 74 q181 10 316.5 43t225.5 84.5t134.5 118.5t44.5 145q0 126 -99.5 196t-267.5 70q-68 0 -147 -12z" />
<glyph horiz-adv-x="1130" d="M659 717q-117 -127 -237.5 -268t-237.5 -300h475v568zM844 -117q0 -150 5 -283q-90 -9 -182 -26l-10 8q2 130 2 285v183h-267q-141 0 -345 -3l-7 73q169 217 344 421.5t349 401.5l117 7q-6 -224 -6 -418v-383h239l4 -102q-116 3 -243 3v-167z" />
<glyph horiz-adv-x="1130" d="M216 344l55 584q64 -2 138.5 -3t161.5 -1q101 0 195.5 1t182.5 3l6 -8l-23 -165l-580 14l-28 -282q87 14 158 14q228 0 366.5 -111t138.5 -305q0 -125 -61.5 -225.5t-169.5 -171t-254.5 -109t-316.5 -39.5l-10 74q136 5 249 36.5t194 86.5t126 132.5t45 175.5 q0 152 -102 232.5t-280 80.5q-90 0 -186 -21z" />
<glyph horiz-adv-x="1130" d="M976 1322q-314 -62 -469.5 -217.5t-202.5 -381.5l2 -1q124 132 318 132q184 0 307 -120.5t123 -305.5q0 -196 -136 -325t-336 -129q-217 0 -357 156.5t-140 412.5q0 306 214 544t663 306zM853 374q0 173 -82 282t-211 109q-119 0 -191.5 -81.5t-72.5 -219.5 q0 -172 86 -292t217 -120q113 0 183.5 91t70.5 231z" />
<glyph horiz-adv-x="1130" d="M312 -403l601 1172h-673l-58 -198l-40 -7l-17 356l7 8q124 -2 241 -3t229 -1h58q113 0 216.5 1t199.5 3l4 -43q-54 -107 -108.5 -220t-107.5 -228.5t-102.5 -229t-93.5 -221t-81 -205.5t-64 -181l-206 -10z" />
<glyph horiz-adv-x="1130" d="M401 701q-139 69 -197.5 144t-58.5 181q0 154 127.5 249.5t317.5 95.5q170 0 281.5 -76.5t111.5 -203.5q0 -185 -271 -338q211 -99 282 -188t71 -205q0 -169 -149.5 -277.5t-362.5 -108.5q-218 0 -348.5 93.5t-130.5 248.5q0 233 327 385zM474 664q-213 -119 -213 -310 q0 -131 81.5 -215.5t223.5 -84.5q132 0 218.5 68.5t86.5 181.5q0 114 -90 191.5t-307 168.5zM636 791q166 121 166 280q0 103 -68.5 162.5t-185.5 59.5q-106 0 -172.5 -55.5t-66.5 -149.5q0 -89 69.5 -151.5t257.5 -145.5z" />
<glyph horiz-adv-x="1130" d="M177 -389q255 45 423.5 191t237.5 405l-2 1q-118 -133 -308 -133t-316 120t-126 303q0 193 138.5 322.5t335.5 129.5q219 0 357 -156t138 -401q0 -335 -235.5 -569t-628.5 -284zM289 558q0 -172 81.5 -283t211.5 -111q126 0 194 80.5t68 224.5q0 174 -89 291.5 t-212 117.5q-115 0 -184.5 -89t-69.5 -231z" />
<glyph horiz-adv-x="1254" d="M303 720q0 -323 84 -495t247 -172q155 0 235.5 147t80.5 500q0 331 -85 489.5t-246 158.5q-152 0 -234 -139.5t-82 -488.5zM1154 732q0 -370 -152 -565t-388 -195q-231 0 -372.5 182t-141.5 528q0 358 148 551t392 193q232 0 373 -174.5t141 -519.5z" />
<glyph horiz-adv-x="670" d="M41 1295l-5 42q211 30 412 66l9 -8q-12 -237 -12 -488v-502q0 -179 2 -288q1 -29 28 -36l169 -44l3 -40q-195 3 -293 3t-292 -3l-4 40l173 44q26 7 27 32q2 113 2 252v412q0 282 -4 496z" />
<glyph horiz-adv-x="1103" d="M963 344l45 8l-22 -348l-7 -7q-175 2 -447 3q-249 0 -474 -3l-8 84q447 352 574.5 539t127.5 356q0 141 -90 228.5t-231 87.5q-132 0 -298 -78l-39 67q223 145 432 145q185 0 309 -105t124 -280q0 -201 -169.5 -416t-516.5 -459l2 -6h600z" />
<glyph horiz-adv-x="990" d="M200 787q187 19 300.5 96.5t113.5 200.5q0 98 -73 159.5t-185 61.5q-148 0 -295 -80l-41 66q205 135 420 135q160 0 269.5 -77t109.5 -202q0 -230 -335 -341v-4q198 -10 309.5 -101.5t111.5 -224.5q0 -216 -226.5 -357.5t-653.5 -153.5l-10 74q339 21 507 131.5 t168 275.5q0 131 -92 205.5t-254 74.5q-63 0 -137 -12z" />
<glyph horiz-adv-x="1147" d="M859 383q0 -171 2 -267q1 -30 28 -36l159 -43l3 -40q-185 3 -283 3t-302 -3l-4 40l183 47q26 7 27 32q2 103 2 267h-263q-154 0 -364 -3l-7 85q345 474 718 954l107 7q-6 -192 -6 -399v-538h249l4 -109q-130 3 -253 3zM674 1161q-261 -330 -505 -672h505v672z" />
<glyph horiz-adv-x="1044" d="M142 807l58 589q66 -2 143.5 -3t168.5 -1q105 0 202.5 1t190.5 3l6 -8l-25 -166l-606 10l-28 -282q95 14 167 14q238 0 381.5 -115.5t143.5 -318.5q0 -129 -62.5 -233.5t-173 -178t-260 -113.5t-323.5 -40l-10 74q139 4 255 37t199.5 91t130 140t46.5 183 q0 160 -107 245.5t-296 85.5q-96 0 -195 -21z" />
<glyph horiz-adv-x="1129" d="M986 1355q-309 -64 -472 -229t-210 -400l2 -1q124 132 323 132q185 0 310 -121t125 -307q0 -197 -137.5 -327t-339.5 -130q-221 0 -361.5 161t-140.5 418q0 312 218 557t669 318zM863 374q0 173 -83.5 283.5t-215.5 110.5q-122 0 -195 -82.5t-73 -220.5 q0 -170 86.5 -292.5t222.5 -122.5q113 0 185.5 91.5t72.5 232.5z" />
<glyph horiz-adv-x="1030" d="M239 -19l609 1256h-683l-58 -198l-40 -7l-17 356l7 8q246 -4 470 -4h58q225 0 416 4l4 -43q-54 -108 -108.5 -227.5t-107 -243.5t-102 -247.5t-93 -239t-80 -221.5t-64.5 -190l-206 -10z" />
<glyph horiz-adv-x="1159" d="M421 730q-282 134 -282 337q0 163 136 261t330 98q176 0 295 -79.5t119 -211.5q0 -192 -296 -352q219 -102 297.5 -199t78.5 -211q0 -179 -160 -290t-372 -111q-217 0 -357 96.5t-140 261.5q0 239 351 400zM492 692q-235 -125 -235 -325q0 -132 100 -224.5t246 -92.5 q124 0 213 76t89 187t-82 191t-331 188zM649 821q189 122 189 283q0 111 -76.5 177.5t-196.5 66.5q-111 0 -186 -60.5t-75 -155.5q0 -88 69.5 -154.5t275.5 -156.5z" />
<glyph horiz-adv-x="1139" d="M186 36q255 48 423.5 203.5t237.5 433.5l-2 1q-120 -133 -312 -133q-194 0 -321 121t-127 307q0 196 138.5 326.5t340.5 130.5q225 0 362.5 -163t137.5 -416q0 -348 -238.5 -589.5t-625.5 -292.5zM288 1027q0 -171 80.5 -284t218.5 -113q128 0 197 81.5t69 224.5 q0 174 -88 293t-219 119q-120 0 -189 -91t-69 -230z" />
<glyph horiz-adv-x="1063" d="M290 534q0 -233 63 -357.5t184 -124.5q116 0 176 106t60 362q0 239 -63.5 353.5t-183.5 114.5q-113 0 -174.5 -100.5t-61.5 -353.5zM973 543q0 -277 -127 -423.5t-325 -146.5q-194 0 -312.5 136.5t-118.5 395.5q0 269 124.5 414t328.5 145q194 0 312 -131t118 -390z" />
<glyph horiz-adv-x="650" d="M41 962l-5 42q201 30 402 66l9 -8q-12 -175 -12 -361v-374q0 -132 2 -213q1 -29 28 -36l159 -41l3 -40q-185 3 -283 3t-282 -3l-4 40l163 41q26 7 27 32q2 81 2 180v296q0 201 -4 356z" />
<glyph horiz-adv-x="938" d="M804 327l44 8l-21 -331l-7 -7q-142 2 -365 3q-204 0 -388 -3l-7 82q337 248 433.5 380t96.5 251q0 100 -65.5 161.5t-167.5 61.5q-101 0 -233 -59l-38 66q192 124 361 124q148 0 247 -75t99 -200q0 -146 -127.5 -298.5t-382.5 -328.5l1 -5h439z" />
<glyph horiz-adv-x="841" d="M170 609q140 13 226 63t86 131q0 67 -53.5 105.5t-140.5 38.5q-117 0 -230 -52l-35 66q173 103 353 103q132 0 216.5 -53.5t84.5 -143.5q0 -162 -238 -240v-3q145 -10 233.5 -77.5t88.5 -177.5q0 -167 -187 -277.5t-538 -119.5l-7 72q252 15 389.5 93.5t137.5 205.5 q0 97 -73.5 151.5t-196.5 54.5q-52 0 -109 -11z" />
<glyph horiz-adv-x="990" d="M727 267q0 -98 2 -155q1 -30 27 -36l146 -40l3 -39q-171 3 -269 3t-288 -3l-4 39l169 44q26 7 27 32q2 61 2 155h-208q-121 0 -287 -2l-7 83q280 352 584 709l109 7q-6 -143 -6 -295v-398h224l4 -106q-118 2 -228 2zM542 825q-193 -222 -373 -454h373v454z" />
<glyph horiz-adv-x="879" d="M128 558l45 485q106 -4 246 -4q171 0 321 4l6 -8l-26 -156l-467 11l-19 -192q76 14 141 14q198 0 306 -86.5t108 -235.5q0 -190 -188 -304t-490 -114l-6 67q227 6 358.5 88.5t131.5 220.5q0 106 -74.5 165t-229.5 59q-78 0 -157 -21z" />
<glyph horiz-adv-x="982" d="M845 1019q-250 -47 -380.5 -171t-166.5 -297l2 -1q110 114 273 114q144 0 246.5 -94t102.5 -242q0 -155 -119.5 -255.5t-303.5 -100.5q-190 0 -304.5 123.5t-114.5 316.5q0 243 184.5 433.5t567.5 243.5zM725 287q0 124 -62 207t-168 83q-93 0 -149.5 -60t-56.5 -163 q0 -122 64.5 -214t173.5 -92q91 0 144.5 69t53.5 170z" />
<glyph horiz-adv-x="854" d="M235 -15l444 902h-525l-55 -194l-37 -7l-17 345l7 8h350h70q167 0 358 4l4 -38q-231 -485 -402 -1017l-192 -10z" />
<glyph horiz-adv-x="976" d="M921 284q0 -139 -134 -225t-308 -86q-182 0 -298 73.5t-116 198.5q0 177 243 296q-197 97 -197 256q0 122 116.5 194.5t283.5 72.5q148 0 251 -57t103 -152q0 -143 -223 -266q142 -59 210.5 -133t68.5 -172zM248 278q0 -95 73.5 -162t184.5 -67q93 0 159 55t66 135 q0 59 -40.5 105t-138.5 92q-42 20 -84 36.5t-84 33.5q-136 -87 -136 -228zM687 826q0 74 -60 118t-151 44q-87 0 -145 -40.5t-58 -102.5q0 -41 24.5 -72t65 -57t93 -48.5t108.5 -45.5q123 81 123 204z" />
<glyph horiz-adv-x="990" d="M178 17q204 37 337 152t186 311l-2 1q-110 -109 -269 -109q-149 0 -249.5 94.5t-100.5 237.5q0 155 119.5 257.5t291.5 102.5q192 0 310.5 -124.5t118.5 -317.5q0 -266 -201 -450t-527 -224zM277 752q0 -125 62 -208t167 -83q93 0 149.5 59t56.5 164q0 129 -68 216.5 t-168 87.5q-93 0 -146 -66.5t-53 -169.5z" />
<glyph d="M198 408q0 -182 44 -278.5t131 -96.5q81 0 124 83t43 280q0 186 -45 275t-130 89q-81 0 -124 -78.5t-43 -273.5zM693 415q0 -213 -93.5 -326.5t-238.5 -113.5q-142 0 -229 106t-87 306q0 207 91 319t241 112q143 0 229.5 -101.5t86.5 -301.5z" />
<glyph d="M129 731l-3 31q173 25 324 52l6 -6q-9 -170 -9 -338v-160q0 -135 2 -216q1 -22 21 -27l149 -39l2 -30q-168 2 -242 2q-73 0 -241 -2l-3 30l152 39q19 5 20 24q2 84 2 189v93q0 183 -3 341z" />
<glyph d="M626 258l34 6l-17 -261l-5 -5q-112 1 -287 2q-160 0 -304 -2l-6 63q272 191 349.5 292t77.5 193q0 76 -53 123.5t-136 47.5q-79 0 -175 -38l-30 51q139 87 274 87q118 0 196.5 -57.5t78.5 -153.5q0 -116 -102 -232t-309 -250l1 -4h347z" />
<glyph d="M199 451q114 10 180.5 51.5t66.5 106.5q0 52 -43 85t-108 33q-87 0 -178 -36l-25 50q133 76 267 76q99 0 167.5 -43.5t68.5 -119.5q0 -124 -187 -187v-2q115 -12 179.5 -63.5t64.5 -129.5q0 -127 -144.5 -209t-416.5 -90l-7 55q207 12 309 73t102 151q0 72 -54.5 112.5 t-153.5 40.5q-38 0 -83 -9z" />
<glyph d="M567 198q0 -59 2 -111q1 -23 21 -27l119 -32l2 -30q-138 2 -212 2q-73 0 -226 -2l-3 30l137 35q20 5 21 25q1 56 1 110h-165q-95 0 -227 -2l-4 64q221 272 459 547l80 5q-5 -110 -5 -228v-306h157l3 -82q-77 2 -160 2zM429 636q-155 -176 -299 -358h299v358z" />
<glyph d="M121 434l41 370q86 -3 204 -3q134 0 252 3l5 -6l-19 -120l-386 9l-15 -146q57 11 108 11q154 0 245.5 -67.5t91.5 -184.5q0 -149 -153.5 -238.5t-387.5 -89.5l-6 55q177 4 287.5 68.5t110.5 172.5q0 84 -66 130.5t-185 46.5q-60 0 -122 -16z" />
<glyph d="M635 760q-189 -37 -288 -134.5t-128 -230.5h2q79 92 202 92q118 0 194 -70.5t76 -177.5q0 -115 -88.5 -190t-221.5 -75q-148 0 -237 94.5t-89 240.5q0 182 140 323.5t427 181.5zM543 207q0 91 -46.5 152t-125.5 61q-71 0 -113.5 -44t-42.5 -119q0 -89 48.5 -157 t130.5 -68q68 0 108.5 50.5t40.5 124.5z" />
<glyph d="M207 -13l333 698h-392l-43 -149l-30 -5l-13 267l5 6q157 -3 299 -3h37q143 0 264 3l5 -32q-30 -62 -61 -131t-61 -140t-58 -141.5t-52 -137t-45.5 -126t-36.5 -107.5l-147 -8z" />
<glyph d="M250 416q-85 42 -121.5 89t-36.5 107q0 95 87 150.5t207 55.5q109 0 183.5 -44.5t74.5 -118.5q0 -107 -160 -195q104 -49 157.5 -108t53.5 -140q0 -107 -99.5 -172.5t-232.5 -65.5q-139 0 -226 57t-87 153q0 139 200 232zM307 390q-116 -69 -116 -181q0 -72 55 -124.5 t136 -52.5q74 0 120 41t46 106q0 42 -21 73t-55 55t-77.5 43.5t-87.5 39.5zM425 486q83 64 83 147q0 56 -41.5 91.5t-106.5 35.5q-61 0 -101 -32t-40 -80q0 -29 16 -51.5t45.5 -41t67 -35.5t77.5 -34z" />
<glyph d="M124 25q154 29 256 120t146 251h-1q-72 -91 -202 -91q-114 0 -194.5 67.5t-80.5 180.5q0 114 89.5 189.5t222.5 75.5q147 0 236 -94.5t89 -240.5q0 -201 -152 -341t-400 -170zM200 588q0 -94 46.5 -155.5t126.5 -61.5q75 0 114.5 44.5t39.5 123.5q0 95 -51 160t-126 65 q-35 0 -62.5 -13.5t-47 -37t-30 -55.5t-10.5 -70z" />
</font>
</defs>
</svg>
